<svg width="32" height="21" viewBox="0 0 32 21" fill="none" xmlns="http://www.w3.org/2000/svg">
<path d="M9.66699 6.41665H22.3337V9.58331H9.66699V6.41665ZM28.8253 7.99998H31.8337C31.8337 3.62998 28.287 0.083313 23.917 0.083313H17.5837V3.09165H23.917C26.6245 3.09165 28.8253 5.29248 28.8253 7.99998ZM3.17533 7.99998C3.17533 5.29248 5.37616 3.09165 8.08366 3.09165H14.417V0.083313H8.08366C3.71366 0.083313 0.166992 3.62998 0.166992 7.99998C0.166992 12.37 3.71366 15.9166 8.08366 15.9166H14.417V12.9083H8.08366C5.37616 12.9083 3.17533 10.7075 3.17533 7.99998ZM27.0837 7.99998H23.917V12.75H19.167V15.9166H23.917V20.6666H27.0837V15.9166H31.8337V12.75H27.0837V7.99998Z" fill="black"/>
</svg>
