<svg width="18" height="18" viewBox="0 0 18 18" fill="none" xmlns="http://www.w3.org/2000/svg">
<path d="M2.33317 8.99998C2.33317 5.32498 5.32484 2.33331 8.99984 2.33331C12.6748 2.33331 15.6665 5.32498 15.6665 8.99998C15.6665 12.675 12.6748 15.6666 8.99984 15.6666C5.32484 15.6666 2.33317 12.675 2.33317 8.99998ZM0.666504 8.99998C0.666504 13.6 4.39984 17.3333 8.99984 17.3333C13.5998 17.3333 17.3332 13.6 17.3332 8.99998C17.3332 4.39998 13.5998 0.666646 8.99984 0.666647C4.39984 0.666647 0.666503 4.39998 0.666504 8.99998ZM8.99984 8.16665L5.6665 8.16665L5.6665 9.83331L8.99984 9.83331L8.99984 12.3333L12.3332 8.99998L8.99984 5.66665L8.99984 8.16665Z" fill="#FF5B54"/>
</svg>
