<svg width="266" height="69" viewBox="0 0 266 69" fill="none" xmlns="http://www.w3.org/2000/svg">
<g clip-path="url(#clip0_34_266)">
<path d="M4.22578 30.5314C3.86993 30.5314 3.55856 30.2157 3.55856 29.8549C3.55856 29.5843 3.692 29.3588 3.91441 29.2686L8.80739 26.6529C9.91943 26.0667 11.2094 26.0667 12.3214 26.6529L15.2127 28.1863L14.679 24.9392C14.4565 23.6765 14.8569 22.4137 15.7465 21.5569L18.0596 19.2569L14.8569 18.8059C13.6114 18.6255 12.5438 17.8588 12.0101 16.6863L10.5866 13.7549L9.11876 16.6863C8.58498 17.8137 7.51742 18.5804 6.27193 18.8059L0.756216 19.6177C0.400363 19.6628 0.04451 19.3922 2.84319e-05 19.0314C-0.0444532 18.6706 0.222436 18.3098 0.578289 18.2647L6.09401 17.453C6.89468 17.3177 7.5619 16.8216 7.91775 16.1L9.96391 11.9059C10.1418 11.5902 10.5422 11.4549 10.8535 11.5902C10.987 11.6353 11.0759 11.7706 11.1649 11.9059L13.2111 16.1C13.5669 16.8216 14.2786 17.3177 15.0348 17.453L19.5719 18.0843C19.9278 18.1294 20.1947 18.4902 20.1502 18.851C20.1502 18.9863 20.0612 19.1216 19.9723 19.2569L16.6806 22.5039C16.1024 23.0902 15.8355 23.902 15.9689 24.7137L16.7696 29.3137C16.8141 29.6745 16.5917 30.0353 16.2358 30.0804C16.1024 30.1255 15.9689 30.0804 15.8355 30.0353L11.7432 27.8706C11.0315 27.5098 10.1863 27.5098 9.47461 27.8706L4.58163 30.4863C4.44819 30.5314 4.35923 30.5314 4.22578 30.5314Z" fill="#FF5B54"/>
<path d="M20.2391 35.898C20.1502 35.898 20.0167 35.8529 19.9278 35.8078L10.5866 30.847L1.2455 35.8078C0.934131 35.9882 0.533796 35.8529 0.35587 35.5372C0.266907 35.4019 0.266907 35.2667 0.266907 35.0863L0.889649 31.3431C0.934131 30.9823 1.28998 30.7118 1.69032 30.8019C2.04617 30.847 2.31306 31.2078 2.2241 31.6137L1.82376 34.0039L10.2753 29.4941C10.4532 29.4039 10.7201 29.4039 10.898 29.4941L19.3495 34.0039L17.7037 24.4431C17.6592 24.2176 17.7482 23.9921 17.8816 23.8568L24.7318 17.0921L15.2572 15.6941C15.0348 15.649 14.8569 15.5137 14.7679 15.3333L10.5422 6.6294L6.3164 15.3333C6.22744 15.5137 6.04952 15.649 5.82711 15.6941L2.49099 16.1902C2.13513 16.2353 1.77928 15.9647 1.7348 15.6039C1.69032 15.2431 1.95721 14.8823 2.31306 14.8372L5.29333 14.3863L9.9639 4.82548C10.0973 4.59999 10.3197 4.46469 10.5422 4.46469C10.809 4.46469 11.0315 4.59999 11.1204 4.82548L15.791 14.4314L26.2442 15.9647C26.6 16.0098 26.8669 16.3706 26.8224 16.7314C26.8224 16.8667 26.7335 17.0019 26.6445 17.1372L19.0826 24.6235L20.8619 35.1765C20.9064 35.5372 20.684 35.898 20.3281 35.9431C20.2836 35.898 20.2836 35.898 20.2391 35.898Z" fill="#FF5B54"/>
<path d="M6.18295 36.2588L5.96054 45.098L5.8271 49.5176C5.8271 49.8784 5.8271 50.2392 5.8271 50.5549L5.87158 51.051L6.00502 51.5471C6.5388 53.5765 8.09566 55.2 10.0973 55.8314C10.4087 55.9216 10.7646 56.0118 11.1204 56.0569C11.4763 56.102 11.7876 56.102 12.188 56.102L14.3676 56.1471L23.086 56.3726L14.3676 56.598L12.188 56.6431C11.8321 56.6431 11.4318 56.6431 11.0759 56.6431C10.6756 56.598 10.3197 56.5529 9.96389 56.4627C8.45151 56.102 7.11706 55.2 6.18295 53.9373C5.69365 53.3059 5.3378 52.5843 5.11539 51.8176C5.07091 51.6373 4.98195 51.4569 4.93747 51.2314L4.8485 50.6451C4.80402 50.2392 4.75954 49.8333 4.75954 49.4725L4.62609 45.0529L4.40369 36.2588C4.40369 35.7627 4.75954 35.3569 5.29332 35.3118C5.78262 35.3118 6.18295 35.6726 6.18295 36.2137V36.2588Z" fill="white"/>
<path d="M8.40701 46.3157C8.45149 46.9922 8.49597 47.6686 8.58494 48.3C8.71838 48.9314 8.94079 49.5177 9.25216 50.0588C9.56353 50.6 10.0083 51.051 10.4976 51.4569C11.4762 52.2235 12.6328 52.7196 13.8338 52.8549C14.1451 52.9 14.412 52.9 14.7234 52.9L15.702 52.8549C16.992 52.8098 18.3264 52.7647 19.6164 52.7196C22.2408 52.6294 24.8652 52.6294 27.4896 52.5843C28.1568 52.5843 28.8241 52.5843 29.4023 52.5392L30.3364 52.4941C30.6478 52.449 30.9592 52.4039 31.2706 52.3588C31.5819 52.3137 31.8933 52.2686 32.2047 52.1784L33.0943 51.953C33.717 51.7726 34.2953 51.5922 34.8736 51.3667C37.1866 50.4647 39.2772 49.0216 41.012 47.1726C42.7468 45.3235 44.0368 43.1137 44.8819 40.7235L45.1488 39.8216C45.2378 39.5059 45.3267 39.1902 45.3712 38.8745L45.5492 37.9275L45.6381 37.4765L45.6826 36.9804C45.816 35.7177 45.816 34.3647 45.905 33.0569C46.0384 30.3961 46.1274 27.7353 46.3498 25.0745C46.5277 27.7353 46.6612 30.3961 46.7946 33.0569C46.8391 34.4098 46.9281 35.6726 46.8836 37.0706V37.5667L46.8391 38.0628L46.7057 39.1C46.6612 39.4608 46.5722 39.7765 46.5277 40.0922L46.3053 41.0843C44.7485 46.4961 40.8341 50.9157 35.6742 53.0353C35.0515 53.3059 34.3843 53.4863 33.717 53.6667L32.694 53.9373C32.3381 54.0275 32.0267 54.0726 31.6709 54.1177C31.315 54.1628 31.0037 54.2079 30.6478 54.253L29.6247 54.2981C28.913 54.3432 28.2903 54.3432 27.6231 54.2981C24.9986 54.253 22.3742 54.253 19.7498 54.1628C18.4599 54.1177 17.1254 54.1177 15.8354 54.0275L14.8568 53.9824C14.501 53.9824 14.1451 53.9373 13.7893 53.8471C13.0776 53.7118 12.4104 53.4863 11.7876 53.1706C10.5421 52.5392 9.51905 51.502 8.89631 50.2392C8.58494 49.6079 8.40701 48.9314 8.36253 48.2549C8.27357 47.6235 8.36253 46.9922 8.40701 46.3157Z" fill="#000222"/>
<path d="M10.8535 35.7627C10.9425 37.7922 11.0315 39.8667 11.0759 41.8961L11.1204 43.4294V44.1961C11.1204 44.4216 11.1649 44.6922 11.2094 44.9176C11.3428 45.8647 11.7432 46.7667 12.3214 47.4882C12.8997 48.2098 13.6559 48.7961 14.5455 49.1118C14.9903 49.2922 15.4351 49.3824 15.88 49.3824H16.2358H16.5917H17.3478L23.3973 49.2471L26.4221 49.202H28.0234C28.5127 49.1569 28.9575 49.1118 29.4468 49.1118C31.3596 48.8863 33.1388 48.2098 34.7402 47.1275C37.9428 45.0529 40.2559 41.6255 41.3234 37.8824C41.9017 35.9882 42.1686 34.049 42.1686 32.1098L42.2131 25.9765L42.3465 13.7098C42.2575 9.74118 40.4338 5.99804 37.4091 3.47255C35.8967 2.2098 34.1174 1.26275 32.2047 0.766667C30.2475 0.22549 28.2014 0.315686 26.1997 0.180392L29.2244 0C29.7137 0 30.2475 0 30.7368 0.045098L31.493 0.135294C31.7599 0.135294 31.9823 0.180392 32.2492 0.270588C36.386 1.08235 39.989 3.74314 41.9907 7.53137C43.0137 9.42549 43.592 11.5 43.681 13.6647C43.7254 14.2059 43.7254 14.702 43.7254 15.2431L43.7699 16.7765L43.8144 19.8431L43.8589 25.9765L43.9034 32.1098C43.9034 34.2294 43.592 36.3941 43.0137 38.4235C42.391 40.498 41.4569 42.4373 40.2114 44.151C38.9659 45.9098 37.4091 47.398 35.5853 48.5706C33.7616 49.7431 31.6709 50.4647 29.5358 50.6902C29.002 50.7353 28.4682 50.7353 27.9345 50.7804H26.4221L23.3973 50.7353L17.3478 50.6H16.5917H16.1913L15.791 50.5549C15.2572 50.5098 14.679 50.3745 14.1897 50.149C13.1666 49.7431 12.2769 49.0216 11.6542 48.1196C11.3428 47.6686 11.0759 47.1726 10.898 46.6314C10.7201 46.1353 10.5866 45.5941 10.5422 45.0529C10.4977 44.7824 10.4977 44.5118 10.4977 44.2412V43.4745L10.5422 41.9412C10.6756 39.8667 10.7646 37.7922 10.8535 35.7627Z" fill="#000222"/>
<path d="M15.4796 46.3157C18.3264 46.1353 21.2177 46 24.0646 45.8647L26.1997 45.7745C26.5555 45.7745 26.9114 45.7745 27.2672 45.7294L28.2903 45.6392C29.6248 45.4588 30.9592 45.0529 32.1602 44.3765C34.5622 43.1137 36.386 40.9941 37.409 38.4686C37.8983 37.2059 38.1652 35.898 38.2097 34.5451C38.2542 34.2294 38.2097 33.8235 38.2097 33.4627V32.3804V30.2157L38.2542 21.5118C38.2987 18.6255 38.3432 15.6941 38.3876 12.8078L38.4321 11.7255C38.4321 11.3647 38.4321 11.049 38.3876 10.6882C38.3432 10.3275 38.2987 10.0118 38.2542 9.69608C38.2097 9.3804 38.1208 9.01961 38.0318 8.70393C37.2311 5.99804 35.2739 3.78824 32.7385 2.61569C31.4485 2.02942 30.0251 1.71373 28.6462 1.66863C29.002 1.62354 29.3579 1.62354 29.7137 1.62354C29.8917 1.62354 30.0696 1.62354 30.2475 1.62354L30.7813 1.66863C31.1371 1.71373 31.493 1.75883 31.8488 1.84903C32.2047 1.93922 32.5606 2.02942 32.9164 2.16471C34.3398 2.66079 35.5853 3.47255 36.6529 4.50981C37.7204 5.59216 38.5656 6.90001 39.0993 8.34314C39.2328 8.70393 39.3662 9.06471 39.4552 9.4255C39.5442 9.78628 39.5886 10.1922 39.6776 10.5529C39.7666 10.9137 39.7221 11.3196 39.7666 11.7255L39.8111 12.8078C39.9 15.6941 39.9 18.6255 39.9445 21.5118L39.989 30.2157C39.989 31.6588 39.989 33.102 39.9445 34.5902C39.9 36.1686 39.5886 37.702 38.9659 39.1451C37.7649 42.0314 35.5408 44.3314 32.783 45.6843C31.404 46.3608 29.9361 46.7216 28.4238 46.8569H27.3117C26.9559 46.8569 26.6 46.8569 26.2442 46.8118L24.109 46.7216C21.1733 46.6314 18.3264 46.5412 15.4796 46.3157Z" fill="white"/>
<path d="M266 19.2569C265.11 19.3921 264.443 18.9412 263.642 18.5804C261.685 17.6784 259.461 17.7235 257.548 18.7157C254.301 20.3392 253.1 23.2255 253.1 26.698C253.056 33.8235 253.1 40.949 253.1 48.0745C253.145 48.8863 253.145 49.6529 253.056 50.4647C253.056 51.2314 252.433 51.8176 251.677 51.7725C251.632 51.7725 251.588 51.7725 251.543 51.7725C250.787 51.7725 250.12 51.1412 250.12 50.3745C250.076 49.6529 250.076 48.9314 250.076 48.2098C250.076 37.9274 250.076 27.6451 250.076 17.3627C250.076 15.9647 250.52 15.4235 251.543 15.3784C252.522 15.3784 252.922 15.7392 253.056 16.7314C253.1 17.1372 253.323 17.8588 253.545 17.9039C254.034 17.949 254.568 17.8137 254.969 17.498C257.726 15.2431 260.84 14.702 264.221 15.5137C264.799 15.649 265.377 15.8745 266 16.0549V19.2569Z" fill="#FF5B54"/>
<path d="M116.631 33.3725C116.631 27.6451 116.631 21.9176 116.631 16.1451C116.631 14.4314 117.031 14.0255 118.766 14.0706C119.3 14.0706 119.789 14.0706 120.323 14.0706C121.079 13.9804 121.791 14.2961 122.235 14.9274C122.591 15.5137 123.303 15.649 123.881 15.3333C123.926 15.2882 123.97 15.2431 124.015 15.2431C126.417 13.4392 129.175 13.6196 131.799 14.2059C134.735 14.8823 137.226 16.7314 138.783 19.347C140.295 21.7823 140.873 24.4431 140.873 27.2843C140.873 34.7255 140.873 42.1667 140.873 49.5627C140.873 50.1941 140.918 50.7804 140.873 51.4118C140.873 52.2686 140.162 52.9902 139.316 52.9451H139.272C138.427 52.9902 137.582 52.9902 136.692 52.9451C135.58 52.9 135.046 52.2235 135.046 51.0961C135.046 42.9784 135.046 34.8608 135.091 26.7431C135.091 24.8039 134.824 23.0451 133.534 21.5118C131.532 19.0765 127.262 19.1216 125.394 20.3392C123.17 21.8274 122.191 23.7667 122.235 26.4725C122.28 34.6804 122.28 42.8431 122.28 51.051C122.28 52.5392 121.835 52.9902 120.367 52.9902C119.611 52.9902 118.855 52.9902 118.143 52.9902C117.342 53.0353 116.675 52.449 116.631 51.6823C116.631 51.6372 116.631 51.5921 116.631 51.547C116.586 49.4274 116.631 47.3078 116.631 45.1431C116.631 41.1745 116.631 37.251 116.631 33.3725Z" fill="#000222"/>
<path d="M57.1588 33.4177C57.1588 36.2137 57.1144 38.9647 57.1588 41.7608C57.2033 46.3608 61.5625 48.5255 65.3434 47.4883C66.9003 47.0824 67.9234 46.0451 68.9909 44.9628C69.7916 44.151 70.2809 44.2412 71.1261 44.9177C71.6154 45.3235 72.1936 45.6392 72.7274 46C74.0174 46.902 74.0174 47.7588 72.9943 48.9314C70.2809 52.0431 66.8558 53.7118 62.808 53.4412C58.5378 53.1706 55.1127 51.2314 52.9331 47.2177C51.6876 44.9177 51.4652 42.4373 51.4207 39.9569C51.2873 35.7177 51.3317 31.4333 51.4207 27.1941C51.4652 24.4431 51.7766 21.6922 53.3779 19.3471C54.5789 17.5432 56.2692 16.0549 58.1819 15.0628C60.495 13.8451 62.897 13.7098 65.3434 14.0255C68.5461 14.3863 71.4374 16.1451 73.2167 18.851C75.6632 22.3235 76.2859 26.202 74.8625 30.2608C73.9729 32.7863 72.1936 34.6804 69.9251 36.1235C67.2562 37.7922 64.3649 37.8824 61.3846 38.0177C60.3615 38.0628 59.7388 37.5216 59.6943 36.5294C59.6498 35.5373 59.6498 34.5451 59.7388 33.553C59.8277 32.4706 60.317 32.1098 61.4291 32.1098C62.5411 32.1098 63.5197 32.2 64.5873 32.1098C67.8789 31.8392 70.103 28.9079 69.9695 25.5706C69.7916 20.6549 65.1655 18.4902 61.0287 19.9333C58.4043 20.8353 57.1144 22.4588 57.0699 26.2922C57.0699 28.7275 57.0699 31.1177 57.0699 33.553L57.1588 33.4177Z" fill="#000222"/>
<path d="M145.544 33.7333C145.544 30.6667 145.366 27.5549 145.588 24.4882C145.811 21.2412 147.368 18.5804 149.859 16.5059C153.195 13.7549 157.02 13.1235 161.023 14.3412C165.027 15.5588 167.607 18.2647 168.986 22.3235C170.498 26.7431 169.208 31.6588 165.739 34.7706C162.58 37.6118 158.799 38.1079 154.841 37.8373C154.44 37.7922 153.817 37.0255 153.773 36.5745C153.684 35.5373 153.684 34.5 153.773 33.4628C153.817 32.5157 154.396 32.1098 155.285 32.1098C156.442 32.1098 157.598 32.1549 158.755 32.1098C162.447 31.8392 165.16 27.1941 163.692 23.7216C161.913 19.5726 157.42 18.1745 153.64 20.6549C151.816 21.8275 151.06 23.5863 151.06 25.6608C151.06 29.7196 151.06 33.7784 151.06 37.8373C151.06 39.2353 151.06 40.6333 151.104 41.9863C151.326 46 155.285 48.751 159.111 47.5784C160.579 47.1726 161.869 46.3157 162.847 45.1431C163.603 44.2412 164.137 44.2863 165.027 45.0079C165.739 45.549 166.539 46.0451 167.206 46.6314C167.74 46.9922 167.874 47.7137 167.473 48.2549C167.429 48.3 167.384 48.3451 167.34 48.3902C165.916 50.2843 164.004 51.7726 161.824 52.6745C158.532 54.0275 155.285 53.7569 152.127 52.4039C149.77 51.3667 147.857 49.5177 146.745 47.1726C145.677 45.0079 145.232 42.5726 145.366 40.1373C145.41 38.0628 145.366 35.9431 145.366 33.8686L145.544 33.7333Z" fill="#000222"/>
<path d="M88.9632 52.9451C85.7161 52.9451 82.4689 52.9451 79.1773 52.9C78.7325 52.9 78.0208 52.6745 77.8873 52.4039C77.7539 51.8627 77.7984 51.2765 78.0208 50.7804C78.7325 49.1569 79.5331 47.5333 80.2893 45.9098C81.0455 44.2863 81.7127 42.7529 82.4244 41.1745C83.1361 39.5961 83.8034 38.0176 84.5151 36.4392C85.6716 33.8686 86.8726 31.298 88.0291 28.6824C88.6963 27.149 89.3636 25.5706 90.0308 24.0373C90.4311 23.1353 90.9204 22.3235 91.2763 21.4216C91.7211 20.1588 91.2763 19.6176 89.9863 19.6176C86.7836 19.6176 83.6254 19.6176 80.4228 19.6627C79.2662 19.6627 78.8214 19.2118 78.8214 18.0392C78.8214 17.2725 78.8214 16.5059 78.8659 15.7843C78.9104 14.4765 79.3552 14.0706 80.6452 14.0706C84.9154 14.1157 89.2301 14.1608 93.5004 14.1608C95.2796 14.1608 97.0589 14.1157 98.8382 14.0706C100.262 14.0706 100.617 14.702 99.9947 16.0098C98.8826 18.4451 97.8151 20.9255 96.7475 23.3608C95.5465 26.0216 94.3455 28.6824 93.1445 31.3431C92.5218 32.6961 91.988 34.0941 91.3652 35.4471C90.2087 38.0176 89.0967 40.5882 87.9402 43.1588C87.5398 44.0608 87.095 44.9176 86.6947 45.7745C86.3833 46.4961 86.6502 46.9471 87.3619 47.1725C87.4953 47.2176 87.5843 47.2176 87.7178 47.2176C91.3652 47.2176 95.0127 47.2176 98.6602 47.1725C100.084 47.1274 100.662 47.5333 100.795 48.9765C100.84 49.698 100.84 50.4196 100.84 51.1412C100.795 52.3137 100.262 52.8549 99.105 52.8549C95.591 52.9 92.2549 52.9 88.9632 52.9451Z" fill="#000222"/>
<path d="M241.535 34.951C241.535 38.198 241.535 41.4902 241.535 44.7373C241.535 46.3608 241.98 47.7588 243.626 48.5706C244.426 48.9765 244.649 50.1941 244.204 51.051C243.715 51.9078 243.047 51.6824 242.336 51.4118C241.402 51.1412 240.557 50.5098 240.067 49.6529C239.444 48.5706 238.644 48.4353 237.754 49.3373C235.308 51.6824 232.327 52.4039 229.125 51.9529C226.589 51.6373 224.276 50.3294 222.63 48.3451C220.184 45.5941 219.294 41.7608 220.228 38.198C220.718 36.3039 221.785 34.6353 223.253 33.4176C225.967 31.0725 229.125 30.0804 232.683 30.7118C233.528 30.8922 234.374 31.2529 235.13 31.749C235.53 32.0647 235.797 32.5157 235.886 33.0118C236.108 34.2294 235.441 34.7706 234.24 34.5C232.906 34.1843 231.527 33.598 230.192 33.6882C224.721 33.9588 221.429 38.9196 223.52 44.1961C225.032 47.9843 229.481 49.6078 232.995 48.7059C236.375 47.849 238.51 44.1961 238.51 41.1294C238.466 36.1686 238.51 31.2078 238.51 26.2471C238.555 24.1275 237.843 22.098 236.464 20.5196C234.374 18.1294 230.548 17.5431 227.879 18.6706C226.856 19.2118 225.878 19.8431 224.988 20.5647C224.276 21.1059 223.253 21.0608 222.586 20.4745C222.097 19.9784 222.141 19.0314 222.764 18.3549C225.255 15.5588 231.215 14.1608 234.64 15.649C239.178 17.5431 241.58 21.602 241.58 26.4725C241.535 29.3588 241.535 32.1549 241.535 34.951Z" fill="#FF5B54"/>
<path d="M185.266 52.1333C180.862 52.0882 177.882 50.4196 175.702 47.2628C174.902 46.1353 174.501 44.6922 174.012 43.3843C173.656 42.2569 174.012 41.4451 174.768 41.2647C175.969 40.9941 176.725 41.4451 176.992 42.7078C177.437 44.6922 178.327 46.451 180.017 47.6686C181.529 48.751 183.398 49.2471 185.266 49.0667C190.426 48.5706 192.917 44.0608 192.383 39.9569C192.116 38.2431 191.182 36.7549 189.759 35.8078C187.89 34.4098 185.711 33.9588 183.531 33.4627C180.017 32.6961 177.259 30.8922 175.747 27.4647C174.813 25.3 175.169 23.1353 175.969 21.0157C176.903 18.6255 178.594 17.0471 180.818 15.9196C182.73 14.9275 184.821 15.0177 186.823 15.3333C189.536 15.7843 191.671 17.3628 193.317 19.5726C193.806 20.249 193.406 20.7902 192.917 21.2863C192.427 21.7824 191.894 21.9627 191.271 21.5569C190.915 21.2863 190.559 21.0157 190.292 20.6549C188.246 18.4 185.666 17.5882 182.819 18.4C179.038 19.4824 176.814 24.4431 179.216 27.4196C180.417 28.9078 182.063 29.9902 183.887 30.3961C185.666 30.8471 187.579 31.1177 189.225 31.8843C194.518 34.4098 196.876 39.4157 194.474 45.3235C193.628 47.4882 192.072 49.2922 190.114 50.5098C188.558 51.5922 186.734 52.2686 185.266 52.1333Z" fill="#FF5B54"/>
<path d="M110.136 32.9667C110.136 38.5137 110.136 44.0608 110.136 49.5628C110.136 50.2392 110.181 50.9157 110.136 51.5922C110.136 52.3137 109.558 52.9 108.846 52.9C108.802 52.9 108.758 52.9 108.713 52.9C107.823 52.9 106.934 52.9 106.044 52.9C105.377 52.9451 104.754 52.449 104.71 51.7726V51.7275C104.665 51.0059 104.665 50.2392 104.665 49.5177C104.665 38.6039 104.665 27.7353 104.665 16.8667C104.665 14.1608 104.71 14.1157 107.379 14.1157C110.136 14.1157 110.181 14.1157 110.136 16.9569C110.181 22.2784 110.181 27.6 110.136 32.9667Z" fill="#000222"/>
<path d="M203.103 31.0726C203.103 27.6451 203.103 24.2177 203.103 20.7902C203.103 19.1667 202.881 18.851 201.324 18.4C200.568 18.1745 200.078 17.7235 200.078 16.8667C200.078 16.0098 200.612 15.649 201.324 15.4686C203.103 14.9275 203.103 14.9275 203.103 13.0784C203.059 9.74118 203.059 6.35883 203.059 3.02158C203.059 2.16471 203.281 1.35295 204.171 1.08236C205.194 0.766673 206.083 1.48824 206.083 2.70589C206.083 6.31373 206.083 9.87648 206.039 13.4843C206.039 15.0628 206.573 15.649 208.129 15.5137C209.064 15.4235 209.998 15.4235 210.976 15.4235C211.732 15.3333 212.444 15.9196 212.489 16.7314C212.489 16.8216 212.489 16.8667 212.489 16.9569C212.533 17.8137 211.91 18.4902 211.065 18.5804C211.021 18.5804 210.976 18.5804 210.932 18.5804C210.042 18.6255 209.108 18.5804 208.218 18.5353C206.617 18.4 206.039 18.9412 206.039 20.5196C206.039 27.2843 206.083 34.0941 206.039 40.8588C206.039 43.9706 207.284 46.3608 209.864 47.9392C210.932 48.6157 212.311 48.7961 213.601 49.1118C214.312 49.2922 215.069 49.3373 215.335 50.1941C215.602 50.9608 215.202 51.7726 214.446 52.0431C214.401 52.0431 214.401 52.0431 214.357 52.0882C213.912 52.2235 213.467 52.2686 212.978 52.2235C208.975 51.5922 205.816 49.5627 204.037 45.8647C203.414 44.4216 203.103 42.8882 203.103 41.3549C203.014 37.8373 203.103 34.4549 203.103 31.0726Z" fill="#FF5B54"/>
<path d="M107.423 4.10392C109.069 4.05883 110.448 5.32157 110.492 6.9902C110.492 7.0353 110.492 7.08039 110.492 7.12549C110.492 8.88432 109.113 10.2824 107.379 10.2824C105.644 10.2824 104.265 8.88432 104.265 7.12549C104.265 5.45686 105.599 4.10392 107.245 4.10392C107.29 4.10392 107.379 4.10392 107.423 4.10392Z" fill="#000222"/>
<path d="M37.2311 62.3706H37.8093V68.8647H37.2311V62.3706Z" fill="white"/>
<path d="M46.6612 68.2784V68.8647H42.4799V62.3706H43.0582V68.2784H46.6612Z" fill="#000222"/>
<path d="M55.0237 68.2784V68.8647H50.8425V62.3706H51.4207V68.2784H55.0237Z" fill="#000222"/>
<path d="M59.4274 66.249V62.3706H60.0057V66.249C59.9167 67.3765 60.7619 68.3686 61.8739 68.4588C62.986 68.549 63.9646 67.6922 64.0535 66.5647C64.0535 66.4745 64.0535 66.3392 64.0535 66.249V62.3706H64.6318V66.249C64.6318 67.6922 63.4753 68.9098 62.0074 68.9098C60.5839 68.9098 59.4274 67.7373 59.4274 66.249Z" fill="#000222"/>
<path d="M69.6137 62.3706H70.192L72.6385 67.0157L75.0849 62.3706H75.6632V68.8647H75.0849V63.6334L72.6385 68.2784L70.192 63.6334V68.8647H69.6137V62.3706Z" fill="#000222"/>
<path d="M80.6006 62.3706H81.1789V68.8647H80.6006V62.3706Z" fill="#000222"/>
<path d="M86.0719 62.3706H86.6502L90.7425 67.8726V62.3706H91.3207V68.8647H90.7425L86.6502 63.3628V68.8647H86.0719V62.3706Z" fill="#000222"/>
<path d="M100.84 67.3314H97.1478L96.4806 68.8647H95.8134L98.6602 62.3706H99.3274L102.174 68.8647H101.507L100.84 67.3314ZM100.573 66.7451L98.9716 63.1373L97.4147 66.7451H100.573Z" fill="#000222"/>
<path d="M107.779 62.9569H105.555V62.3706H110.581V62.9569H108.357V68.8647H107.779V62.9569Z" fill="#000222"/>
<path d="M115.029 62.3706H115.608V68.8647H115.029V62.3706Z" fill="#000222"/>
<path d="M120.501 62.3706H121.079L125.216 67.8726V62.3706H125.794V68.8647H125.216L121.123 63.3628V68.8647H120.545L120.501 62.3706Z" fill="#000222"/>
<path d="M133.667 65.5274H136.247V68.0078C135.58 68.6392 134.69 69 133.756 69C131.932 69 130.42 67.5118 130.42 65.6176C130.42 63.7686 131.888 62.2353 133.756 62.2353C134.69 62.2353 135.58 62.5961 136.247 63.2274L135.847 63.6333C135.269 63.0922 134.557 62.7765 133.756 62.7765C132.244 62.8216 131.043 64.1294 131.087 65.7078C131.132 67.151 132.288 68.3235 133.756 68.4137C134.423 68.4137 135.091 68.1882 135.624 67.7372V66.0686H133.667V65.5274Z" fill="#000222"/>
<path d="M148.791 62.9569H146.567V62.3706H151.593V62.9569H149.369V68.8647H148.791V62.9569Z" fill="#000222"/>
<path d="M161.157 62.3706V68.8647H160.579V65.8432H156.664V68.8647H156.086V62.3706H156.664V65.2569H160.579V62.3706H161.157Z" fill="#000222"/>
<path d="M166.495 62.9569V65.2569H170.009V65.8432H166.495V68.2784H170.365V68.8647H165.916V62.3706H170.365V62.9569H166.495Z" fill="#000222"/>
<path d="M180.862 62.3706H181.44V68.8647H180.862V62.3706Z" fill="#000222"/>
<path d="M186.378 62.3706H188.558C190.559 62.3706 191.983 63.7235 191.983 65.6177C191.983 67.5118 190.559 68.8647 188.558 68.8647H186.378V62.3706ZM188.558 68.3235C190.203 68.3235 191.36 67.1961 191.36 65.6177C191.36 64.0392 190.203 62.9118 188.558 62.9118H186.956V68.2784L188.558 68.3235Z" fill="#000222"/>
<path d="M197.142 62.9569V65.2569H200.657V65.8432H197.142V68.2784H201.012V68.8647H196.52V62.3706H201.012V62.9569H197.142Z" fill="#000222"/>
<path d="M210.087 67.3314H206.395L205.727 68.8647H205.06L207.907 62.3706H208.574L211.421 68.8647H210.754L210.087 67.3314ZM209.864 66.7451L208.307 63.1373L206.706 66.7451H209.864Z" fill="#000222"/>
<path d="M215.424 67.9628L215.78 67.5118C216.359 68.098 217.115 68.4588 217.96 68.4588C218.983 68.4588 219.561 67.8726 219.561 67.2412C219.561 66.6098 218.983 66.2039 217.782 65.9333C216.447 65.6177 215.691 65.1667 215.691 64.1745C215.691 63.1824 216.581 62.3255 217.826 62.3255C218.672 62.3255 219.472 62.6863 220.051 63.2726L219.695 63.7235C219.205 63.1824 218.538 62.9118 217.782 62.8667C216.892 62.8667 216.314 63.4079 216.314 64.1294C216.314 64.851 216.937 65.0765 218.093 65.3471C219.428 65.6628 220.184 66.1137 220.184 67.1961C220.184 68.2784 219.383 69.0451 217.96 69.0451C216.981 69 216.092 68.5941 215.424 67.9628Z" fill="#000222"/>
<path d="M224.721 68.549C224.721 68.2784 224.899 68.0981 225.166 68.0981C225.433 68.0981 225.611 68.2784 225.611 68.549C225.611 68.8196 225.433 69 225.166 69C224.899 69 224.721 68.8196 224.721 68.549ZM224.855 62.3706H225.522L225.388 67.0608H224.943L224.855 62.3706Z" fill="#000222"/>
</g>
<defs>
<clipPath id="clip0_34_266">
<rect width="266" height="69" fill="white"/>
</clipPath>
</defs>
</svg>
