<svg width="74" height="66" viewBox="0 0 74 66" fill="none" xmlns="http://www.w3.org/2000/svg">
<path opacity="0.4" d="M73.6668 28.453C73.6668 26.7296 72.2735 25.2996 70.5135 25.2996H3.48683C1.72683 25.2996 0.333496 26.693 0.333496 28.453C0.333496 50.0496 15.4035 65.1196 37.0002 65.1196C58.5968 65.1196 73.6668 50.013 73.6668 28.453Z" fill="#FF5B54"/>
<path d="M38.6861 47.3L49.1361 36.8867C50.1994 35.8233 50.1994 34.0633 49.1361 33C48.0728 31.9367 46.3128 31.9367 45.2494 33L39.5294 38.72V3.62996C39.5294 2.12663 38.2828 0.879959 36.7794 0.879959C35.2761 0.879959 34.0294 2.12663 34.0294 3.62996V38.72L28.2729 33C27.2096 31.9367 25.4496 31.9367 24.3863 33C23.8363 33.55 23.5796 34.2467 23.5796 34.9433C23.5796 35.64 23.8363 36.3367 24.3863 36.8867L34.8361 47.3C35.8994 48.4 37.6228 48.4 38.6861 47.3Z" fill="#FF5B54"/>
</svg>
