<svg id="Layer_1" data-name="Layer 1" xmlns="http://www.w3.org/2000/svg" viewBox="0 0 2243.84 395.94"><defs><style>.cls-1{fill:#ce2029;}.cls-2{fill:#fcfcfc;}.cls-3{fill:#fff;}</style></defs><title>f_logo</title><path class="cls-1" d="M1004.83,97.12c7.48,0,9.44,3.58,7.48,8.78C996,149.82,967.74,210,937.16,259.14c-2.93,4.88-7.16,7.16-13.66,7.16H890.31l-7.48-130.46c-12.69,36.44-35.14,84.91-58.24,124-2.93,4.88-6.51,6.51-12.36,6.51H779.37L762.78,104.92c10.09-6.18,21.8-10.41,29.28-10.41,4.23,0,6.51,1.3,6.51,5.53l9.11,133.39c21.15-35.79,44.25-86.87,60.51-136.32h30.58c6.83,0,10.74,2.6,11.39,9.11l8.46,127.21c21.15-35.79,44.25-86.87,60.51-136.32h25.7Z" transform="translate(-7.93 -9.28)"/><path class="cls-1" d="M1152.54,246.45c-2,10.08-25.05,23.75-56.94,23.75-49.45,0-77.76-36.76-68-87.84,10.74-56.29,56.28-89.14,102.48-89.14,40.67,0,62.46,26.68,56,61.49a82.18,82.18,0,0,1-10.74,27c-6.83,10.41-14.31,14-27.65,14h-87.19c-2.28,30.58,17.24,45.22,46.85,45.22a102.9,102.9,0,0,0,43.27-9.44c2,3.25,2.93,10.09,2,15m-86.22-79.38H1148a26.86,26.86,0,0,0,4.56-10.41c4.23-20.82-6.18-34.16-29.61-34.16C1096.58,122.49,1075.43,139.09,1066.32,167.06Z" transform="translate(-7.93 -9.28)"/><path class="cls-1" d="M1219.56,192.77l30.58-157.14a93.37,93.37,0,0,1,24.4-3.25c7.16,0,9.76,2.6,8.78,7.81l-15.62,79.06c16.59-15.62,38.39-26.35,61.81-26.35,40,0,65.72,31.56,56,82.31-10.41,54.66-54.33,95-106.39,95-46.2,0-69-29.61-59.54-77.43m43.59-47.5-9.11,47.5c-6.51,32.86,9.76,48.15,31.56,48.15,28.31,0,57.91-25.38,65.07-64.09,7.48-39.37-10.41-55-35.79-55C1298,122.17,1277.8,131.93,1263.15,145.27Z" transform="translate(-7.93 -9.28)"/><path class="cls-2" d="M1418.67,217.49l35.46-181.87a93.37,93.37,0,0,1,24.4-3.25c7.16,0,9.76,2.6,8.78,7.81l-34.48,178.61c-3.25,15.94,2,22.12,13.66,22.12a53,53,0,0,0,19.19-3.58c1.63,3.58,2.6,9.11,1.63,13.34-1.3,6.83-14.64,17.89-35.79,17.89-29,0-39-19.52-32.86-51.08" transform="translate(-7.93 -9.28)"/><path class="cls-2" d="M1670.48,241.24c.65,3.9.32,7.48-.32,12-1.63,6.83-12,15.62-27,15.62-12.36,0-24.07-7.81-24.4-27.33-14.31,17.89-35.79,29-59.21,29-33.51,0-53-21.47-46.52-53,6.51-34.81,37.41-55.63,79.06-55.63,14.31,0,31.23,3.58,39.37,8.46l2.28-10.74c4.88-24.07-7.81-37.09-40.34-37.09a110.2,110.2,0,0,0-44.9,9.44c-2-3.25-2.93-9.76-2-15,2-10.08,28.63-23.75,61.49-23.75,45.22,0,68.32,22.45,59.21,67.67l-12.36,63.44c-2.6,13,1.3,16.92,8.79,16.92h6.83Zm-47.82-26.35,3.9-19.52c-6.83-2.93-24.4-4.56-35.14-4.56-25.05,0-41,8.79-44.25,25.38-3.25,16.92,8.78,24.73,26.68,24.73C1590.77,241.24,1611.27,231.16,1622.66,214.89Z" transform="translate(-7.93 -9.28)"/><path class="cls-2" d="M1712.78,266.62c-7.16,0-9.76-2.6-8.78-7.81l31.56-160.72a93.37,93.37,0,0,1,24.4-3.25c7.16,0,9.76,2.6,8.78,7.81l-2.6,13c15-12.69,37.74-22.45,58.56-22.45,38.39,0,55.31,27.33,45.87,75.15l-11.06,56c-2.28,12,0,16.92,7.48,16.92h7.81c.65,3.9.32,7.48-.32,12-1.63,6.83-12,15.62-27,15.62-15.61,0-29.28-8.78-23.1-41.32l12.36-62.46c5.53-28-3.25-42.62-28-42.62-15.62,0-34.49,6.51-47.83,17.24l-24.4,126.88h-23.75Z" transform="translate(-7.93 -9.28)"/><path class="cls-2" d="M2072.6,135.83c-.65,3.25-3.58,6.51-8.13,8.78-6.51,3.9-15.62,6.51-24.07,7.16-1.3-17.24-11.71-29.61-33.51-29.61-25.7,0-49.45,20.17-56,53.36-8.13,42.94,16.59,65.39,49.78,65.39a105.79,105.79,0,0,0,43.92-9.44,25.6,25.6,0,0,1,2,15c-2,10.08-25.38,23.75-56.61,23.75-46.85,0-85.56-33.83-73.85-93.7,9.76-52.06,50.43-83.61,97.93-83.61,31.88,0,52.38,14.64,58.24,33.51a31.25,31.25,0,0,1,.33,9.44" transform="translate(-7.93 -9.28)"/><path class="cls-2" d="M2215.1,246.45c-2,10.08-25.05,23.75-56.94,23.75-49.45,0-77.76-36.76-68-87.84,10.74-56.29,56.28-89.14,102.48-89.14,40.67,0,62.47,26.68,56,61.49a82.2,82.2,0,0,1-10.74,27c-6.83,10.41-14.31,14-27.65,14H2123c-2.28,30.58,17.24,45.22,46.85,45.22a102.9,102.9,0,0,0,43.27-9.44c2,3.25,2.93,10.09,2,15m-86.22-79.38h81.66a26.86,26.86,0,0,0,4.55-10.41c4.23-20.82-6.18-34.16-29.61-34.16C2159.15,122.49,2138,139.09,2128.89,167.06Z" transform="translate(-7.93 -9.28)"/><path class="cls-2" d="M1429.46,349.67l-4.41,22.17a1.51,1.51,0,0,1-.35.6,1.71,1.71,0,0,1-.77.44,8.35,8.35,0,0,1-1.3.28,13.38,13.38,0,0,1-1.9.12,12.76,12.76,0,0,1-1.9-.12,5.73,5.73,0,0,1-1.16-.28,1,1,0,0,1-.56-.44,1,1,0,0,1-.09-.6l4.45-22.17-10.2-33.86a11.46,11.46,0,0,1-.35-1.62,1,1,0,0,1,.3-.93,2.36,2.36,0,0,1,1.23-.44,20,20,0,0,1,2.48-.12q1.25,0,2,.07a3.55,3.55,0,0,1,1.25.3,1.59,1.59,0,0,1,.67.58,4.46,4.46,0,0,1,.4,1l4.78,16.47q.84,2.88,1.48,5.54t1.25,5.54h.09q1.67-2.78,3.39-5.52t3.62-5.52l11.36-16.75a3.64,3.64,0,0,1,.63-.79,2.71,2.71,0,0,1,.9-.53,5.29,5.29,0,0,1,1.39-.28q.84-.07,2.23-.07a15.11,15.11,0,0,1,2.55.16,1.74,1.74,0,0,1,1.14.53,1,1,0,0,1,0,1,9.1,9.1,0,0,1-.88,1.44Z" transform="translate(-7.93 -9.28)"/><path class="cls-2" d="M1489.83,343.92a39.27,39.27,0,0,1-.65,7,36,36,0,0,1-2,6.89,30.79,30.79,0,0,1-3.36,6.24,24,24,0,0,1-4.8,5.1,22.39,22.39,0,0,1-6.26,3.46,22.69,22.69,0,0,1-7.82,1.28,24.1,24.1,0,0,1-7.63-1.07,13.16,13.16,0,0,1-5.22-3.11,12.43,12.43,0,0,1-3-5,21.51,21.51,0,0,1-1-6.73,40.56,40.56,0,0,1,.63-7,33.21,33.21,0,0,1,5.34-13.1,23.21,23.21,0,0,1,4.78-5.13,22.4,22.4,0,0,1,6.26-3.46,22.72,22.72,0,0,1,7.81-1.28,23.64,23.64,0,0,1,7.63,1.09,13.61,13.61,0,0,1,5.24,3.13,12.33,12.33,0,0,1,3,5A21.29,21.29,0,0,1,1489.83,343.92Zm-8.07.46a16.49,16.49,0,0,0-.49-4.18,7.08,7.08,0,0,0-4.59-5.1,13.82,13.82,0,0,0-9.49.3,14.1,14.1,0,0,0-4.06,2.69,17.66,17.66,0,0,0-3.11,4,26,26,0,0,0-2.18,4.85,32.15,32.15,0,0,0-1.28,5.29,35,35,0,0,0-.42,5.31,15.71,15.71,0,0,0,.51,4.18,7.88,7.88,0,0,0,1.65,3.15,7.33,7.33,0,0,0,2.94,2,13.82,13.82,0,0,0,9.49-.3,13.91,13.91,0,0,0,4-2.71,18.12,18.12,0,0,0,3.11-4,25.65,25.65,0,0,0,2.18-4.87,32.88,32.88,0,0,0,1.28-5.29A34.21,34.21,0,0,0,1481.76,344.38Z" transform="translate(-7.93 -9.28)"/><path class="cls-2" d="M1533.78,371.84a1.23,1.23,0,0,1-.28.65,1.56,1.56,0,0,1-.65.44,5,5,0,0,1-1.09.26,12.3,12.3,0,0,1-1.65.09,10.86,10.86,0,0,1-1.56-.09,3.7,3.7,0,0,1-1-.26.86.86,0,0,1-.46-.44,1,1,0,0,1,0-.65l1.53-7.84a13.58,13.58,0,0,1-2.34,3.32,22,22,0,0,1-3.76,3.22,20.62,20.62,0,0,1-4.73,2.41,15.3,15.3,0,0,1-5.22.93,14.42,14.42,0,0,1-5.31-.86,8.9,8.9,0,0,1-3.48-2.37,9,9,0,0,1-1.9-3.57,16.7,16.7,0,0,1-.58-4.52,24,24,0,0,1,.21-3.13q.21-1.6.53-3.22L1507.2,330a1.66,1.66,0,0,1,.32-.6,1.7,1.7,0,0,1,.72-.46,4.86,4.86,0,0,1,1.25-.26q.77-.07,1.88-.07t1.83.07a3.52,3.52,0,0,1,1.11.26,1,1,0,0,1,.51.46,1.14,1.14,0,0,1,.07.6l-5.1,25.88a21.17,21.17,0,0,0-.42,2.51,24.75,24.75,0,0,0-.14,2.64,11.56,11.56,0,0,0,.26,2.53,5.11,5.11,0,0,0,.88,2,4.21,4.21,0,0,0,1.62,1.3,5.74,5.74,0,0,0,2.44.46,10.4,10.4,0,0,0,5-1.42,18.17,18.17,0,0,0,4.8-3.92,27.56,27.56,0,0,0,4-6,30.09,30.09,0,0,0,2.57-7.54l3.66-18.46a1.13,1.13,0,0,1,.3-.6,1.91,1.91,0,0,1,.74-.46,4.86,4.86,0,0,1,1.25-.26q.77-.07,1.88-.07t1.83.07a3.52,3.52,0,0,1,1.11.26,1,1,0,0,1,.51.46,1.14,1.14,0,0,1,.07.6Z" transform="translate(-7.93 -9.28)"/><path class="cls-2" d="M1582.78,330.14a7.09,7.09,0,0,1-.07.72l-.16,1.23a13.46,13.46,0,0,1-.28,1.44,8.36,8.36,0,0,1-.46,1.37,5.94,5.94,0,0,1-.58,1,.85.85,0,0,1-.67.42,2.36,2.36,0,0,1-.81-.16c-.3-.11-.62-.24-1-.4a7.31,7.31,0,0,0-1.23-.4,7.22,7.22,0,0,0-1.62-.16,6.87,6.87,0,0,0-3.64,1.37,19,19,0,0,0-4.06,3.78,29.88,29.88,0,0,0-3.64,5.71,28.84,28.84,0,0,0-2.44,7.14l-3.67,18.6a1.43,1.43,0,0,1-.32.63,1.86,1.86,0,0,1-.69.44,5.08,5.08,0,0,1-1.23.28,15.93,15.93,0,0,1-1.88.09,15.22,15.22,0,0,1-1.88-.09,3.9,3.9,0,0,1-1.11-.28,1,1,0,0,1-.51-.44.94.94,0,0,1,0-.63l8.3-41.79a1.19,1.19,0,0,1,.28-.6,1.71,1.71,0,0,1,.7-.46,4.31,4.31,0,0,1,1.14-.26,16,16,0,0,1,1.6-.07,15.13,15.13,0,0,1,1.6.07,2.8,2.8,0,0,1,1,.26.85.85,0,0,1,.44.46,1.3,1.3,0,0,1,0,.6l-1.53,7.61a24.64,24.64,0,0,1,2.53-3.67,19.86,19.86,0,0,1,3.18-3.08,16.09,16.09,0,0,1,3.59-2.11,9.5,9.5,0,0,1,3.69-.79,11.36,11.36,0,0,1,1.6.12q.81.12,1.51.28a8.91,8.91,0,0,1,1.23.37,2.36,2.36,0,0,1,.81.49A1.21,1.21,0,0,1,1582.78,330.14Z" transform="translate(-7.93 -9.28)"/><path class="cls-2" d="M1666.88,319.52a5.82,5.82,0,0,1-.07.81c0,.32-.11.67-.19,1s-.18.73-.3,1.11a6.38,6.38,0,0,1-.42,1,2.51,2.51,0,0,1-.51.69.88.88,0,0,1-.6.26,3.68,3.68,0,0,1-1.88-.83,29.52,29.52,0,0,0-3.15-1.88,27.19,27.19,0,0,0-4.8-1.9,25.89,25.89,0,0,0-14.5.37,25.42,25.42,0,0,0-6.61,3.39,27.13,27.13,0,0,0-5.38,5.1,32.62,32.62,0,0,0-4,6.4,34.36,34.36,0,0,0-2.51,7.26,34.83,34.83,0,0,0-.86,7.7,20.35,20.35,0,0,0,1.18,7.21,14,14,0,0,0,3.41,5.27,14.48,14.48,0,0,0,5.38,3.22,21.49,21.49,0,0,0,7.05,1.09,28.64,28.64,0,0,0,6-.67,23.24,23.24,0,0,0,5.82-2.06l3.48-17.4h-13.87a1,1,0,0,1-.86-.39,1.84,1.84,0,0,1-.3-1.14,6.83,6.83,0,0,1,.07-.86q.07-.53.19-1.09a7.8,7.8,0,0,1,.32-1.11,5.53,5.53,0,0,1,.49-1,2.51,2.51,0,0,1,.63-.7,1.27,1.27,0,0,1,.77-.26h19.06a2.08,2.08,0,0,1,1.88.88,3,3,0,0,1,.26,2.37l-4.64,23.1a5,5,0,0,1-.49,1.42,5.57,5.57,0,0,1-.67,1,9.23,9.23,0,0,1-2.11,1.23,35.11,35.11,0,0,1-4.27,1.65,49.5,49.5,0,0,1-5.8,1.46,35.37,35.37,0,0,1-6.75.63,33.11,33.11,0,0,1-10.62-1.55,20.43,20.43,0,0,1-7.7-4.52,19.43,19.43,0,0,1-4.73-7.19,26.42,26.42,0,0,1-1.62-9.56,42.77,42.77,0,0,1,4.41-18.88,38.52,38.52,0,0,1,5.27-8,33.37,33.37,0,0,1,7.19-6.31,36.1,36.1,0,0,1,8.93-4.18,34.93,34.93,0,0,1,10.53-1.53,30.23,30.23,0,0,1,6.08.58,35.93,35.93,0,0,1,5.06,1.39,19.35,19.35,0,0,1,3.76,1.79,17,17,0,0,1,2.09,1.48,2.82,2.82,0,0,1,.74,1A3.19,3.19,0,0,1,1666.88,319.52Z" transform="translate(-7.93 -9.28)"/><path class="cls-2" d="M1705.31,330.14a6.71,6.71,0,0,1-.07.72l-.16,1.23a13.46,13.46,0,0,1-.28,1.44,8.36,8.36,0,0,1-.46,1.37,5.88,5.88,0,0,1-.58,1,.84.84,0,0,1-.67.42,2.37,2.37,0,0,1-.81-.16q-.44-.16-1-.4a6.92,6.92,0,0,0-2.85-.56,6.87,6.87,0,0,0-3.64,1.37,19.05,19.05,0,0,0-4.06,3.78,29.88,29.88,0,0,0-3.64,5.71,28.84,28.84,0,0,0-2.44,7.14l-3.66,18.6a1.44,1.44,0,0,1-.32.63,1.86,1.86,0,0,1-.7.44,5.05,5.05,0,0,1-1.23.28,16,16,0,0,1-1.88.09,15.25,15.25,0,0,1-1.88-.09,3.92,3.92,0,0,1-1.11-.28,1,1,0,0,1-.51-.44.93.93,0,0,1,0-.63l8.3-41.79a1.19,1.19,0,0,1,.28-.6,1.71,1.71,0,0,1,.69-.46,4.31,4.31,0,0,1,1.14-.26,15.91,15.91,0,0,1,1.6-.07,15.15,15.15,0,0,1,1.6.07,2.78,2.78,0,0,1,1,.26.85.85,0,0,1,.44.46,1.33,1.33,0,0,1,0,.6l-1.53,7.61a24.79,24.79,0,0,1,2.53-3.67,19.86,19.86,0,0,1,3.18-3.08,16.15,16.15,0,0,1,3.6-2.11,9.49,9.49,0,0,1,3.69-.79,11.35,11.35,0,0,1,1.6.12c.54.08,1,.17,1.51.28a8.84,8.84,0,0,1,1.23.37,2.36,2.36,0,0,1,.81.49A1.21,1.21,0,0,1,1705.31,330.14Z" transform="translate(-7.93 -9.28)"/><path class="cls-2" d="M1751.06,343.92a39.09,39.09,0,0,1-.65,7,36,36,0,0,1-2,6.89,30.79,30.79,0,0,1-3.36,6.24,23.93,23.93,0,0,1-4.8,5.1,22.38,22.38,0,0,1-6.26,3.46,22.69,22.69,0,0,1-7.81,1.28,24.1,24.1,0,0,1-7.63-1.07,13.15,13.15,0,0,1-5.22-3.11,12.45,12.45,0,0,1-3-5,21.57,21.57,0,0,1-1-6.73,40.56,40.56,0,0,1,.63-7,33.21,33.21,0,0,1,5.34-13.1,23.21,23.21,0,0,1,4.78-5.13,22.39,22.39,0,0,1,6.26-3.46,22.71,22.71,0,0,1,7.82-1.28,23.64,23.64,0,0,1,7.63,1.09,13.6,13.6,0,0,1,5.24,3.13,12.32,12.32,0,0,1,3,5A21.3,21.3,0,0,1,1751.06,343.92Zm-8.07.46a16.5,16.5,0,0,0-.49-4.18,7.08,7.08,0,0,0-4.59-5.1,13.82,13.82,0,0,0-9.49.3,14.11,14.11,0,0,0-4.06,2.69,17.66,17.66,0,0,0-3.11,4,26,26,0,0,0-2.18,4.85,32.15,32.15,0,0,0-1.28,5.29,35,35,0,0,0-.42,5.31,15.72,15.72,0,0,0,.51,4.18,7.88,7.88,0,0,0,1.65,3.15,7.32,7.32,0,0,0,2.95,2,13.82,13.82,0,0,0,9.48-.3,13.92,13.92,0,0,0,4-2.71,18.15,18.15,0,0,0,3.11-4,25.71,25.71,0,0,0,2.18-4.87,33,33,0,0,0,1.28-5.29A34.08,34.08,0,0,0,1743,344.38Z" transform="translate(-7.93 -9.28)"/><path class="cls-2" d="M1825.26,329.72a5,5,0,0,1-.11,1,6.52,6.52,0,0,1-.26.91q-1.76,5.06-3.87,10.23t-4.64,10.3q-2.53,5.13-5.45,10.07t-6.26,9.53a2.32,2.32,0,0,1-.81.79,4.54,4.54,0,0,1-1.11.44,7.44,7.44,0,0,1-1.42.21q-.79,0-1.76,0a18.17,18.17,0,0,1-2-.09,5.58,5.58,0,0,1-1.3-.28,1.37,1.37,0,0,1-.7-.51,1.43,1.43,0,0,1-.21-.79L1792.23,341l-14.06,30.48a2.65,2.65,0,0,1-.6.86,2.69,2.69,0,0,1-1,.56,6.83,6.83,0,0,1-1.51.3q-.91.09-2.2.09t-2.23-.09a7.66,7.66,0,0,1-1.51-.28,1.82,1.82,0,0,1-.86-.51,1.17,1.17,0,0,1-.28-.79l-4.41-39.66q0-.42-.07-.81c0-.26,0-.49,0-.67a1.92,1.92,0,0,1,.19-.91,1.32,1.32,0,0,1,.63-.56,3.66,3.66,0,0,1,1.2-.28q.77-.07,2-.07t1.93.07a4.09,4.09,0,0,1,1.11.23.94.94,0,0,1,.53.46,2.32,2.32,0,0,1,.19.72l3.25,34.51v.42l.19-.42,15.82-34.51a4.18,4.18,0,0,1,.42-.67,1.63,1.63,0,0,1,.65-.49,3.72,3.72,0,0,1,1.11-.26q.69-.07,1.76-.07t1.79.07a4.46,4.46,0,0,1,1.14.23,1.23,1.23,0,0,1,.6.44,1.49,1.49,0,0,1,.23.65l3.43,34.37v.37l.23-.37q2.13-3.34,4.27-7.4t4.13-8.54q2-4.48,3.78-9.16t3.27-9.19a1.55,1.55,0,0,1,.37-.72,1.79,1.79,0,0,1,.77-.46,5.68,5.68,0,0,1,1.28-.23q.79-.07,2-.07c.74,0,1.35,0,1.83.07a5.84,5.84,0,0,1,1.09.19.8.8,0,0,1,.49.32A1,1,0,0,1,1825.26,329.72Z" transform="translate(-7.93 -9.28)"/><path class="cls-2" d="M1860.62,330.56c0,.28,0,.58,0,.91a5.92,5.92,0,0,1-.19,1,6.84,6.84,0,0,1-.37,1,6.94,6.94,0,0,1-.49.9,2.27,2.27,0,0,1-.58.63,1.25,1.25,0,0,1-.74.23h-10.67l-4.69,23.29q-.19,1-.32,2.18a18.21,18.21,0,0,0-.14,2,5,5,0,0,0,1,3.46,4.18,4.18,0,0,0,3.22,1.09,10,10,0,0,0,2.18-.21,15.29,15.29,0,0,0,1.6-.44c.45-.15.84-.3,1.18-.44a2.38,2.38,0,0,1,.88-.21.71.71,0,0,1,.58.26,1.56,1.56,0,0,1,.21,1,8.38,8.38,0,0,1-.12,1.32q-.12.72-.3,1.42a6.58,6.58,0,0,1-.46,1.25,3.36,3.36,0,0,1-.6.88,4.36,4.36,0,0,1-1.11.65,11.63,11.63,0,0,1-1.72.58,16.41,16.41,0,0,1-2.06.4,17,17,0,0,1-2.16.14,16.12,16.12,0,0,1-4.5-.56,8,8,0,0,1-3.2-1.74,7.11,7.11,0,0,1-1.93-3,13,13,0,0,1-.63-4.29q0-.56,0-1.23c0-.45.08-.92.16-1.42l.23-1.48c.08-.49.16-1,.26-1.39l4.69-23.47H1834a1,1,0,0,1-.79-.3,1.8,1.8,0,0,1-.28-1.18,9.55,9.55,0,0,1,.14-1.51,8.35,8.35,0,0,1,.42-1.6,4.08,4.08,0,0,1,.72-1.25,1.34,1.34,0,0,1,1-.51h5.85l2-9.93a1.11,1.11,0,0,1,.3-.6,2.14,2.14,0,0,1,.72-.49,4.33,4.33,0,0,1,1.23-.3,16,16,0,0,1,1.88-.09,14.76,14.76,0,0,1,1.83.09,3.41,3.41,0,0,1,1.11.3,1.05,1.05,0,0,1,.51.49,1.13,1.13,0,0,1,.07.6l-2,9.93h10.67a.92.92,0,0,1,.93.51A2.83,2.83,0,0,1,1860.62,330.56Z" transform="translate(-7.93 -9.28)"/><path class="cls-2" d="M1900.31,371.84a1.44,1.44,0,0,1-.32.63,1.85,1.85,0,0,1-.72.44,5.44,5.44,0,0,1-1.23.28,15.83,15.83,0,0,1-1.9.09,14.75,14.75,0,0,1-1.83-.09,3.92,3.92,0,0,1-1.11-.28,1,1,0,0,1-.51-.44,1.15,1.15,0,0,1-.07-.63l5.15-25.79q.23-1.21.4-2.71a25.23,25.23,0,0,0,.16-2.62,10.17,10.17,0,0,0-.28-2.46,5.15,5.15,0,0,0-.9-1.93,4.3,4.3,0,0,0-1.62-1.28,5.76,5.76,0,0,0-2.44-.46,10.29,10.29,0,0,0-5,1.44,18,18,0,0,0-4.78,4,29.48,29.48,0,0,0-6.47,13.33l-3.71,18.51a1.43,1.43,0,0,1-.32.63,1.85,1.85,0,0,1-.69.44,5.07,5.07,0,0,1-1.23.28,15.93,15.93,0,0,1-1.88.09,15.24,15.24,0,0,1-1.88-.09,3.9,3.9,0,0,1-1.11-.28,1,1,0,0,1-.51-.44.94.94,0,0,1,0-.63l12.34-62a1.81,1.81,0,0,1,.3-.65,1.52,1.52,0,0,1,.7-.46,5.45,5.45,0,0,1,1.25-.28,16.45,16.45,0,0,1,1.93-.09,14.76,14.76,0,0,1,1.83.09,3.93,3.93,0,0,1,1.11.28.84.84,0,0,1,.49.46,1.47,1.47,0,0,1,0,.65l-3.71,18.88q-.23,1.21-.56,2.46t-.67,2.48q-.35,1.23-.69,2.34t-.63,1.95a13.44,13.44,0,0,1,2.32-3.36,21,21,0,0,1,3.71-3.2,22.18,22.18,0,0,1,4.71-2.44,14.89,14.89,0,0,1,5.31-1,13.3,13.3,0,0,1,5.06.86,9,9,0,0,1,3.41,2.36,9.27,9.27,0,0,1,1.93,3.59,16.16,16.16,0,0,1,.6,4.5,27.91,27.91,0,0,1-.19,3.25q-.19,1.58-.51,3.2Z" transform="translate(-7.93 -9.28)"/><path class="cls-2" d="M1987.78,327.08a24.41,24.41,0,0,1-.58,5.15,23.18,23.18,0,0,1-1.83,5.27,23.73,23.73,0,0,1-3.18,4.87,20.5,20.5,0,0,1-4.66,4.06,23,23,0,0,1-6.29,2.76,31.14,31.14,0,0,1-8.37,1h-8.26l-4.31,21.66a1.67,1.67,0,0,1-.32.6,1.56,1.56,0,0,1-.77.44,9.19,9.19,0,0,1-1.3.28,13.27,13.27,0,0,1-1.93.12,14.87,14.87,0,0,1-1.81-.09,5.58,5.58,0,0,1-1.18-.26,1.1,1.1,0,0,1-.6-.44.83.83,0,0,1-.07-.65l11-55.43a4,4,0,0,1,1.53-2.64,4.68,4.68,0,0,1,2.69-.79h11.83q2.32,0,4.1.16a27.54,27.54,0,0,1,3.45.53,16,16,0,0,1,4.52,1.72,11.93,11.93,0,0,1,5.54,6.77A15.44,15.44,0,0,1,1987.78,327.08Zm-8.44.83a8.53,8.53,0,0,0-1.42-4.94,7.55,7.55,0,0,0-4.38-2.9,11.7,11.7,0,0,0-2.46-.42q-1.35-.09-2.88-.09h-7.52L1956,343.64h7.56a18.1,18.1,0,0,0,5.57-.74,14.93,14.93,0,0,0,4-1.95,12.27,12.27,0,0,0,2.9-2.83,17,17,0,0,0,1.93-3.36,18,18,0,0,0,1.44-6.84Z" transform="translate(-7.93 -9.28)"/><path class="cls-2" d="M2026.31,371.84a1.54,1.54,0,0,1-1,1.11,8.45,8.45,0,0,1-2.78.32,10.33,10.33,0,0,1-1.53-.09,4.06,4.06,0,0,1-1-.26,1,1,0,0,1-.51-.42.83.83,0,0,1,0-.67L2021,364a11.66,11.66,0,0,1-2.18,3.25,20.74,20.74,0,0,1-3.73,3.25,21.54,21.54,0,0,1-4.8,2.46,15.46,15.46,0,0,1-5.38,1,13,13,0,0,1-6.15-1.3,10.56,10.56,0,0,1-3.87-3.43,13.08,13.08,0,0,1-2-4.82,28.28,28.28,0,0,1-.53-5.52,40.81,40.81,0,0,1,.49-5.89,43.16,43.16,0,0,1,1.58-6.73,39.37,39.37,0,0,1,2.83-6.68,26.48,26.48,0,0,1,4.2-5.82,19.4,19.4,0,0,1,5.7-4.13,16.87,16.87,0,0,1,7.37-1.55,14.13,14.13,0,0,1,7.07,1.67,18.18,18.18,0,0,1,5.27,4.59l.88-4.22a1.54,1.54,0,0,1,1.07-1.07,8.51,8.51,0,0,1,2.74-.32,14.57,14.57,0,0,1,1.55.07,3,3,0,0,1,1,.26.84.84,0,0,1,.46.46,1.3,1.3,0,0,1,0,.6ZM2024.87,341a16.61,16.61,0,0,0-4.71-4.8,10.4,10.4,0,0,0-5.68-1.6,8.78,8.78,0,0,0-4.52,1.18,12.91,12.91,0,0,0-3.57,3.13,21.16,21.16,0,0,0-2.69,4.43,33,33,0,0,0-1.85,5.13,40.76,40.76,0,0,0-1.07,5.19,34.49,34.49,0,0,0-.35,4.59,20.45,20.45,0,0,0,.26,3.22,9,9,0,0,0,1,2.92,5.82,5.82,0,0,0,2,2.13,5.88,5.88,0,0,0,3.25.81,10.56,10.56,0,0,0,5.13-1.42,18.17,18.17,0,0,0,4.8-3.92,27.5,27.5,0,0,0,3.94-5.89,29.54,29.54,0,0,0,2.55-7.47Z" transform="translate(-7.93 -9.28)"/><path class="cls-2" d="M2075.31,330.14a6.87,6.87,0,0,1-.07.72l-.16,1.23a13.2,13.2,0,0,1-.28,1.44,8.29,8.29,0,0,1-.46,1.37,5.92,5.92,0,0,1-.58,1,.84.84,0,0,1-.67.42,2.36,2.36,0,0,1-.81-.16c-.29-.11-.62-.24-1-.4a7.31,7.31,0,0,0-1.23-.4,7.23,7.23,0,0,0-1.62-.16,6.87,6.87,0,0,0-3.64,1.37,19,19,0,0,0-4.06,3.78,29.89,29.89,0,0,0-3.64,5.71,28.85,28.85,0,0,0-2.44,7.14l-3.67,18.6a1.42,1.42,0,0,1-.32.63,1.85,1.85,0,0,1-.7.44,5.07,5.07,0,0,1-1.23.28,15.93,15.93,0,0,1-1.88.09,15.23,15.23,0,0,1-1.88-.09,3.9,3.9,0,0,1-1.11-.28,1,1,0,0,1-.51-.44.94.94,0,0,1,0-.63l8.3-41.79a1.19,1.19,0,0,1,.28-.6,1.71,1.71,0,0,1,.7-.46,4.31,4.31,0,0,1,1.14-.26,15.94,15.94,0,0,1,1.6-.07,15.14,15.14,0,0,1,1.6.07,2.79,2.79,0,0,1,1,.26.85.85,0,0,1,.44.46,1.31,1.31,0,0,1,0,.6l-1.53,7.61a24.69,24.69,0,0,1,2.53-3.67,19.86,19.86,0,0,1,3.18-3.08,16.12,16.12,0,0,1,3.59-2.11,9.5,9.5,0,0,1,3.69-.79,11.35,11.35,0,0,1,1.6.12q.81.12,1.51.28a8.85,8.85,0,0,1,1.23.37,2.36,2.36,0,0,1,.81.49A1.21,1.21,0,0,1,2075.31,330.14Z" transform="translate(-7.93 -9.28)"/><path class="cls-2" d="M2108.64,330.56c0,.28,0,.58,0,.91a5.92,5.92,0,0,1-.19,1,6.83,6.83,0,0,1-.37,1,6.92,6.92,0,0,1-.49.9,2.26,2.26,0,0,1-.58.63,1.25,1.25,0,0,1-.74.23h-10.67l-4.69,23.29q-.19,1-.32,2.18a18.21,18.21,0,0,0-.14,2,5,5,0,0,0,1,3.46,4.18,4.18,0,0,0,3.22,1.09,10,10,0,0,0,2.18-.21,15.32,15.32,0,0,0,1.6-.44c.45-.15.84-.3,1.18-.44a2.38,2.38,0,0,1,.88-.21.71.71,0,0,1,.58.26,1.56,1.56,0,0,1,.21,1,8.4,8.4,0,0,1-.12,1.32,14.47,14.47,0,0,1-.3,1.42,6.58,6.58,0,0,1-.47,1.25,3.37,3.37,0,0,1-.6.88,4.36,4.36,0,0,1-1.11.65,11.62,11.62,0,0,1-1.72.58,16.41,16.41,0,0,1-2.06.4,17,17,0,0,1-2.16.14,16.12,16.12,0,0,1-4.5-.56,8,8,0,0,1-3.2-1.74,7.11,7.11,0,0,1-1.93-3,13,13,0,0,1-.63-4.29q0-.56,0-1.23c0-.45.08-.92.16-1.42l.23-1.48c.08-.49.16-1,.25-1.39l4.69-23.47h-5.8a1,1,0,0,1-.79-.3,1.8,1.8,0,0,1-.28-1.18,9.55,9.55,0,0,1,.14-1.51,8.34,8.34,0,0,1,.42-1.6,4.08,4.08,0,0,1,.72-1.25,1.34,1.34,0,0,1,1-.51h5.85l2-9.93a1.11,1.11,0,0,1,.3-.6,2.14,2.14,0,0,1,.72-.49,4.33,4.33,0,0,1,1.23-.3,16,16,0,0,1,1.88-.09,14.76,14.76,0,0,1,1.83.09,3.41,3.41,0,0,1,1.11.3,1.05,1.05,0,0,1,.51.49,1.13,1.13,0,0,1,.07.6l-2,9.93h10.67a.92.92,0,0,1,.93.51A2.81,2.81,0,0,1,2108.64,330.56Z" transform="translate(-7.93 -9.28)"/><path class="cls-2" d="M2154.21,339.32a27.51,27.51,0,0,1-.19,3.2q-.19,1.58-.51,3.25l-5.24,26.07a1.57,1.57,0,0,1-.3.63,1.63,1.63,0,0,1-.7.44,5.44,5.44,0,0,1-1.23.28,15.83,15.83,0,0,1-1.9.09,14.75,14.75,0,0,1-1.83-.09,3.92,3.92,0,0,1-1.11-.28,1,1,0,0,1-.51-.44,1.15,1.15,0,0,1-.07-.63l5.15-25.79a20.7,20.7,0,0,0,.44-2.78q.12-1.34.12-2.37a7.87,7.87,0,0,0-1.21-4.57,4.56,4.56,0,0,0-4-1.74,10.41,10.41,0,0,0-5,1.42,18,18,0,0,0-4.78,3.9,28.7,28.7,0,0,0-6.47,13.29l-3.71,18.65a1.42,1.42,0,0,1-.32.63,1.85,1.85,0,0,1-.7.44,5.07,5.07,0,0,1-1.23.28,15.93,15.93,0,0,1-1.88.09,15.23,15.23,0,0,1-1.88-.09,3.9,3.9,0,0,1-1.11-.28,1,1,0,0,1-.51-.44.94.94,0,0,1,0-.63l8.4-41.79a1.3,1.3,0,0,1,.25-.6,1.53,1.53,0,0,1,.65-.46,4,4,0,0,1,1.11-.26,15.94,15.94,0,0,1,1.6-.07,15.14,15.14,0,0,1,1.6.07,2.79,2.79,0,0,1,1,.26.85.85,0,0,1,.44.46,1.31,1.31,0,0,1,0,.6l-1.58,8a13.11,13.11,0,0,1,2.27-3.34,20.43,20.43,0,0,1,3.76-3.25,22.28,22.28,0,0,1,4.8-2.46,15.53,15.53,0,0,1,5.45-1,12.52,12.52,0,0,1,5.2,1,9.1,9.1,0,0,1,5.24,6.1A16.25,16.25,0,0,1,2154.21,339.32Z" transform="translate(-7.93 -9.28)"/><path class="cls-2" d="M2205,338.63a11.23,11.23,0,0,1-1.48,5.75,12.2,12.2,0,0,1-4.64,4.36,26.72,26.72,0,0,1-8.07,2.78,61.55,61.55,0,0,1-11.78,1h-4.92a23.4,23.4,0,0,0-.44,3q-.12,1.44-.12,2.69,0,4.64,2.3,7.1t7.45,2.46a29.27,29.27,0,0,0,5.33-.44,42.09,42.09,0,0,0,4.1-1q1.74-.51,2.85-1a5.21,5.21,0,0,1,1.53-.44.71.71,0,0,1,.63.3,1.5,1.5,0,0,1,.21.86,7.87,7.87,0,0,1-.09,1.11,10.7,10.7,0,0,1-.28,1.32,7.08,7.08,0,0,1-.49,1.28,4.74,4.74,0,0,1-.67,1,5.71,5.71,0,0,1-2,1.09,25.84,25.84,0,0,1-3.36,1,42,42,0,0,1-4.27.72,38.82,38.82,0,0,1-4.64.28A25.39,25.39,0,0,1,2175,373a12.81,12.81,0,0,1-5.17-2.85,11.87,11.87,0,0,1-3.08-4.8,20.28,20.28,0,0,1-1-6.77,39.15,39.15,0,0,1,.58-6.47,37.64,37.64,0,0,1,1.83-6.84,33.53,33.53,0,0,1,3.25-6.49,24.88,24.88,0,0,1,4.75-5.47,22.44,22.44,0,0,1,6.38-3.8,22,22,0,0,1,8.16-1.44,19.68,19.68,0,0,1,6.61,1,13.6,13.6,0,0,1,4.45,2.51,9.39,9.39,0,0,1,2.53,3.41A9.58,9.58,0,0,1,2205,338.63Zm-7.84.7a4.64,4.64,0,0,0-1.85-3.83A8.38,8.38,0,0,0,2190,334a12.88,12.88,0,0,0-5.33,1,13.89,13.89,0,0,0-4.1,2.81,17.46,17.46,0,0,0-3.06,4.1,26.1,26.1,0,0,0-2.06,4.94h4.73a46,46,0,0,0,8.14-.6,18.52,18.52,0,0,0,5.24-1.65,6.75,6.75,0,0,0,2.78-2.44A5.73,5.73,0,0,0,2197.18,339.32Z" transform="translate(-7.93 -9.28)"/><path class="cls-2" d="M2245.31,330.14a6.87,6.87,0,0,1-.07.72l-.16,1.23a13.2,13.2,0,0,1-.28,1.44,8.29,8.29,0,0,1-.46,1.37,5.92,5.92,0,0,1-.58,1,.84.84,0,0,1-.67.42,2.36,2.36,0,0,1-.81-.16c-.29-.11-.62-.24-1-.4a7.31,7.31,0,0,0-1.23-.4,7.23,7.23,0,0,0-1.62-.16,6.87,6.87,0,0,0-3.64,1.37,19,19,0,0,0-4.06,3.78,29.89,29.89,0,0,0-3.64,5.71,28.85,28.85,0,0,0-2.44,7.14l-3.67,18.6a1.42,1.42,0,0,1-.32.63,1.85,1.85,0,0,1-.7.44,5.07,5.07,0,0,1-1.23.28,15.93,15.93,0,0,1-1.88.09,15.23,15.23,0,0,1-1.88-.09,3.9,3.9,0,0,1-1.11-.28,1,1,0,0,1-.51-.44.94.94,0,0,1,0-.63l8.3-41.79a1.19,1.19,0,0,1,.28-.6,1.71,1.71,0,0,1,.7-.46,4.31,4.31,0,0,1,1.14-.26,15.94,15.94,0,0,1,1.6-.07,15.14,15.14,0,0,1,1.6.07,2.79,2.79,0,0,1,1,.26.85.85,0,0,1,.44.46,1.31,1.31,0,0,1,0,.6l-1.53,7.61a24.69,24.69,0,0,1,2.53-3.67,19.86,19.86,0,0,1,3.18-3.08,16.12,16.12,0,0,1,3.59-2.11,9.5,9.5,0,0,1,3.69-.79,11.35,11.35,0,0,1,1.6.12q.81.12,1.51.28a8.85,8.85,0,0,1,1.23.37,2.36,2.36,0,0,1,.81.49A1.21,1.21,0,0,1,2245.31,330.14Z" transform="translate(-7.93 -9.28)"/><path class="cls-2" d="M2251.77,365.9a12,12,0,0,1-.12,1.53,16,16,0,0,1-.35,1.81,10.61,10.61,0,0,1-.58,1.72,4.35,4.35,0,0,1-.9,1.34,3.48,3.48,0,0,1-1.58.83,12.3,12.3,0,0,1-4.73.09,2.69,2.69,0,0,1-1.3-.63,2.36,2.36,0,0,1-.65-1.07,5,5,0,0,1-.19-1.42,12.93,12.93,0,0,1,.12-1.65,11.51,11.51,0,0,1,.37-1.79,11.92,11.92,0,0,1,.6-1.65,4.34,4.34,0,0,1,.88-1.3,3.59,3.59,0,0,1,1.48-.83,9.42,9.42,0,0,1,2.71-.3,8.13,8.13,0,0,1,2.16.23,3,3,0,0,1,1.28.67,2.22,2.22,0,0,1,.63,1A5.14,5.14,0,0,1,2251.77,365.9Z" transform="translate(-7.93 -9.28)"/><path class="cls-1" d="M157.26,405.21,305.62,75.65S334.9,9.28,372,9.28H493L318,404.89H157.26Z" transform="translate(-7.93 -9.28)"/><polygon class="cls-3" points="447.34 137.94 367.31 320.79 400.17 395.94 483.13 211.47 447.34 137.94"/><path class="cls-3" d="M430.88,405.21,579.23,76S608.51,9.6,645.6,9.6h121l-175,395.61Z" transform="translate(-7.93 -9.28)"/><path class="cls-1" d="M217.13,220.75l-83,184.47L7.93,115.66H137.74s44.25,6.18,79.38,105.08" transform="translate(-7.93 -9.28)"/></svg>