<?xml version="1.0" encoding="utf-8"?>
<!-- Generator: Adobe Illustrator 16.0.0, SVG Export Plug-In . SVG Version: 6.00 Build 0)  -->
<!DOCTYPE svg PUBLIC "-//W3C//DTD SVG 1.1//EN" "http://www.w3.org/Graphics/SVG/1.1/DTD/svg11.dtd">
<svg version="1.1" id="Layer_1" xmlns="http://www.w3.org/2000/svg" xmlns:xlink="http://www.w3.org/1999/xlink" x="0px" y="0px"
	 width="2252px" height="416.423px" viewBox="34.5 1034.5 2252 416.423" enable-background="new 34.5 1034.5 2252 416.423"
	 xml:space="preserve">
<g>
	<g>
		<path fill="#CE2029" d="M1039.334,1131.617c7.482,0,9.435,3.579,7.482,8.784c-16.267,43.921-44.572,104.109-75.153,153.236
			c-2.928,4.88-7.157,7.157-13.664,7.157h-33.185l-7.483-130.462c-12.689,36.438-35.137,84.914-58.236,123.955
			c-2.928,4.88-6.507,6.507-12.363,6.507h-32.859l-16.592-161.369c10.085-6.182,21.798-10.411,29.281-10.411
			c4.229,0,6.506,1.301,6.506,5.531l9.11,133.39c21.147-35.788,44.247-86.866,60.514-136.318h30.582
			c6.832,0,10.736,2.603,11.387,9.109l8.458,127.208c21.147-35.788,44.246-86.866,60.513-136.318H1039.334z"/>
		<path fill="#CE2029" d="M1187.039,1280.948c-1.952,10.085-25.052,23.75-56.935,23.75c-49.452,0-77.756-36.764-67.996-87.842
			c10.736-56.285,56.284-89.144,102.482-89.144c40.667,0,62.465,26.678,55.959,61.49c-1.953,10.411-6.507,20.171-10.737,27.003
			c-6.832,10.411-14.314,13.99-27.654,13.99h-87.191c-2.277,30.582,17.243,45.223,46.849,45.223c14.966,0,28.63-2.929,43.271-9.436
			C1187.039,1269.236,1188.015,1276.068,1187.039,1280.948 M1100.823,1201.565h81.661c2.277-3.253,3.904-6.833,4.555-10.411
			c4.229-20.821-6.181-34.161-29.606-34.161C1131.08,1156.993,1109.934,1173.586,1100.823,1201.565z"/>
		<path fill="#CE2029" d="M1254.06,1227.267l30.582-157.14c8.134-2.277,16.917-3.253,24.4-3.253c7.157,0,9.76,2.603,8.784,7.808
			l-15.616,79.058c16.592-15.616,38.391-26.353,61.814-26.353c40.017,0,65.719,31.558,55.959,82.312
			c-10.411,54.657-54.332,95-106.387,95C1267.398,1304.698,1244.624,1275.092,1254.06,1227.267 M1297.654,1179.768l-9.109,47.5
			c-6.506,32.859,9.761,48.151,31.559,48.151c28.305,0,57.911-25.377,65.068-64.093c7.482-39.366-10.411-54.982-35.788-54.982
			C1332.467,1156.668,1312.295,1166.429,1297.654,1179.768z"/>
		<path fill="#14232A" d="M1453.168,1251.993l35.462-181.866c8.134-2.277,16.918-3.253,24.401-3.253c7.157,0,9.76,2.603,8.783,7.808
			l-34.485,178.612c-3.254,15.942,1.952,22.124,13.664,22.124c6.507,0,13.664-1.302,19.195-3.579
			c1.626,3.579,2.603,9.109,1.626,13.339c-1.301,6.832-14.64,17.894-35.787,17.894
			C1457.072,1303.071,1446.986,1283.551,1453.168,1251.993"/>
		<path fill="#14232A" d="M1704.981,1275.742c0.651,3.904,0.325,7.483-0.325,12.038c-1.626,6.833-12.038,15.616-27.003,15.616
			c-12.363,0-24.075-7.808-24.401-27.329c-14.314,17.894-35.787,28.956-59.211,28.956c-33.511,0-53.03-21.473-46.523-53.031
			c6.506-34.811,37.413-55.633,79.057-55.633c14.315,0,31.233,3.579,39.366,8.459l2.278-10.736
			c4.879-24.075-7.809-37.089-40.343-37.089c-14.966,0-30.257,2.929-44.897,9.436c-1.951-3.254-2.928-9.761-1.951-14.966
			c1.951-10.085,28.629-23.75,61.489-23.75c45.222,0,68.321,22.449,59.212,67.671l-12.363,63.441
			c-2.603,13.014,1.302,16.917,8.785,16.917H1704.981z M1657.157,1249.39l3.903-19.521c-6.832-2.928-24.4-4.555-35.137-4.555
			c-25.051,0-40.992,8.785-44.246,25.377c-3.254,16.918,8.784,24.727,26.678,24.727
			C1625.272,1275.742,1645.77,1265.657,1657.157,1249.39z"/>
		<path fill="#14232A" d="M1747.275,1301.119c-7.157,0-9.759-2.603-8.783-7.808l31.558-160.718
			c8.134-2.277,16.918-3.253,24.401-3.253c7.156,0,9.76,2.603,8.783,7.808l-2.603,13.014c14.966-12.688,37.74-22.449,58.562-22.449
			c38.391,0,55.309,27.329,45.873,75.154l-11.061,55.958c-2.278,12.038,0,16.918,7.481,16.918h7.809
			c0.651,3.903,0.325,7.482-0.325,12.037c-1.627,6.833-12.038,15.616-27.004,15.616c-15.615,0-29.28-8.784-23.099-41.318
			l12.362-62.465c5.531-27.979-3.253-42.62-27.979-42.62c-15.616,0-34.486,6.507-47.826,17.243l-24.399,126.882H1747.275z"/>
		<path fill="#14232A" d="M2107.104,1170.333c-0.65,3.253-3.578,6.507-8.134,8.784c-6.507,3.904-15.616,6.506-24.075,7.158
			c-1.302-17.243-11.712-29.607-33.51-29.607c-25.702,0-49.452,20.172-55.959,53.356c-8.134,42.945,16.593,65.394,49.777,65.394
			c14.965,0,29.28-2.929,43.921-9.436c1.952,3.904,2.929,10.085,1.952,14.966c-1.952,10.085-25.377,23.75-56.609,23.75
			c-46.85,0-85.564-33.835-73.854-93.698c9.762-52.055,50.429-83.613,97.929-83.613c31.883,0,52.38,14.641,58.235,33.51
			C2107.429,1164.476,2107.429,1167.404,2107.104,1170.333"/>
		<path fill="#14232A" d="M2249.603,1280.948c-1.952,10.085-25.051,23.75-56.935,23.75c-49.451,0-77.757-36.764-67.996-87.842
			c10.736-56.285,56.283-89.144,102.482-89.144c40.668,0,62.466,26.678,55.958,61.49c-1.952,10.411-6.507,20.171-10.735,27.003
			c-6.832,10.411-14.315,13.99-27.654,13.99h-87.191c-2.277,30.582,17.242,45.223,46.85,45.223c14.966,0,28.629-2.929,43.27-9.436
			C2249.603,1269.236,2250.578,1276.068,2249.603,1280.948 M2163.388,1201.565h81.66c2.277-3.253,3.904-6.833,4.555-10.411
			c4.229-20.821-6.182-34.161-29.606-34.161C2193.645,1156.993,2172.497,1173.586,2163.388,1201.565z"/>
		<g>
			<path fill="#CE2029" d="M1463.961,1384.167l-4.406,22.173c-0.063,0.217-0.179,0.417-0.349,0.603s-0.425,0.333-0.765,0.44
				c-0.342,0.109-0.773,0.201-1.299,0.278c-0.527,0.077-1.16,0.116-1.902,0.116c-0.773,0-1.408-0.039-1.902-0.116
				s-0.881-0.169-1.159-0.278c-0.278-0.108-0.464-0.255-0.557-0.44s-0.124-0.386-0.093-0.603l4.453-22.173l-10.205-33.862
				c-0.186-0.68-0.302-1.221-0.348-1.624c-0.047-0.401,0.053-0.711,0.301-0.928c0.248-0.216,0.657-0.363,1.229-0.44
				s1.399-0.116,2.481-0.116c0.836,0,1.516,0.023,2.041,0.069c0.525,0.047,0.943,0.147,1.253,0.302
				c0.309,0.155,0.533,0.348,0.673,0.58c0.139,0.231,0.27,0.549,0.395,0.951l4.777,16.467c0.557,1.918,1.051,3.765,1.484,5.543
				c0.433,1.779,0.85,3.626,1.252,5.543h0.094c1.113-1.855,2.241-3.695,3.386-5.52c1.144-1.824,2.35-3.665,3.618-5.52l11.365-16.746
				c0.186-0.309,0.394-0.572,0.626-0.789c0.231-0.216,0.533-0.394,0.904-0.534c0.371-0.139,0.835-0.231,1.392-0.278
				c0.557-0.046,1.299-0.069,2.227-0.069c1.113,0,1.963,0.054,2.551,0.162c0.588,0.109,0.967,0.287,1.137,0.534
				c0.17,0.248,0.162,0.573-0.023,0.974c-0.186,0.402-0.479,0.881-0.881,1.438L1463.961,1384.167z"/>
			<path fill="#CE2029" d="M1524.33,1378.416c0,2.289-0.217,4.624-0.648,7.004c-0.434,2.382-1.091,4.678-1.972,6.889
				c-0.882,2.211-2.003,4.291-3.363,6.239c-1.361,1.948-2.962,3.649-4.801,5.103c-1.841,1.454-3.928,2.605-6.263,3.456
				c-2.335,0.851-4.939,1.276-7.816,1.276c-2.969,0-5.512-0.356-7.63-1.067s-3.858-1.747-5.219-3.108
				c-1.361-1.36-2.366-3.03-3.015-5.01c-0.65-1.979-0.975-4.221-0.975-6.726c0-2.288,0.209-4.623,0.626-7.004
				c0.418-2.381,1.074-4.669,1.972-6.865c0.896-2.195,2.018-4.275,3.363-6.239c1.345-1.964,2.938-3.672,4.777-5.126
				c1.84-1.453,3.928-2.605,6.263-3.456c2.335-0.85,4.94-1.275,7.815-1.275c2.969,0,5.513,0.364,7.631,1.09
				c2.118,0.727,3.865,1.771,5.242,3.131c1.375,1.361,2.389,3.031,3.038,5.01C1524.006,1373.715,1524.33,1375.942,1524.33,1378.416z
				 M1516.26,1378.879c0-1.546-0.163-2.938-0.487-4.175c-0.325-1.236-0.866-2.28-1.624-3.131c-0.758-0.85-1.747-1.507-2.969-1.971
				s-2.698-0.696-4.43-0.696c-1.855,0-3.541,0.333-5.057,0.997c-1.516,0.666-2.868,1.562-4.059,2.69
				c-1.19,1.129-2.227,2.452-3.107,3.966c-0.882,1.516-1.608,3.131-2.181,4.847c-0.572,1.717-0.997,3.479-1.275,5.288
				c-0.278,1.81-0.417,3.58-0.417,5.312c0,1.547,0.169,2.938,0.51,4.175c0.34,1.237,0.889,2.289,1.646,3.154
				c0.758,0.866,1.74,1.531,2.945,1.995c1.207,0.464,2.675,0.696,4.407,0.696c1.886,0,3.579-0.332,5.079-0.997
				s2.846-1.569,4.036-2.714c1.19-1.144,2.227-2.474,3.107-3.989c0.882-1.515,1.608-3.138,2.181-4.871
				c0.572-1.731,0.997-3.494,1.275-5.288C1516.12,1382.375,1516.26,1380.612,1516.26,1378.879z"/>
			<path fill="#CE2029" d="M1568.279,1406.34c-0.031,0.248-0.124,0.464-0.278,0.649c-0.155,0.186-0.371,0.333-0.649,0.441
				c-0.278,0.108-0.643,0.192-1.09,0.255c-0.449,0.062-0.998,0.093-1.646,0.093c-0.619,0-1.137-0.031-1.555-0.093
				c-0.417-0.063-0.742-0.147-0.974-0.255c-0.232-0.108-0.388-0.255-0.464-0.441c-0.078-0.186-0.086-0.401-0.023-0.649l1.531-7.839
				c-0.496,1.052-1.276,2.157-2.343,3.316c-1.067,1.16-2.319,2.235-3.758,3.224c-1.438,0.99-3.015,1.794-4.731,2.412
				c-1.716,0.618-3.455,0.928-5.219,0.928c-2.104,0-3.873-0.286-5.311-0.858c-1.438-0.572-2.598-1.361-3.479-2.366
				c-0.881-1.004-1.515-2.195-1.901-3.571s-0.58-2.883-0.58-4.523c0-1.021,0.069-2.064,0.209-3.131
				c0.139-1.066,0.316-2.141,0.533-3.224l5.148-26.162c0.063-0.216,0.17-0.417,0.325-0.603c0.154-0.186,0.395-0.34,0.719-0.464
				c0.325-0.123,0.742-0.208,1.253-0.255c0.51-0.046,1.137-0.069,1.879-0.069s1.352,0.023,1.832,0.069
				c0.479,0.047,0.85,0.132,1.113,0.255c0.262,0.124,0.433,0.278,0.51,0.464s0.1,0.387,0.07,0.603l-5.104,25.884
				c-0.186,0.805-0.324,1.64-0.417,2.505c-0.093,0.866-0.14,1.748-0.14,2.644c0,0.928,0.086,1.771,0.256,2.528
				c0.17,0.758,0.464,1.415,0.881,1.972c0.418,0.557,0.959,0.99,1.624,1.299c0.665,0.31,1.476,0.464,2.435,0.464
				c1.639,0,3.317-0.471,5.033-1.415c1.717-0.943,3.316-2.25,4.801-3.919s2.807-3.657,3.967-5.96
				c1.159-2.304,2.018-4.816,2.574-7.538l3.664-18.462c0.031-0.216,0.132-0.417,0.302-0.603s0.418-0.34,0.742-0.464
				c0.325-0.123,0.742-0.208,1.253-0.255c0.51-0.046,1.137-0.069,1.879-0.069s1.352,0.023,1.832,0.069
				c0.479,0.047,0.85,0.132,1.113,0.255c0.262,0.124,0.433,0.278,0.51,0.464s0.1,0.387,0.07,0.603L1568.279,1406.34z"/>
			<path fill="#CE2029" d="M1617.283,1364.639c0,0.124-0.023,0.364-0.068,0.719c-0.047,0.356-0.102,0.766-0.163,1.229
				c-0.063,0.464-0.155,0.944-0.278,1.438c-0.124,0.495-0.278,0.951-0.464,1.369c-0.186,0.417-0.379,0.765-0.579,1.043
				c-0.202,0.278-0.426,0.417-0.674,0.417s-0.518-0.054-0.811-0.162c-0.295-0.108-0.619-0.239-0.975-0.395
				c-0.355-0.154-0.766-0.286-1.229-0.395c-0.464-0.108-1.005-0.162-1.624-0.162c-1.051,0-2.266,0.457-3.641,1.368
				c-1.377,0.913-2.73,2.173-4.059,3.781c-1.33,1.608-2.545,3.51-3.643,5.706c-1.098,2.196-1.909,4.577-2.435,7.144l-3.665,18.601
				c-0.063,0.248-0.17,0.457-0.324,0.626c-0.155,0.17-0.387,0.317-0.695,0.44c-0.311,0.123-0.719,0.216-1.23,0.278
				c-0.51,0.062-1.136,0.093-1.878,0.093c-0.773,0-1.399-0.031-1.878-0.093c-0.48-0.063-0.852-0.155-1.113-0.278
				c-0.264-0.123-0.434-0.271-0.512-0.44c-0.076-0.17-0.085-0.378-0.022-0.626l8.304-41.794c0.029-0.216,0.123-0.417,0.277-0.603
				s0.387-0.34,0.696-0.464c0.309-0.123,0.688-0.208,1.136-0.255c0.449-0.046,0.982-0.069,1.602-0.069
				c0.648,0,1.182,0.023,1.6,0.069c0.418,0.047,0.742,0.132,0.975,0.255c0.232,0.124,0.378,0.278,0.44,0.464
				c0.062,0.186,0.077,0.387,0.046,0.603l-1.53,7.607c0.711-1.268,1.554-2.489,2.528-3.665c0.975-1.175,2.033-2.204,3.178-3.084
				c1.143-0.882,2.342-1.584,3.594-2.111c1.254-0.525,2.482-0.789,3.688-0.789c0.525,0,1.06,0.039,1.601,0.116
				s1.043,0.17,1.508,0.278c0.463,0.108,0.873,0.231,1.229,0.371c0.355,0.139,0.627,0.301,0.813,0.487
				S1617.283,1364.237,1617.283,1364.639z"/>
			<path fill="#CE2029" d="M1701.377,1354.016c0,0.217-0.022,0.487-0.069,0.812c-0.046,0.324-0.108,0.665-0.186,1.021
				s-0.179,0.727-0.302,1.113s-0.263,0.727-0.417,1.021c-0.155,0.294-0.325,0.526-0.511,0.695c-0.186,0.17-0.387,0.255-0.603,0.255
				c-0.464,0-1.09-0.278-1.879-0.835c-0.788-0.557-1.84-1.183-3.154-1.878c-1.314-0.696-2.915-1.33-4.801-1.902
				c-1.887-0.572-4.145-0.858-6.772-0.858c-2.753,0-5.327,0.41-7.724,1.229c-2.396,0.82-4.601,1.948-6.61,3.387
				c-2.01,1.438-3.803,3.139-5.381,5.103c-1.576,1.964-2.914,4.098-4.012,6.401s-1.934,4.724-2.505,7.259
				c-0.573,2.536-0.858,5.103-0.858,7.7c0,2.722,0.395,5.125,1.183,7.213c0.789,2.087,1.925,3.843,3.409,5.265
				c1.484,1.423,3.277,2.498,5.381,3.224c2.104,0.727,4.453,1.09,7.051,1.09c1.918,0,3.92-0.224,6.008-0.672
				c2.087-0.448,4.027-1.137,5.821-2.064l3.479-17.395h-13.87c-0.371,0-0.657-0.131-0.858-0.394s-0.301-0.642-0.301-1.137
				c0-0.216,0.022-0.502,0.069-0.858c0.046-0.355,0.108-0.719,0.186-1.09s0.186-0.742,0.324-1.113
				c0.14-0.371,0.302-0.703,0.487-0.997s0.395-0.526,0.626-0.696c0.232-0.169,0.487-0.255,0.766-0.255h19.065
				c0.865,0,1.491,0.294,1.878,0.881c0.387,0.588,0.472,1.376,0.255,2.366l-4.639,23.101c-0.123,0.588-0.285,1.06-0.486,1.415
				s-0.426,0.672-0.673,0.951c-0.278,0.278-0.981,0.688-2.11,1.229c-1.129,0.542-2.552,1.09-4.268,1.647
				c-1.717,0.557-3.649,1.043-5.799,1.461c-2.149,0.417-4.399,0.626-6.749,0.626c-4.021,0-7.562-0.518-10.622-1.554
				c-3.063-1.036-5.629-2.543-7.701-4.523c-2.072-1.979-3.648-4.375-4.73-7.19c-1.084-2.813-1.624-5.999-1.624-9.556
				c0-3.309,0.378-6.563,1.137-9.765c0.757-3.2,1.847-6.239,3.271-9.115c1.422-2.876,3.177-5.535,5.265-7.979
				c2.087-2.442,4.483-4.546,7.189-6.309s5.683-3.154,8.93-4.175s6.757-1.531,10.53-1.531c2.164,0,4.189,0.193,6.076,0.58
				c1.886,0.387,3.572,0.851,5.057,1.392s2.736,1.136,3.757,1.786s1.716,1.145,2.087,1.484c0.371,0.341,0.619,0.666,0.742,0.974
				C1701.314,1353.166,1701.377,1353.552,1701.377,1354.016z"/>
			<path fill="#CE2029" d="M1739.807,1364.639c0,0.124-0.023,0.364-0.07,0.719c-0.047,0.356-0.101,0.766-0.162,1.229
				c-0.063,0.464-0.155,0.944-0.278,1.438c-0.124,0.495-0.278,0.951-0.464,1.369c-0.186,0.417-0.379,0.765-0.58,1.043
				s-0.426,0.417-0.672,0.417c-0.248,0-0.519-0.054-0.813-0.162s-0.619-0.239-0.975-0.395c-0.355-0.154-0.765-0.286-1.229-0.395
				c-0.464-0.108-1.006-0.162-1.623-0.162c-1.053,0-2.266,0.457-3.643,1.368c-1.375,0.913-2.729,2.173-4.059,3.781
				c-1.33,1.608-2.543,3.51-3.641,5.706c-1.098,2.196-1.91,4.577-2.436,7.144l-3.664,18.601c-0.063,0.248-0.171,0.457-0.325,0.626
				c-0.155,0.17-0.388,0.317-0.696,0.44s-0.719,0.216-1.229,0.278c-0.51,0.062-1.137,0.093-1.879,0.093
				c-0.773,0-1.399-0.031-1.879-0.093c-0.479-0.063-0.851-0.155-1.113-0.278s-0.434-0.271-0.51-0.44
				c-0.078-0.17-0.086-0.378-0.023-0.626l8.303-41.794c0.031-0.216,0.123-0.417,0.279-0.603c0.154-0.186,0.386-0.34,0.695-0.464
				c0.309-0.123,0.688-0.208,1.137-0.255c0.447-0.046,0.98-0.069,1.6-0.069c0.65,0,1.184,0.023,1.602,0.069
				c0.416,0.047,0.742,0.132,0.973,0.255c0.232,0.124,0.379,0.278,0.441,0.464c0.062,0.186,0.076,0.387,0.047,0.603l-1.531,7.607
				c0.711-1.268,1.555-2.489,2.527-3.665c0.975-1.175,2.033-2.204,3.178-3.084c1.145-0.882,2.344-1.584,3.596-2.111
				c1.252-0.525,2.481-0.789,3.688-0.789c0.525,0,1.059,0.039,1.6,0.116s1.045,0.17,1.508,0.278c0.465,0.108,0.874,0.231,1.23,0.371
				c0.354,0.139,0.625,0.301,0.811,0.487S1739.807,1364.237,1739.807,1364.639z"/>
			<path fill="#CE2029" d="M1785.564,1378.416c0,2.289-0.217,4.624-0.65,7.004c-0.434,2.382-1.09,4.678-1.971,6.889
				c-0.882,2.211-2.003,4.291-3.363,6.239c-1.361,1.948-2.961,3.649-4.801,5.103c-1.84,1.454-3.928,2.605-6.263,3.456
				c-2.335,0.851-4.94,1.276-7.815,1.276c-2.969,0-5.514-0.356-7.631-1.067c-2.119-0.711-3.858-1.747-5.219-3.108
				c-1.361-1.36-2.365-3.03-3.016-5.01c-0.648-1.979-0.974-4.221-0.974-6.726c0-2.288,0.209-4.623,0.626-7.004
				c0.418-2.381,1.074-4.669,1.972-6.865c0.896-2.195,2.018-4.275,3.363-6.239c1.345-1.964,2.938-3.672,4.777-5.126
				c1.84-1.453,3.927-2.605,6.263-3.456c2.334-0.85,4.939-1.275,7.816-1.275c2.969,0,5.512,0.364,7.63,1.09
				c2.118,0.727,3.866,1.771,5.242,3.131c1.376,1.361,2.389,3.031,3.038,5.01
				C1785.239,1373.715,1785.564,1375.942,1785.564,1378.416z M1777.492,1378.879c0-1.546-0.162-2.938-0.486-4.175
				c-0.325-1.236-0.866-2.28-1.624-3.131c-0.758-0.85-1.747-1.507-2.969-1.971s-2.698-0.696-4.43-0.696
				c-1.855,0-3.542,0.333-5.056,0.997c-1.516,0.666-2.869,1.562-4.06,2.69c-1.19,1.129-2.227,2.452-3.107,3.966
				c-0.882,1.516-1.608,3.131-2.181,4.847c-0.572,1.717-0.997,3.479-1.275,5.288c-0.278,1.81-0.418,3.58-0.418,5.312
				c0,1.547,0.17,2.938,0.511,4.175c0.34,1.237,0.889,2.289,1.646,3.154c0.758,0.866,1.739,1.531,2.946,1.995
				c1.205,0.464,2.674,0.696,4.406,0.696c1.886,0,3.579-0.332,5.079-0.997s2.845-1.569,4.036-2.714
				c1.189-1.144,2.227-2.474,3.107-3.989c0.882-1.515,1.607-3.138,2.181-4.871c0.571-1.731,0.997-3.494,1.275-5.288
				C1777.354,1382.375,1777.492,1380.612,1777.492,1378.879z"/>
			<path fill="#CE2029" d="M1859.756,1364.221c0,0.341-0.039,0.688-0.115,1.043c-0.078,0.356-0.162,0.658-0.256,0.905
				c-1.176,3.371-2.467,6.78-3.873,10.228c-1.408,3.449-2.953,6.881-4.639,10.298c-1.686,3.417-3.502,6.772-5.449,10.066
				c-1.949,3.293-4.037,6.471-6.264,9.532c-0.217,0.341-0.486,0.603-0.811,0.789c-0.326,0.186-0.697,0.333-1.113,0.441
				c-0.418,0.108-0.891,0.177-1.416,0.208c-0.525,0.03-1.113,0.046-1.762,0.046c-0.805,0-1.479-0.031-2.018-0.093
				c-0.543-0.063-0.975-0.155-1.299-0.278c-0.326-0.123-0.557-0.293-0.697-0.51c-0.139-0.216-0.207-0.479-0.207-0.789l-3.109-30.615
				l-14.055,30.476c-0.155,0.341-0.355,0.626-0.604,0.858c-0.248,0.232-0.572,0.418-0.974,0.557
				c-0.402,0.14-0.905,0.239-1.507,0.302c-0.604,0.062-1.339,0.093-2.204,0.093c-0.866,0-1.608-0.031-2.227-0.093
				c-0.619-0.063-1.121-0.155-1.507-0.278c-0.388-0.123-0.674-0.293-0.859-0.51c-0.186-0.216-0.277-0.479-0.277-0.789l-4.407-39.661
				c-0.031-0.278-0.054-0.549-0.069-0.812c-0.016-0.262-0.023-0.487-0.023-0.672c0-0.371,0.062-0.672,0.186-0.905
				c0.123-0.231,0.332-0.417,0.627-0.557c0.293-0.139,0.695-0.231,1.205-0.278c0.51-0.046,1.167-0.069,1.972-0.069
				c0.804,0,1.445,0.023,1.925,0.069c0.479,0.047,0.851,0.124,1.113,0.232s0.441,0.263,0.533,0.464
				c0.094,0.201,0.154,0.44,0.186,0.719l3.248,34.512v0.417l0.186-0.417l15.818-34.512c0.123-0.247,0.262-0.471,0.416-0.673
				c0.154-0.201,0.371-0.363,0.65-0.487c0.277-0.123,0.648-0.208,1.113-0.255c0.463-0.046,1.051-0.069,1.762-0.069
				s1.307,0.023,1.787,0.069c0.479,0.047,0.857,0.124,1.137,0.232c0.277,0.108,0.479,0.255,0.602,0.44s0.201,0.402,0.232,0.649
				l3.434,34.373v0.371l0.23-0.371c1.422-2.227,2.846-4.692,4.268-7.399c1.422-2.706,2.799-5.55,4.129-8.535
				c1.33-2.984,2.59-6.037,3.781-9.161c1.189-3.123,2.279-6.185,3.27-9.185c0.063-0.278,0.186-0.518,0.371-0.719
				s0.441-0.355,0.766-0.464s0.75-0.186,1.275-0.232c0.525-0.046,1.189-0.069,1.994-0.069c0.742,0,1.354,0.023,1.832,0.069
				c0.48,0.047,0.844,0.109,1.092,0.186c0.246,0.078,0.408,0.186,0.486,0.325
				C1859.717,1363.873,1859.756,1364.036,1859.756,1364.221z"/>
			<path fill="#CE2029" d="M1895.124,1365.056c0,0.278-0.017,0.58-0.047,0.905c-0.031,0.324-0.093,0.657-0.186,0.997
				c-0.093,0.341-0.217,0.681-0.371,1.021c-0.155,0.341-0.317,0.642-0.487,0.904c-0.17,0.263-0.363,0.472-0.579,0.626
				c-0.217,0.155-0.465,0.232-0.742,0.232h-10.67l-4.685,23.286c-0.124,0.649-0.231,1.376-0.325,2.18
				c-0.092,0.805-0.139,1.469-0.139,1.995c0,1.577,0.332,2.729,0.997,3.456s1.739,1.09,3.224,1.09c0.836,0,1.562-0.069,2.181-0.209
				c0.618-0.139,1.151-0.285,1.601-0.44c0.447-0.154,0.842-0.302,1.183-0.44c0.34-0.14,0.634-0.209,0.882-0.209
				c0.247,0,0.44,0.085,0.579,0.255c0.14,0.17,0.209,0.487,0.209,0.951c0,0.402-0.039,0.843-0.116,1.322s-0.178,0.951-0.301,1.415
				c-0.124,0.464-0.279,0.881-0.465,1.252s-0.387,0.666-0.603,0.881c-0.248,0.217-0.619,0.434-1.113,0.649
				c-0.495,0.217-1.067,0.41-1.716,0.58c-0.65,0.17-1.339,0.302-2.064,0.395c-0.728,0.093-1.446,0.139-2.157,0.139
				c-1.732,0-3.231-0.186-4.499-0.557c-1.269-0.371-2.336-0.951-3.201-1.74c-0.866-0.788-1.508-1.778-1.925-2.969
				c-0.418-1.19-0.626-2.621-0.626-4.291c0-0.371,0.015-0.781,0.046-1.229c0.03-0.448,0.085-0.92,0.162-1.415
				c0.077-0.494,0.154-0.989,0.232-1.484c0.076-0.494,0.162-0.958,0.255-1.392l4.686-23.472h-5.799c-0.341,0-0.604-0.1-0.789-0.302
				c-0.186-0.201-0.277-0.595-0.277-1.183c0-0.433,0.046-0.935,0.139-1.508c0.093-0.572,0.232-1.105,0.418-1.6
				c0.186-0.494,0.424-0.912,0.719-1.252c0.293-0.34,0.642-0.51,1.043-0.51h5.846l1.994-9.927c0.03-0.216,0.131-0.417,0.302-0.603
				c0.169-0.186,0.409-0.348,0.719-0.487c0.309-0.139,0.719-0.239,1.229-0.301c0.51-0.062,1.137-0.093,1.879-0.093
				s1.352,0.031,1.832,0.093c0.479,0.063,0.85,0.163,1.113,0.301c0.262,0.14,0.433,0.302,0.51,0.487s0.101,0.387,0.07,0.603
				l-1.995,9.927h10.669c0.464,0,0.772,0.17,0.928,0.51C1895.046,1364.237,1895.124,1364.624,1895.124,1365.056z"/>
			<path fill="#CE2029" d="M1934.805,1406.34c-0.063,0.248-0.171,0.457-0.325,0.626c-0.155,0.17-0.395,0.317-0.719,0.44
				c-0.325,0.123-0.735,0.216-1.229,0.278c-0.495,0.062-1.129,0.093-1.902,0.093c-0.742,0-1.353-0.031-1.832-0.093
				c-0.479-0.063-0.851-0.155-1.113-0.278s-0.434-0.271-0.51-0.44c-0.078-0.17-0.101-0.378-0.07-0.626l5.149-25.791
				c0.154-0.804,0.285-1.708,0.395-2.713c0.107-1.005,0.162-1.879,0.162-2.621c0-0.896-0.093-1.716-0.278-2.458
				s-0.487-1.384-0.904-1.925c-0.418-0.541-0.959-0.966-1.624-1.275c-0.665-0.309-1.477-0.464-2.435-0.464
				c-1.64,0-3.317,0.48-5.033,1.438c-1.717,0.959-3.31,2.281-4.778,3.966s-2.783,3.672-3.942,5.96
				c-1.16,2.289-2.003,4.748-2.528,7.375l-3.711,18.508c-0.063,0.248-0.17,0.457-0.325,0.626c-0.154,0.17-0.387,0.317-0.695,0.44
				c-0.31,0.123-0.719,0.216-1.229,0.278c-0.51,0.062-1.136,0.093-1.878,0.093c-0.773,0-1.4-0.031-1.879-0.093
				c-0.48-0.063-0.852-0.155-1.113-0.278c-0.264-0.123-0.434-0.271-0.511-0.44s-0.085-0.378-0.022-0.626l12.338-61.973
				c0.063-0.247,0.163-0.464,0.302-0.649c0.14-0.186,0.371-0.34,0.696-0.464c0.324-0.123,0.742-0.216,1.252-0.278
				c0.511-0.062,1.152-0.093,1.926-0.093c0.742,0,1.352,0.031,1.832,0.093c0.479,0.063,0.85,0.155,1.113,0.278
				c0.262,0.124,0.425,0.278,0.486,0.464c0.063,0.186,0.077,0.402,0.047,0.649l-3.711,18.879c-0.155,0.805-0.341,1.624-0.557,2.458
				c-0.217,0.835-0.44,1.663-0.673,2.482c-0.231,0.819-0.464,1.6-0.695,2.342c-0.232,0.742-0.44,1.392-0.626,1.948
				c0.494-1.082,1.268-2.204,2.318-3.363c1.052-1.16,2.289-2.227,3.711-3.201c1.423-0.974,2.992-1.786,4.709-2.435
				c1.716-0.649,3.486-0.974,5.311-0.974c1.979,0,3.665,0.286,5.057,0.858s2.528,1.361,3.409,2.365
				c0.882,1.005,1.523,2.204,1.925,3.595c0.402,1.392,0.604,2.892,0.604,4.5c0,1.113-0.063,2.196-0.186,3.247
				c-0.124,1.052-0.294,2.119-0.51,3.201L1934.805,1406.34z"/>
			<path fill="#CE2029" d="M2022.284,1361.577c0,1.64-0.193,3.356-0.58,5.149c-0.387,1.794-0.997,3.548-1.832,5.265
				c-0.835,1.716-1.895,3.34-3.178,4.87c-1.283,1.531-2.837,2.884-4.662,4.059c-1.824,1.176-3.919,2.095-6.285,2.76
				c-2.365,0.665-5.156,0.997-8.373,0.997h-8.256l-4.314,21.663c-0.063,0.217-0.17,0.417-0.324,0.603
				c-0.155,0.186-0.411,0.333-0.766,0.44c-0.356,0.109-0.789,0.201-1.299,0.278c-0.511,0.077-1.152,0.116-1.926,0.116
				c-0.711,0-1.314-0.031-1.809-0.093c-0.495-0.063-0.89-0.147-1.183-0.255c-0.295-0.108-0.495-0.255-0.604-0.441
				s-0.132-0.401-0.069-0.649l11.04-55.432c0.247-1.236,0.758-2.118,1.53-2.644c0.773-0.525,1.67-0.789,2.691-0.789h11.828
				c1.546,0,2.914,0.054,4.105,0.162c1.189,0.109,2.342,0.287,3.455,0.534c1.67,0.371,3.178,0.944,4.523,1.716
				c1.345,0.773,2.481,1.724,3.409,2.853c0.928,1.129,1.639,2.436,2.134,3.92
				C2022.036,1358.145,2022.284,1359.784,2022.284,1361.577z M2013.842,1362.412c0-1.917-0.472-3.564-1.415-4.94
				c-0.943-1.375-2.404-2.342-4.383-2.899c-0.742-0.216-1.563-0.355-2.459-0.417c-0.897-0.062-1.855-0.093-2.876-0.093h-7.515
				l-4.731,24.075h7.562c2.195,0,4.051-0.247,5.566-0.742c1.515-0.494,2.845-1.144,3.988-1.948c1.145-0.804,2.111-1.747,2.899-2.83
				c0.789-1.082,1.431-2.203,1.925-3.363c0.495-1.159,0.858-2.334,1.091-3.525
				C2013.726,1364.539,2013.842,1363.433,2013.842,1362.412z"/>
			<path fill="#CE2029" d="M2060.806,1406.34c-0.124,0.526-0.464,0.897-1.021,1.113s-1.484,0.325-2.783,0.325
				c-0.619,0-1.129-0.031-1.53-0.093c-0.402-0.063-0.728-0.147-0.975-0.255c-0.248-0.108-0.418-0.248-0.51-0.418
				c-0.094-0.169-0.094-0.394,0-0.672l1.53-7.886c-0.402,0.99-1.129,2.072-2.181,3.247c-1.051,1.176-2.296,2.258-3.733,3.247
				c-1.438,0.99-3.038,1.809-4.802,2.458c-1.762,0.649-3.556,0.974-5.381,0.974c-2.474,0-4.522-0.434-6.146-1.299
				c-1.624-0.865-2.915-2.01-3.874-3.433c-0.958-1.422-1.616-3.03-1.971-4.824c-0.356-1.793-0.533-3.633-0.533-5.52
				c0-1.731,0.162-3.695,0.486-5.891c0.325-2.195,0.851-4.437,1.577-6.726c0.727-2.288,1.67-4.515,2.83-6.68
				c1.159-2.164,2.559-4.105,4.198-5.821c1.639-1.717,3.54-3.092,5.705-4.129c2.164-1.036,4.623-1.554,7.375-1.554
				c2.753,0,5.11,0.557,7.074,1.67s3.719,2.644,5.266,4.592l0.881-4.221c0.123-0.494,0.479-0.85,1.066-1.067
				c0.588-0.216,1.5-0.325,2.737-0.325c0.618,0,1.137,0.023,1.554,0.069c0.418,0.047,0.75,0.132,0.998,0.255
				c0.247,0.124,0.401,0.278,0.463,0.464c0.063,0.186,0.077,0.387,0.047,0.603L2060.806,1406.34z M2059.368,1375.493
				c-1.454-2.134-3.023-3.734-4.709-4.801c-1.686-1.067-3.579-1.601-5.682-1.601c-1.67,0-3.178,0.395-4.523,1.183
				c-1.345,0.789-2.536,1.833-3.571,3.131c-1.037,1.299-1.934,2.776-2.69,4.43c-0.759,1.654-1.377,3.363-1.855,5.125
				c-0.48,1.763-0.835,3.495-1.067,5.195c-0.231,1.701-0.348,3.232-0.348,4.592c0,1.083,0.085,2.157,0.255,3.224
				c0.17,1.067,0.494,2.041,0.975,2.923c0.479,0.881,1.137,1.593,1.971,2.134c0.836,0.541,1.918,0.812,3.248,0.812
				c1.7,0,3.409-0.471,5.125-1.415c1.717-0.943,3.316-2.25,4.801-3.919s2.799-3.633,3.943-5.891
				c1.144-2.257,1.994-4.747,2.551-7.468L2059.368,1375.493z"/>
			<path fill="#CE2029" d="M2109.811,1364.639c0,0.124-0.023,0.364-0.069,0.719c-0.047,0.356-0.101,0.766-0.162,1.229
				c-0.063,0.464-0.155,0.944-0.279,1.438c-0.123,0.495-0.277,0.951-0.463,1.369c-0.186,0.417-0.38,0.765-0.58,1.043
				c-0.202,0.278-0.426,0.417-0.673,0.417c-0.248,0-0.519-0.054-0.812-0.162c-0.295-0.108-0.619-0.239-0.975-0.395
				c-0.355-0.154-0.766-0.286-1.229-0.395c-0.465-0.108-1.006-0.162-1.624-0.162c-1.052,0-2.266,0.457-3.642,1.368
				c-1.376,0.913-2.729,2.173-4.059,3.781c-1.33,1.608-2.544,3.51-3.642,5.706c-1.098,2.196-1.909,4.577-2.435,7.144l-3.665,18.601
				c-0.063,0.248-0.17,0.457-0.325,0.626c-0.154,0.17-0.387,0.317-0.695,0.44c-0.31,0.123-0.719,0.216-1.229,0.278
				c-0.51,0.062-1.136,0.093-1.878,0.093c-0.773,0-1.4-0.031-1.879-0.093c-0.48-0.063-0.852-0.155-1.113-0.278
				c-0.264-0.123-0.434-0.271-0.511-0.44s-0.085-0.378-0.022-0.626l8.303-41.794c0.03-0.216,0.123-0.417,0.278-0.603
				c0.154-0.186,0.387-0.34,0.696-0.464c0.309-0.123,0.688-0.208,1.136-0.255c0.448-0.046,0.981-0.069,1.601-0.069
				c0.649,0,1.183,0.023,1.601,0.069c0.417,0.047,0.742,0.132,0.974,0.255c0.232,0.124,0.379,0.278,0.441,0.464
				c0.062,0.186,0.076,0.387,0.046,0.603l-1.53,7.607c0.711-1.268,1.554-2.489,2.527-3.665c0.975-1.175,2.033-2.204,3.178-3.084
				c1.144-0.882,2.343-1.584,3.595-2.111c1.253-0.525,2.481-0.789,3.688-0.789c0.525,0,1.059,0.039,1.6,0.116
				s1.044,0.17,1.508,0.278s0.873,0.231,1.229,0.371c0.354,0.139,0.626,0.301,0.812,0.487S2109.811,1364.237,2109.811,1364.639z"/>
			<path fill="#CE2029" d="M2143.137,1365.056c0,0.278-0.017,0.58-0.047,0.905c-0.031,0.324-0.093,0.657-0.186,0.997
				c-0.093,0.341-0.217,0.681-0.371,1.021c-0.155,0.341-0.317,0.642-0.487,0.904c-0.17,0.263-0.363,0.472-0.579,0.626
				c-0.217,0.155-0.465,0.232-0.742,0.232h-10.67l-4.685,23.286c-0.124,0.649-0.231,1.376-0.325,2.18
				c-0.092,0.805-0.139,1.469-0.139,1.995c0,1.577,0.332,2.729,0.997,3.456s1.739,1.09,3.224,1.09c0.836,0,1.562-0.069,2.181-0.209
				c0.618-0.139,1.151-0.285,1.601-0.44c0.447-0.154,0.842-0.302,1.183-0.44c0.34-0.14,0.634-0.209,0.882-0.209
				c0.247,0,0.44,0.085,0.579,0.255c0.14,0.17,0.209,0.487,0.209,0.951c0,0.402-0.039,0.843-0.116,1.322s-0.178,0.951-0.301,1.415
				c-0.124,0.464-0.279,0.881-0.465,1.252s-0.387,0.666-0.603,0.881c-0.248,0.217-0.619,0.434-1.113,0.649
				c-0.495,0.217-1.067,0.41-1.716,0.58c-0.65,0.17-1.339,0.302-2.064,0.395c-0.728,0.093-1.446,0.139-2.157,0.139
				c-1.732,0-3.231-0.186-4.499-0.557c-1.269-0.371-2.336-0.951-3.201-1.74c-0.866-0.788-1.508-1.778-1.925-2.969
				c-0.418-1.19-0.626-2.621-0.626-4.291c0-0.371,0.015-0.781,0.046-1.229c0.03-0.448,0.085-0.92,0.162-1.415
				c0.077-0.494,0.154-0.989,0.232-1.484c0.076-0.494,0.162-0.958,0.255-1.392l4.686-23.472h-5.799c-0.341,0-0.604-0.1-0.789-0.302
				c-0.186-0.201-0.277-0.595-0.277-1.183c0-0.433,0.046-0.935,0.139-1.508c0.093-0.572,0.232-1.105,0.418-1.6
				c0.186-0.494,0.424-0.912,0.719-1.252c0.293-0.34,0.642-0.51,1.043-0.51h5.846l1.994-9.927c0.03-0.216,0.131-0.417,0.302-0.603
				c0.169-0.186,0.409-0.348,0.719-0.487c0.309-0.139,0.719-0.239,1.229-0.301c0.51-0.062,1.137-0.093,1.879-0.093
				s1.352,0.031,1.832,0.093c0.479,0.063,0.85,0.163,1.113,0.301c0.262,0.14,0.433,0.302,0.51,0.487s0.101,0.387,0.07,0.603
				l-1.995,9.927h10.669c0.464,0,0.772,0.17,0.928,0.51C2143.059,1364.237,2143.137,1364.624,2143.137,1365.056z"/>
			<path fill="#CE2029" d="M2188.709,1373.823c0,1.083-0.063,2.15-0.186,3.201c-0.124,1.052-0.294,2.134-0.51,3.247l-5.242,26.069
				c-0.063,0.248-0.162,0.457-0.302,0.626c-0.139,0.17-0.371,0.317-0.695,0.44c-0.325,0.123-0.735,0.216-1.229,0.278
				c-0.495,0.062-1.129,0.093-1.902,0.093c-0.742,0-1.353-0.031-1.832-0.093c-0.479-0.063-0.851-0.155-1.113-0.278
				s-0.434-0.271-0.51-0.44c-0.078-0.17-0.101-0.378-0.07-0.626l5.149-25.791c0.216-0.958,0.363-1.886,0.44-2.783
				c0.077-0.896,0.116-1.685,0.116-2.366c0-1.886-0.402-3.409-1.206-4.569c-0.805-1.159-2.149-1.739-4.035-1.739
				c-1.64,0-3.317,0.472-5.033,1.415c-1.717,0.943-3.31,2.242-4.778,3.896s-2.783,3.618-3.942,5.891
				c-1.16,2.273-2.003,4.74-2.528,7.399l-3.711,18.647c-0.063,0.248-0.17,0.457-0.325,0.626c-0.154,0.17-0.387,0.317-0.695,0.44
				c-0.31,0.123-0.719,0.216-1.229,0.278c-0.51,0.062-1.136,0.093-1.878,0.093c-0.773,0-1.4-0.031-1.879-0.093
				c-0.48-0.063-0.852-0.155-1.113-0.278c-0.264-0.123-0.434-0.271-0.511-0.44s-0.085-0.378-0.022-0.626l8.396-41.794
				c0.03-0.216,0.116-0.417,0.255-0.603c0.14-0.186,0.355-0.34,0.649-0.464c0.294-0.123,0.665-0.208,1.113-0.255
				c0.448-0.046,0.981-0.069,1.601-0.069c0.649,0,1.183,0.023,1.601,0.069c0.417,0.047,0.742,0.132,0.974,0.255
				c0.232,0.124,0.379,0.278,0.441,0.464c0.062,0.186,0.076,0.387,0.046,0.603l-1.577,7.979c0.464-1.051,1.222-2.164,2.273-3.34
				c1.051-1.175,2.303-2.257,3.757-3.247c1.453-0.989,3.054-1.809,4.801-2.458s3.564-0.974,5.45-0.974
				c2.072,0,3.805,0.317,5.195,0.951c1.393,0.634,2.521,1.469,3.387,2.505c0.865,1.036,1.484,2.234,1.855,3.595
				C2188.523,1370.917,2188.709,1372.339,2188.709,1373.823z"/>
			<path fill="#CE2029" d="M2239.523,1373.127c0,2.134-0.495,4.052-1.484,5.752c-0.99,1.701-2.536,3.154-4.639,4.36
				c-2.104,1.206-4.794,2.134-8.072,2.783c-3.277,0.649-7.205,0.974-11.781,0.974h-4.918c-0.216,1.021-0.363,2.011-0.44,2.969
				c-0.077,0.959-0.116,1.855-0.116,2.69c0,3.093,0.766,5.458,2.297,7.097c1.53,1.64,4.012,2.458,7.445,2.458
				c1.979,0,3.757-0.146,5.334-0.44s2.945-0.61,4.105-0.951c1.159-0.34,2.11-0.657,2.853-0.951c0.742-0.293,1.253-0.44,1.53-0.44
				c0.279,0,0.487,0.101,0.627,0.302c0.139,0.201,0.209,0.487,0.209,0.858c0,0.31-0.031,0.681-0.094,1.113
				c-0.062,0.434-0.154,0.874-0.277,1.322c-0.124,0.449-0.287,0.875-0.487,1.276c-0.202,0.402-0.426,0.742-0.673,1.021
				c-0.371,0.371-1.028,0.735-1.972,1.09s-2.063,0.68-3.362,0.974c-1.299,0.294-2.722,0.534-4.268,0.719
				c-1.547,0.186-3.093,0.278-4.639,0.278c-2.753,0-5.165-0.31-7.236-0.928c-2.072-0.618-3.797-1.569-5.173-2.853
				c-1.376-1.283-2.404-2.883-3.085-4.801c-0.68-1.917-1.02-4.175-1.02-6.772c0-2.01,0.192-4.167,0.579-6.471
				s0.997-4.584,1.833-6.842c0.834-2.257,1.917-4.422,3.246-6.494c1.33-2.071,2.915-3.896,4.755-5.474s3.966-2.845,6.378-3.804
				c2.412-0.958,5.134-1.438,8.164-1.438c2.598,0,4.802,0.325,6.61,0.974c1.81,0.649,3.294,1.484,4.453,2.505
				c1.16,1.021,2.002,2.157,2.528,3.41C2239.26,1370.646,2239.523,1371.891,2239.523,1373.127z M2231.684,1373.823
				c0-1.577-0.619-2.853-1.855-3.827c-1.237-0.974-3-1.461-5.288-1.461c-2.011,0-3.788,0.348-5.335,1.044
				c-1.546,0.695-2.915,1.631-4.104,2.806c-1.191,1.176-2.212,2.544-3.062,4.105c-0.852,1.562-1.539,3.209-2.064,4.94h4.731
				c3.247,0,5.961-0.201,8.141-0.603c2.181-0.401,3.927-0.951,5.242-1.647c1.313-0.695,2.241-1.507,2.783-2.435
				C2231.412,1375.818,2231.684,1374.844,2231.684,1373.823z"/>
			<path fill="#CE2029" d="M2279.807,1364.639c0,0.124-0.023,0.364-0.069,0.719c-0.047,0.356-0.101,0.766-0.162,1.229
				c-0.063,0.464-0.155,0.944-0.279,1.438c-0.123,0.495-0.277,0.951-0.463,1.369c-0.186,0.417-0.38,0.765-0.58,1.043
				c-0.202,0.278-0.426,0.417-0.673,0.417c-0.248,0-0.519-0.054-0.812-0.162c-0.295-0.108-0.619-0.239-0.975-0.395
				c-0.355-0.154-0.766-0.286-1.229-0.395c-0.465-0.108-1.006-0.162-1.624-0.162c-1.052,0-2.266,0.457-3.642,1.368
				c-1.376,0.913-2.729,2.173-4.059,3.781c-1.33,1.608-2.544,3.51-3.642,5.706c-1.098,2.196-1.909,4.577-2.435,7.144l-3.665,18.601
				c-0.063,0.248-0.17,0.457-0.325,0.626c-0.154,0.17-0.387,0.317-0.695,0.44c-0.31,0.123-0.719,0.216-1.229,0.278
				c-0.51,0.062-1.136,0.093-1.878,0.093c-0.773,0-1.4-0.031-1.879-0.093c-0.48-0.063-0.852-0.155-1.113-0.278
				c-0.264-0.123-0.434-0.271-0.511-0.44s-0.085-0.378-0.022-0.626l8.303-41.794c0.03-0.216,0.123-0.417,0.278-0.603
				c0.154-0.186,0.387-0.34,0.696-0.464c0.309-0.123,0.688-0.208,1.136-0.255c0.448-0.046,0.981-0.069,1.601-0.069
				c0.649,0,1.183,0.023,1.601,0.069c0.417,0.047,0.742,0.132,0.974,0.255c0.232,0.124,0.379,0.278,0.441,0.464
				c0.062,0.186,0.076,0.387,0.046,0.603l-1.53,7.607c0.711-1.268,1.554-2.489,2.527-3.665c0.975-1.175,2.033-2.204,3.178-3.084
				c1.144-0.882,2.343-1.584,3.595-2.111c1.253-0.525,2.481-0.789,3.688-0.789c0.525,0,1.059,0.039,1.6,0.116
				s1.044,0.17,1.508,0.278s0.873,0.231,1.229,0.371c0.354,0.139,0.626,0.301,0.812,0.487S2279.807,1364.237,2279.807,1364.639z"/>
			<path fill="#CE2029" d="M2286.275,1400.403c0,0.434-0.039,0.944-0.116,1.531c-0.077,0.588-0.193,1.191-0.348,1.809
				c-0.155,0.619-0.348,1.191-0.58,1.716c-0.231,0.526-0.533,0.974-0.904,1.345s-0.897,0.649-1.577,0.835
				c-0.681,0.186-1.547,0.278-2.598,0.278c-0.866,0-1.577-0.063-2.134-0.186c-0.557-0.124-0.99-0.332-1.299-0.626
				c-0.31-0.293-0.526-0.649-0.649-1.066c-0.124-0.418-0.186-0.889-0.186-1.415c0-0.494,0.038-1.044,0.116-1.646
				c0.076-0.604,0.2-1.198,0.371-1.786c0.169-0.587,0.371-1.137,0.603-1.646c0.232-0.511,0.525-0.943,0.882-1.299
				c0.354-0.355,0.85-0.634,1.484-0.835c0.633-0.201,1.538-0.302,2.713-0.302c0.897,0,1.616,0.078,2.157,0.232
				c0.541,0.155,0.967,0.379,1.276,0.672c0.309,0.294,0.517,0.643,0.626,1.044
				C2286.221,1399.46,2286.275,1399.909,2286.275,1400.403z"/>
		</g>
	</g>
	<g>
		<path fill="#CE2029" d="M191.765,1439.715l148.355-329.57c0,0,29.281-66.37,66.369-66.37h121.027L352.483,1439.39H191.765
			V1439.715z"/>
		<polygon fill="#14232A" points="489.777,1181.72 409.744,1364.561 442.603,1439.715 525.565,1255.246 		"/>
		<path fill="#14232A" d="M465.376,1439.715l148.356-329.245c0,0,29.281-66.37,66.37-66.37h121.026l-175.033,395.615H465.376z"/>
		<path fill="#CE2029" d="M251.627,1255.246l-82.961,184.469L42.434,1150.161h129.811
			C172.245,1150.161,216.491,1156.343,251.627,1255.246"/>
	</g>
</g>
</svg>
