<svg width="363" height="525" viewBox="0 0 363 525" fill="none" xmlns="http://www.w3.org/2000/svg">
<g clip-path="url(#clip0_162_1597)">
<path d="M164.307 1.20264C163.905 8.55184 169.391 15.0993 175.947 18.4398C182.503 21.7804 189.996 22.5821 197.221 23.6511C204.447 24.7201 211.94 26.3235 217.827 30.7331C225.989 37.0133 229.2 47.703 231.073 57.8583C232.946 68.0135 234.017 78.7033 239.636 87.3887C244.721 95.406 253.15 100.751 261.713 104.893C270.276 109.035 279.241 112.376 287.269 117.721C306.938 130.816 317.909 155.937 313.895 179.187C314.163 164.756 301.05 151.928 288.473 144.712C275.896 137.497 261.446 134.424 247.798 129.48C234.15 124.669 220.369 117.32 213.144 104.76C206.588 93.5353 206.052 79.2378 198.158 68.9489C192.539 61.5997 183.841 57.1902 175.144 53.716C166.447 50.2418 157.349 47.5694 149.589 42.4918C141.694 37.5478 135.138 29.3968 134.871 20.0433C138.082 18.5735 141.159 16.3019 144.103 14.2976C150.659 10.0217 157.75 5.47853 164.307 1.20264Z" fill="#FF5B54"/>
<g opacity="0.2">
<path d="M175.011 53.8496C182.503 56.7893 189.996 60.5307 195.616 66.2764C196.686 65.6083 197.623 64.9402 198.559 64.1385C201.369 61.7333 203.376 58.2591 203.51 54.5177C203.644 50.7763 201.369 46.9013 198.024 45.565C197.489 41.5564 192.672 39.5521 188.658 39.9529C184.644 40.3538 180.898 42.0909 176.884 42.2245C169.926 42.4917 163.905 37.9486 157.884 34.6081C155.877 33.5391 153.603 32.4701 151.462 33.1382C148.652 34.0736 147.448 37.5477 147.582 40.621C147.582 40.8883 147.582 41.2891 147.715 41.5564C148.251 41.9573 148.92 42.3581 149.455 42.759C157.215 47.703 166.314 50.509 175.011 53.8496Z" fill="black"/>
<path d="M204.447 81.9102C207.123 89.6602 208.862 97.9448 213.01 105.027C218.362 114.247 227.326 120.66 237.094 125.337C230.538 108.234 219.165 92.8671 204.447 81.9102Z" fill="black"/>
</g>
<path d="M243.383 197.894H223.714C221.707 197.894 220.101 196.29 220.101 194.286V182.26C220.101 180.256 221.707 178.652 223.714 178.652H243.383C245.39 178.652 246.995 180.256 246.995 182.26V194.286C246.995 196.157 245.256 197.894 243.383 197.894ZM223.982 193.885H242.847V182.661H223.982V193.885Z" fill="#7A4500"/>
<path d="M231.876 171.971C232.277 172.773 231.742 173.708 231.207 174.376C230.672 175.044 229.869 175.579 229.333 176.247C228.263 177.717 228.665 180.122 230.27 181.191C230.404 182.527 230.939 184.131 231.876 185.066C232.812 186.001 234.15 186.536 235.488 186.135C236.425 185.868 237.228 184.933 237.629 184.131C238.031 183.195 238.164 182.126 238.298 181.191C238.432 178.519 238.031 175.846 237.228 173.441C235.622 172.372 233.481 171.971 231.876 171.971Z" fill="#FFBF75"/>
<path d="M116.808 40.3538C116.139 39.8193 116.139 38.7503 116.272 37.9486C116.54 37.1469 116.941 36.3451 117.075 35.4098C117.343 33.5391 115.871 31.6684 113.998 31.4011C113.329 30.3322 112.125 29.1296 110.787 28.7287C109.582 28.3278 108.111 28.4615 107.174 29.3968C106.505 30.0649 106.237 31.1339 106.237 32.2029C106.237 33.2718 106.639 34.2072 107.04 35.1425C108.111 37.5477 109.582 39.8193 111.456 41.69C113.195 41.5564 115.336 40.8883 116.808 40.3538Z" fill="#FFBF75"/>
<path d="M145.307 212.325C161.497 206.847 177.151 198.963 191.334 189.743C190.665 177.984 183.841 166.226 174.342 159.144C158.687 170.101 143.166 181.458 128.047 193.217C128.047 193.217 113.998 203.506 122.026 223.416C130.99 246.399 140.624 269.248 150.926 291.696L161.363 289.692C158.821 272.188 152.532 254.683 144.37 238.916C145.441 230.097 145.708 221.278 145.307 212.325Z" fill="#284154"/>
<path d="M170.997 159.544C176.616 202.972 184.644 246.265 194.813 288.89H205.517C206.454 271.252 203.644 252.812 198.827 235.843C206.721 211.256 208.594 184.398 206.186 158.743C195.348 153.799 181.701 154.467 170.997 159.544Z" fill="#284154"/>
<path opacity="0.2" d="M206.052 158.743C195.348 153.799 181.701 154.467 170.997 159.544C171.131 160.213 171.131 160.747 171.264 161.415C167.652 163.954 164.039 166.493 160.427 169.165C174.074 178.786 190.264 184.799 206.855 186.803C207.257 177.316 206.989 167.963 206.052 158.743Z" fill="black"/>
<path d="M195.348 100.884C158.954 99.281 124.434 75.229 110.519 41.5564C111.857 39.2848 114.533 38.2158 117.075 37.8149C128.047 62.0005 154.539 79.9058 181.032 78.0351C185.848 84.0481 192.538 93.6688 195.348 100.884Z" fill="#284154"/>
<path d="M179.56 59.4617C172.602 62.9358 164.307 64.4057 156.814 62.0005C149.321 59.5953 143.032 52.9142 142.765 45.1641C142.631 42.0908 143.835 38.6167 146.645 37.6813C148.786 37.0132 151.061 38.0822 153.068 39.1511C159.089 42.6253 165.11 47.1685 172.067 46.7676C176.081 46.634 179.828 44.7633 183.842 44.496C187.856 44.2288 192.672 46.0995 193.208 50.1081C196.686 51.4443 198.827 55.453 198.693 59.0608C198.56 62.8022 196.553 66.2764 193.743 68.6816C190.933 71.0868 187.454 72.5566 183.842 73.6256C184.511 70.9531 183.975 67.3453 183.44 64.6729C182.905 62.0005 182.236 59.7289 179.56 59.4617Z" fill="#7A4500"/>
<path d="M176.884 79.3714C162.701 106.63 155.476 137.363 156.011 167.963C176.75 173.976 200.7 173.575 221.172 167.027C216.489 145.648 208.728 123.199 203.778 101.953C202.44 96.2077 200.968 90.3283 197.355 85.6516C193.743 80.9748 182.37 77.5006 176.884 79.3714Z" fill="#284154"/>
<path d="M159.757 127.342C161.363 141.773 163.504 156.338 166.314 170.368C170.997 171.17 175.68 171.838 180.363 171.971C182.236 150.458 187.186 129.212 194.412 108.902C191.334 107.165 187.989 104.626 184.912 103.022C186.919 102.087 189.461 100.35 191.468 99.4147C190.799 93.2681 190.264 86.9878 190.13 80.8412C185.581 78.9705 180.095 78.1688 176.75 79.3714C173.806 84.9835 171.264 90.7292 168.99 96.475C170.194 98.2121 171.532 99.9492 172.87 101.553C169.926 103.958 167.116 106.764 164.44 109.57C162.567 115.449 161.095 121.329 159.757 127.342Z" fill="#2F4D63"/>
<path d="M188.257 80.1731C184.912 79.1041 181.433 78.5696 178.623 78.9705C166.849 107.833 162.701 139.902 167.518 170.635C171.666 171.303 175.814 171.838 179.961 172.105C179.961 171.971 179.961 171.704 179.961 171.57C179.159 155.536 178.356 139.368 179.426 123.333C180.363 108.635 182.905 93.9361 188.257 80.1731Z" fill="white"/>
<path d="M180.229 70.686C179.827 74.6946 179.426 78.5697 179.158 82.5783C181.701 83.9145 184.912 83.2464 187.588 82.0438C187.454 77.9016 188.123 73.8929 188.123 69.7506C185.715 68.8153 182.37 69.617 180.229 70.686Z" fill="#FFBF75"/>
<path opacity="0.2" d="M180.229 70.6859C179.961 73.3584 179.694 76.0308 179.426 78.7032C182.503 78.1688 185.313 76.8325 187.855 74.8282C187.989 73.0911 188.123 71.354 187.989 69.617C185.715 68.8152 182.37 69.617 180.229 70.6859Z" fill="black"/>
<path d="M196.151 84.0482C224.651 103.29 241.643 138.566 238.566 172.773C236.425 174.109 233.481 173.842 231.073 173.04C232.679 146.583 217.425 118.389 193.208 107.699C192.003 101.82 190.933 93.6689 190.933 86.7206C190.665 84.1818 193.877 82.5783 196.151 84.0482Z" fill="#284154"/>
<path d="M174.609 58.5264C174.342 64.2721 175.412 69.8842 177.687 75.0955C182.236 75.7636 187.053 73.7593 189.862 70.1515C192.672 66.5437 193.341 61.3325 191.468 57.0566C189.996 53.4488 186.517 50.5091 182.503 50.2418C178.757 49.9746 174.877 54.5177 174.609 58.5264Z" fill="#FFBF75"/>
<path d="M172.201 60.9316C176.081 61.0652 180.095 60.1299 183.574 58.5264C184.51 59.3281 185.447 60.2635 186.384 60.9316C186.25 62.4014 186.116 63.8713 186.116 65.3411C186.517 65.3411 186.785 65.3411 187.186 65.3411C186.919 64.2722 187.053 63.0696 187.454 62.1342C187.588 61.7333 187.855 61.3325 188.257 61.1988C188.792 61.0652 189.193 61.3325 189.461 61.7333C189.729 62.1342 189.729 62.6687 189.729 63.2032C189.595 65.2075 188.792 67.2118 187.32 68.6817C187.454 69.7506 187.588 70.9532 187.722 72.0222C191.736 70.1515 194.545 66.2765 195.081 61.867C195.616 57.5911 194.01 53.0479 190.799 50.1082C189.06 48.5048 187.053 47.3022 184.778 46.7677C182.503 46.2332 180.095 46.3668 177.954 47.3022C175.546 48.3712 173.539 50.5091 172.468 53.0479C171.398 55.854 171.666 58.3928 172.201 60.9316Z" fill="#7A4500"/>
<path d="M262.115 233.17H204.848C202.306 233.17 200.165 231.032 200.165 228.493V193.752C200.165 191.213 202.306 189.075 204.848 189.075H262.115C264.657 189.075 266.798 191.213 266.798 193.752V228.493C266.798 231.166 264.657 233.17 262.115 233.17Z" fill="#7A4500"/>
<path d="M235.355 350.757C260.375 334.856 291.684 321.36 312.691 300.382L282.318 270.05C247.798 274.459 212.742 273.791 178.49 267.778C198.827 296.774 213.01 323.097 235.355 350.757Z" fill="white"/>
<path opacity="0.1" d="M201.771 270.985C219.432 295.171 241.376 316.149 266.129 332.852C255.558 338.865 244.988 344.611 235.355 350.757C213.01 323.097 198.961 296.774 178.49 267.778C186.116 268.981 193.877 270.05 201.771 270.985Z" fill="black"/>
<path d="M328.48 342.072C326.071 338.197 324.733 333.787 324.599 329.244C324.599 326.973 325.804 325.77 327.008 323.899C328.212 322.029 330.085 320.559 332.226 319.891C332.895 317.753 334.367 315.882 336.24 314.679C338.113 313.477 339.317 312.274 341.592 312.274C346.141 312.408 350.557 313.744 354.437 316.149C353.366 315.882 352.296 316.016 351.359 316.416C354.704 318.955 357.782 322.029 360.19 325.369C358.852 324.434 357.38 323.766 355.909 323.365C359.12 327.106 361.528 331.382 363 336.059C361.662 334.99 360.458 333.921 359.12 332.852C361.796 337.93 363 343.809 362.197 349.555L362.331 349.688H362.197V349.822L362.063 349.688C356.31 350.49 350.423 349.287 345.338 346.615C346.409 347.951 347.479 349.154 348.55 350.49C343.867 349.02 339.585 346.615 335.839 343.408C336.24 345.012 336.909 346.481 337.846 347.684C334.501 345.279 331.423 342.205 328.881 338.865C328.346 339.934 328.212 341.003 328.48 342.072Z" fill="#FFB453"/>
<path d="M329.282 335.925C327.543 333.119 326.473 329.912 326.473 326.572C326.473 324.835 327.275 324.033 328.212 322.697C329.149 321.36 330.487 320.291 331.958 319.757C332.494 318.153 333.564 316.817 334.902 316.016C336.374 315.08 337.177 314.278 338.782 314.278C342.127 314.412 345.339 315.347 348.148 317.085C347.346 316.951 346.543 316.951 345.874 317.352C348.282 319.222 350.557 321.36 352.296 323.899C351.359 323.231 350.289 322.697 349.085 322.429C351.359 325.102 353.099 328.309 354.303 331.649C353.366 330.848 352.43 330.179 351.493 329.378C353.5 333.119 354.303 337.395 353.768 341.537L353.902 341.671H353.768V341.805L353.634 341.671C349.486 342.205 345.205 341.404 341.458 339.399C342.261 340.335 342.93 341.27 343.733 342.205C340.388 341.136 337.177 339.266 334.501 336.994C334.768 338.063 335.303 339.266 335.972 340.201C333.43 338.464 331.289 336.192 329.416 333.787C329.149 334.322 329.149 335.123 329.282 335.925Z" fill="#FF8A53"/>
<path d="M331.289 333.119C329.951 330.981 329.148 328.576 329.148 326.037C329.148 324.835 329.817 324.167 330.486 323.098C331.155 322.029 332.092 321.227 333.296 320.826C333.698 319.623 334.5 318.688 335.571 318.02C336.641 317.352 337.31 316.684 338.514 316.684C341.057 316.684 343.465 317.485 345.606 318.822C345.071 318.688 344.402 318.688 343.866 318.955C345.74 320.292 347.345 322.029 348.683 323.899C348.014 323.365 347.211 323.098 346.275 322.83C348.014 324.835 349.352 327.24 350.155 329.779C349.486 329.244 348.817 328.576 348.014 328.042C349.486 330.848 350.155 334.055 349.754 337.128L349.887 337.261C349.887 337.261 349.887 337.261 349.754 337.261C349.754 337.261 349.754 337.261 349.754 337.395L349.62 337.261C346.542 337.662 343.197 337.128 340.521 335.524C341.057 336.193 341.726 336.861 342.261 337.662C339.719 336.861 337.31 335.524 335.303 333.787C335.571 334.589 335.838 335.391 336.374 336.193C334.5 334.856 332.895 333.253 331.423 331.382C331.155 331.917 331.155 332.585 331.289 333.119Z" fill="#FF6E53"/>
<path d="M252.749 273.524C238.031 251.877 264.122 225.687 285.798 240.519C292.354 245.062 298.91 250.407 305.199 256.688C316.705 268.179 341.458 296.774 346.944 308.934C343.599 314.011 339.853 318.688 335.437 323.098C331.022 327.507 326.205 331.382 321.255 334.589C309.213 329.244 280.446 304.391 268.939 292.899C262.65 286.752 257.298 280.205 252.749 273.524Z" fill="#FF5B54"/>
<path d="M260.375 248.136C263.988 246.131 267.6 245.062 271.079 245.062C274.558 245.062 277.769 246.399 280.579 248.269L290.213 254.817C293.424 256.955 296.769 259.226 300.382 261.231C298.375 257.623 295.698 254.416 292.889 251.61C290.079 248.67 286.868 246.131 283.523 243.86C281.649 242.657 279.642 241.588 277.368 241.054C275.093 240.519 272.819 240.386 270.544 240.787C266.262 241.722 262.382 244.528 260.375 248.136Z" fill="white"/>
<path opacity="0.1" d="M252.749 273.524C243.784 260.429 249.939 245.597 261.044 239.317C257.03 246.399 256.495 255.619 262.249 264.037C266.798 270.584 272.15 277.132 278.438 283.412C289.945 294.903 318.578 319.623 330.754 325.102C333.965 322.964 337.043 320.692 339.986 318.154C338.515 319.891 337.043 321.494 335.437 323.098C331.022 327.507 326.205 331.382 321.254 334.589C309.212 329.244 280.445 304.39 268.939 292.899C262.65 286.752 257.298 280.205 252.749 273.524Z" fill="black"/>
<path d="M188.391 397.525C172.469 422.512 158.955 453.78 137.948 474.758L107.575 444.426C111.991 409.952 111.322 374.943 105.301 340.736C134.335 361.18 160.694 375.344 188.391 397.525Z" fill="white"/>
<path opacity="0.2" d="M108.512 363.986C132.73 381.624 153.736 403.538 170.462 428.258C176.483 417.702 182.236 407.146 188.391 397.525C160.694 375.21 134.335 361.18 105.301 340.736C106.639 348.486 107.709 356.236 108.512 363.986Z" fill="black"/>
<path d="M153.87 516.582C151.462 512.707 150.124 508.297 149.99 503.754C149.99 501.483 151.194 500.28 152.398 498.409C153.603 496.539 155.476 495.069 157.617 494.401C158.286 492.263 159.757 490.392 161.631 489.189C163.504 487.987 164.708 486.784 166.983 486.784C171.532 486.918 175.947 488.254 179.827 490.659C178.757 490.392 177.687 490.526 176.75 490.926C180.095 493.465 183.172 496.539 185.581 499.879C184.243 498.944 182.771 498.276 181.299 497.875C184.51 501.616 186.919 505.892 188.391 510.569C187.053 509.5 185.848 508.431 184.51 507.362C187.186 512.44 188.391 518.319 187.588 524.065L187.722 524.198H187.588V524.332L187.454 524.198C181.701 525 175.813 523.797 170.729 521.125C171.799 522.461 172.87 523.664 173.94 525C169.257 523.53 164.976 521.125 161.229 517.918C161.631 519.522 162.3 520.991 163.236 522.194C159.891 519.789 156.814 516.715 154.272 513.375C153.603 514.444 153.603 515.513 153.87 516.582Z" fill="#FFB453"/>
<path d="M154.539 510.435C152.8 507.629 151.729 504.422 151.729 501.082C151.729 499.345 152.532 498.543 153.469 497.207C154.405 495.87 155.743 494.801 157.215 494.267C157.751 492.663 158.821 491.327 160.159 490.526C161.631 489.59 162.434 488.788 164.039 488.788C167.384 488.922 170.595 489.857 173.405 491.595C172.602 491.461 171.8 491.461 171.131 491.862C173.539 493.732 175.814 495.87 177.553 498.409C176.616 497.741 175.546 497.207 174.342 496.939C176.616 499.612 178.356 502.819 179.56 506.159C178.623 505.358 177.687 504.689 176.75 503.888C178.757 507.629 179.56 511.905 179.025 516.047L179.159 516.181H179.025V516.315L178.891 516.181C174.743 516.715 170.462 515.914 166.715 513.909C167.518 514.845 168.187 515.78 168.99 516.715C165.645 515.646 162.434 513.776 159.758 511.504C160.025 512.573 160.56 513.776 161.229 514.711C158.687 512.974 156.546 510.702 154.673 508.297C154.539 508.832 154.405 509.633 154.539 510.435Z" fill="#FF8A53"/>
<path d="M156.546 507.629C155.208 505.491 154.406 503.086 154.406 500.547C154.406 499.345 155.075 498.677 155.744 497.608C156.413 496.539 157.349 495.737 158.553 495.336C158.955 494.133 159.758 493.198 160.828 492.53C161.898 491.862 162.567 491.194 163.772 491.194C166.314 491.194 168.722 491.995 170.863 493.332C170.328 493.198 169.659 493.198 169.124 493.465C170.997 494.801 172.602 496.539 173.94 498.409C173.271 497.875 172.469 497.608 171.532 497.34C173.271 499.345 174.609 501.75 175.412 504.289C174.743 503.754 174.074 503.086 173.271 502.552C174.743 505.358 175.412 508.565 175.011 511.638L175.145 511.771C175.145 511.771 175.145 511.771 175.011 511.771C175.011 511.771 175.011 511.771 175.011 511.905L174.877 511.771C171.8 512.172 168.455 511.638 165.779 510.034C166.314 510.703 166.983 511.371 167.518 512.172C164.976 511.371 162.567 510.034 160.56 508.297C160.828 509.099 161.096 509.901 161.631 510.703C159.758 509.366 158.152 507.763 156.68 505.892C156.413 506.427 156.413 506.961 156.546 507.629Z" fill="#FF6E53"/>
<path d="M78.0057 448.034C63.2877 426.387 89.3787 400.197 111.054 415.029C117.611 419.572 124.167 424.917 130.455 431.198C141.962 442.689 166.715 471.284 172.201 483.444C168.856 488.521 165.11 493.198 160.694 497.608C156.279 502.017 151.462 505.892 146.511 509.099C134.469 503.754 105.702 478.9 94.1956 467.409C87.9069 461.129 82.5549 454.581 78.0057 448.034Z" fill="#FF5B54"/>
<path d="M85.6321 422.512C89.2447 420.508 92.8573 419.439 96.3361 419.439C99.8149 419.439 103.026 420.775 105.836 422.646L115.47 429.193C118.681 431.331 122.026 433.603 125.638 435.607C123.631 431.999 120.955 428.792 118.146 425.986C115.336 423.047 112.125 420.508 108.78 418.236C106.906 417.034 104.899 415.965 102.625 415.43C100.35 414.896 98.0755 414.762 95.8009 415.163C91.5193 416.232 87.6391 419.038 85.6321 422.512Z" fill="white"/>
<path opacity="0.1" d="M78.0055 448.034C69.0409 434.939 75.1957 420.107 86.3012 413.827C82.2872 420.909 81.752 430.129 87.5054 438.547C92.0546 445.094 97.4066 451.642 103.695 457.922C115.202 469.413 143.835 494.133 156.011 499.612C159.222 497.474 162.3 495.202 165.243 492.664C163.771 494.401 162.3 496.004 160.694 497.608C156.279 502.017 151.462 505.892 146.511 509.099C134.469 503.754 105.702 478.901 94.1954 467.409C87.9068 461.129 82.5548 454.581 78.0055 448.034Z" fill="black"/>
<path d="M225.721 444.025C220.637 436.008 217.693 426.654 217.425 417.167C217.292 412.357 219.834 409.952 222.51 405.943C225.052 401.934 228.932 398.861 233.348 397.391C234.819 392.982 237.897 389.107 241.911 386.568C245.925 384.029 248.467 381.357 253.15 381.49C262.65 381.757 272.016 384.563 280.044 389.775C277.903 389.24 275.629 389.507 273.622 390.443C280.713 395.788 287.002 402.068 292.086 409.15C289.276 407.279 286.199 405.809 282.988 405.008C289.544 412.758 294.628 421.844 297.839 431.598C295.163 429.46 292.487 427.189 289.811 425.051C295.565 435.607 297.839 448.034 296.234 459.926L296.501 460.193C296.368 460.193 296.234 460.193 296.1 460.193C296.1 460.327 296.1 460.461 296.1 460.594L295.832 460.327C283.924 461.93 271.481 459.525 260.911 453.913C263.051 456.586 265.326 459.258 267.467 461.93C257.699 458.724 248.601 453.646 240.841 447.098C241.643 450.305 243.115 453.379 244.988 456.185C237.897 450.973 231.475 444.693 226.256 437.745C225.453 439.482 225.186 441.887 225.721 444.025Z" fill="#FFB453"/>
<path d="M227.46 431.064C223.714 425.185 221.573 418.37 221.439 411.421C221.306 407.947 223.179 406.077 225.186 403.137C227.059 400.197 229.869 398.059 233.08 396.857C234.15 393.65 236.425 390.844 239.369 388.973C242.312 387.102 244.052 385.232 247.664 385.232C254.622 385.365 261.446 387.503 267.333 391.245C265.727 390.844 264.122 390.977 262.65 391.645C267.868 395.52 272.417 400.197 276.164 405.408C274.157 404.072 271.882 403.003 269.474 402.335C274.29 408.081 278.037 414.628 280.311 421.71C278.304 420.107 276.431 418.503 274.424 416.9C278.572 424.65 280.311 433.736 279.107 442.422L279.375 442.689C279.241 442.689 279.241 442.689 279.107 442.689C279.107 442.823 279.107 442.823 279.107 442.956L278.84 442.689C270.143 443.758 261.044 442.154 253.284 438.012C254.889 440.017 256.495 441.887 258.101 443.892C251.009 441.62 244.319 437.879 238.7 433.068C239.369 435.473 240.305 437.745 241.777 439.749C236.559 436.008 231.876 431.331 227.996 426.253C227.193 427.723 227.059 429.46 227.46 431.064Z" fill="#FF8A53"/>
<path d="M231.474 425.184C228.665 420.775 227.059 415.697 226.925 410.486C226.791 407.814 228.263 406.477 229.735 404.339C231.073 402.202 233.214 400.464 235.622 399.663C236.425 397.258 238.164 395.12 240.305 393.783C242.58 392.314 243.918 390.977 246.46 390.977C251.678 391.111 256.763 392.714 261.178 395.52C259.974 395.253 258.77 395.387 257.699 395.921C261.579 398.861 265.058 402.335 267.868 406.21C266.396 405.141 264.657 404.339 262.917 403.939C266.53 408.214 269.34 413.159 271.079 418.503C269.608 417.301 268.136 416.098 266.664 414.896C269.741 420.641 271.079 427.456 270.276 434.003L270.41 434.137C270.277 434.137 270.276 434.137 270.143 434.137C270.143 434.271 270.143 434.271 270.143 434.404L270.009 434.271C263.453 435.072 256.629 433.87 250.875 430.663C252.08 432.133 253.284 433.603 254.488 435.072C249.136 433.335 244.185 430.529 239.904 426.922C240.305 428.659 241.108 430.396 242.178 431.866C238.298 429.06 234.819 425.585 231.876 421.71C231.341 422.779 231.207 423.982 231.474 425.184Z" fill="#FF6E53"/>
<path d="M56.4636 221.01C89.5123 216.334 137.011 237.179 176.884 276.998C197.221 297.308 249.671 356.637 259.305 378.016C253.418 386.835 246.728 395.387 238.833 403.137C231.073 410.887 222.644 417.702 213.679 423.581C192.271 413.96 132.864 361.581 112.526 341.27C72.5197 301.451 51.6468 254.015 56.4636 221.01Z" fill="white"/>
<path opacity="0.3" d="M56.4636 221.01C89.5123 216.334 137.011 237.179 176.884 276.998C197.221 297.308 249.671 356.637 259.305 378.016C253.418 386.835 246.728 395.387 238.833 403.137C231.073 410.887 222.644 417.702 213.679 423.581C192.271 413.96 132.864 361.581 112.526 341.27C72.5197 301.451 51.6468 254.015 56.4636 221.01Z" fill="black"/>
<path opacity="0.3" d="M150.793 361.046C153.469 352.094 158.687 344.21 164.173 336.727C169.391 329.511 175.144 322.296 183.039 318.287C189.729 314.813 227.46 344.477 241.242 351.158C244.854 355.835 248.199 360.378 251.009 364.52C249.136 371.602 246.059 378.417 242.178 384.564C236.157 394.051 228.664 402.335 221.038 410.753C222.777 412.223 224.517 413.426 226.39 414.495C224.383 416.098 222.242 417.835 220.101 419.305C220.101 419.305 219.967 419.305 219.967 419.439C218.897 420.241 217.96 420.909 216.89 421.577C215.82 422.379 214.749 423.047 213.679 423.715C206.587 420.508 195.348 412.624 182.771 402.87C173.539 390.577 149.99 363.719 150.793 361.046Z" fill="black"/>
<path d="M0.802794 165.557C43.8865 159.411 105.836 186.67 157.884 238.649C184.51 265.239 241.643 331.248 254.087 359.175C246.46 370.8 237.629 381.757 227.46 391.913C217.292 402.068 206.32 411.021 194.679 418.503C166.849 405.943 100.618 348.886 73.9915 322.429C21.9432 270.45 -5.35202 208.584 0.802794 165.557Z" fill="white"/>
<path d="M27.8305 195.355C37.0627 186.135 48.1681 178.786 60.2101 173.842C69.0409 177.049 78.0056 180.924 86.9702 185.734C71.3155 190.678 56.4637 199.23 44.0203 211.657C32.9149 222.747 24.8869 235.575 19.8025 249.338C15.2533 240.386 11.373 231.433 8.42944 222.747C13.2463 212.726 19.6687 203.372 27.8305 195.355Z" fill="#FF6E53"/>
<path d="M3.2112 204.709C-8.10996e-06 190.678 -0.802809 177.45 0.936593 165.557C13.1124 163.82 26.8938 164.756 41.4781 168.23C33.0486 173.04 25.2882 179.053 18.3306 185.868C12.5772 191.614 7.4928 197.894 3.2112 204.709Z" fill="#FF5B54"/>
<path opacity="0.1" d="M0.669049 167.562C16.8589 210.855 51.3793 262.3 99.146 310.003C123.096 333.921 185.046 391.512 209.264 408.081C204.581 411.822 199.764 415.297 194.679 418.504C166.849 405.943 100.618 348.887 73.9916 322.429C22.7461 271.252 -4.41536 210.588 0.669049 167.562Z" fill="black"/>
<path d="M104.145 269.017C116.424 256.755 116.424 236.873 104.145 224.61C91.8658 212.347 71.9574 212.347 59.6782 224.61C47.399 236.873 47.399 256.755 59.6782 269.017C71.9574 281.28 91.8658 281.28 104.145 269.017Z" fill="#A6F6FF"/>
<g opacity="0.3">
<path d="M54.7243 230.898H109.047C112.392 236.644 113.73 243.192 113.195 249.472H50.5765C50.0413 243.192 51.3793 236.644 54.7243 230.898Z" fill="white"/>
<path d="M56.196 264.972C53.52 261.231 51.7806 257.222 50.9778 252.946H112.66C111.857 257.222 110.117 261.364 107.441 264.972H56.196Z" fill="white"/>
</g>
<path opacity="0.1" d="M59.6748 224.618C68.1043 216.2 80.2801 213.528 91.1179 216.735C84.4279 217.536 77.8717 220.476 72.6535 225.687C60.3438 237.98 60.3438 257.89 72.6535 270.183C76.3999 273.925 80.9491 276.597 85.7659 278.067C76.5337 279.136 66.7663 276.196 59.6748 269.114C47.3652 256.687 47.3652 236.778 59.6748 224.618Z" fill="black"/>
<path d="M56.3297 272.321C42.1469 258.157 42.1469 235.174 56.3297 221.144C70.5126 206.98 93.5262 206.98 107.575 221.144C121.758 235.308 121.758 258.291 107.575 272.321C93.3924 286.351 70.3788 286.485 56.3297 272.321ZM63.0198 265.64C73.4562 276.063 90.315 276.063 100.751 265.64C111.188 255.218 111.188 238.381 100.751 227.959C90.315 217.536 73.4562 217.536 63.0198 227.959C52.7171 238.381 52.7171 255.218 63.0198 265.64Z" fill="#FF5B54"/>
<path d="M159.537 324.338C171.816 312.075 171.816 292.193 159.537 279.93C147.258 267.668 127.35 267.668 115.071 279.93C102.791 292.193 102.791 312.075 115.071 324.338C127.35 336.601 147.258 336.601 159.537 324.338Z" fill="#A6F6FF"/>
<g opacity="0.3">
<path d="M110.118 286.218H164.44C167.785 291.964 169.123 298.511 168.588 304.791H105.97C105.435 298.511 106.773 291.964 110.118 286.218Z" fill="white"/>
<path d="M111.589 320.291C108.913 316.55 107.174 312.541 106.371 308.266H168.053C167.25 312.541 165.511 316.684 162.835 320.291H111.589Z" fill="white"/>
</g>
<path opacity="0.1" d="M115.068 279.938C123.498 271.519 135.673 268.847 146.511 272.054C139.821 272.856 133.265 275.795 128.047 281.007C115.737 293.3 115.737 313.209 128.047 325.503C131.793 329.244 136.342 331.916 141.159 333.386C131.927 334.455 122.16 331.516 115.068 324.434C102.759 312.007 102.759 292.097 115.068 279.938Z" fill="black"/>
<path d="M111.723 327.641C97.5405 313.477 97.5405 290.494 111.723 276.463C125.906 262.433 148.92 262.299 162.969 276.463C177.152 290.627 177.152 313.61 162.969 327.641C148.786 341.804 125.772 341.804 111.723 327.641ZM118.413 320.959C128.85 331.382 145.709 331.382 156.145 320.959C166.581 310.537 166.581 293.701 156.145 283.278C145.709 272.856 128.85 272.856 118.413 283.278C108.111 293.701 108.111 310.537 118.413 320.959Z" fill="#FF5B54"/>
<path d="M95.801 42.8926C95.3996 42.8926 94.8644 42.6254 94.5968 42.2245C94.1954 41.5564 94.463 40.7547 95.132 40.3538L164.842 0.133658C165.511 -0.267208 166.314 3.5964e-05 166.715 0.668145C167.117 1.33625 166.849 2.13798 166.18 2.53885L96.47 42.759C96.3362 42.759 96.0686 42.8926 95.801 42.8926Z" fill="#7A4500"/>
<path d="M113.998 34.2073C114.399 33.8064 114.265 33.2719 114.132 32.7374C113.864 31.9357 113.73 31.2676 113.463 30.4659C112.794 29.6641 111.857 28.996 110.92 28.5951C109.716 28.1943 108.244 28.3279 107.308 29.2633C106.639 29.9314 106.371 31.0003 106.371 32.0693C106.371 32.7374 106.639 33.4055 106.772 34.0736C107.04 34.6081 107.441 35.1426 107.843 35.5435C108.378 36.078 109.047 36.3452 109.716 36.078C110.519 35.8107 111.054 34.7418 111.857 34.4745C112.66 34.3409 113.463 34.7418 113.998 34.2073Z" fill="#FFBF75"/>
</g>
<defs>
<clipPath id="clip0_162_1597">
<rect width="363" height="525" fill="white"/>
</clipPath>
</defs>
</svg>
