<svg width="616" height="548" viewBox="0 0 616 548" fill="none" xmlns="http://www.w3.org/2000/svg">
<g opacity="0.09" clip-path="url(#clip0_254_2)">
<path d="M29.5294 207.566C27.0427 207.566 24.8669 205.422 24.8669 202.971C24.8669 201.133 25.7994 199.601 27.3536 198.989L61.5456 181.221C69.3165 177.239 78.3308 177.239 86.1017 181.221L106.306 191.637L102.576 169.581C101.022 161.003 103.819 152.426 110.036 146.605L126.2 130.982L103.819 127.919C95.1159 126.694 87.6558 121.486 83.9258 113.521L73.979 93.6095L63.7214 113.521C59.9914 121.18 52.5313 126.387 43.8279 127.919L5.28418 133.433C2.79749 133.739 0.310794 131.901 -4.23901e-05 129.451C-0.310879 127 1.55414 124.549 4.04083 124.243L42.5846 118.729C48.1796 117.81 52.8422 114.44 55.3288 109.539L69.6273 81.0497C70.8707 78.9054 73.6682 77.9864 75.8441 78.9054C76.7766 79.2117 77.3982 80.1307 78.0199 81.0497L92.3184 109.539C94.8051 114.44 99.7785 117.81 105.063 118.729L136.768 123.018C139.255 123.324 141.12 125.775 140.809 128.225C140.809 129.144 140.187 130.063 139.566 130.982L116.564 153.039C112.523 157.021 110.658 162.535 111.59 168.049L117.185 199.295C117.496 201.746 115.942 204.196 113.455 204.503C112.523 204.809 111.59 204.503 110.658 204.196L82.0608 189.492C77.0874 187.042 71.1815 187.042 66.2081 189.492L32.0161 207.26C31.0836 207.566 30.4619 207.566 29.5294 207.566Z" fill="#FF5B54"/>
<path d="M141.431 244.02C140.809 244.02 139.876 243.714 139.255 243.407L73.9791 209.71L8.70339 243.407C6.52754 244.633 3.73001 243.714 2.48666 241.569C1.86499 240.65 1.86499 239.731 1.86499 238.506L6.2167 213.08C6.52754 210.629 9.01423 208.791 11.8118 209.404C14.2984 209.71 16.1635 212.161 15.5418 214.918L12.7443 231.154L71.8032 200.52C73.0465 199.908 74.9116 199.908 76.1549 200.52L135.214 231.154L123.713 166.211C123.402 164.679 124.024 163.148 124.956 162.229L172.825 116.278L106.617 106.782C105.063 106.476 103.819 105.557 103.198 104.331L73.6682 45.2085L44.1388 104.331C43.5171 105.557 42.2737 106.476 40.7196 106.782L17.4068 110.152C14.9201 110.458 12.4334 108.62 12.1226 106.169C11.8118 103.718 13.6768 101.268 16.1635 100.961L36.9895 97.8981L69.6273 32.9551C70.5599 31.4234 72.114 30.5044 73.6682 30.5044C75.5332 30.5044 77.0874 31.4234 77.7091 32.9551L110.347 98.2045L183.394 108.62C185.88 108.926 187.745 111.377 187.434 113.828C187.434 114.747 186.813 115.666 186.191 116.585L133.349 167.436L145.782 239.119C146.093 241.569 144.539 244.02 142.052 244.326C141.741 244.02 141.741 244.02 141.431 244.02Z" fill="#FF5B54"/>
<path d="M43.2062 246.471L41.652 306.512L40.7195 336.533C40.7195 338.984 40.7195 341.435 40.7195 343.579L41.0303 346.949L41.9628 350.318C45.6929 364.103 56.5721 375.132 70.5598 379.42C72.7356 380.033 75.2223 380.646 77.709 380.952C80.1957 381.258 82.3716 381.258 85.1691 381.258L100.4 381.565L161.324 383.096L100.4 384.628L85.1691 384.934C82.6824 384.934 79.8849 384.934 77.3982 384.934C74.6007 384.628 72.114 384.322 69.6273 383.709C59.0588 381.258 49.7337 375.132 43.2062 366.554C39.787 362.265 37.3003 357.364 35.7461 352.156C35.4353 350.931 34.8136 349.706 34.5027 348.174L33.8811 344.192C33.5702 341.435 33.2594 338.678 33.2594 336.227L32.3269 306.206L30.7727 246.471C30.7727 243.101 33.2594 240.344 36.9894 240.038C40.4086 240.038 43.2062 242.488 43.2062 246.164V246.471Z" fill="#000222"/>
<path d="M58.7482 314.783C59.0591 319.379 59.3699 323.974 59.9916 328.262C60.9241 332.551 62.4783 336.533 64.6541 340.209C66.83 343.885 69.9383 346.949 73.3575 349.706C80.1959 354.913 88.2777 358.283 96.6703 359.202C98.8461 359.508 100.711 359.508 102.887 359.508L109.725 359.202C118.74 358.896 128.065 358.589 137.079 358.283C155.418 357.67 173.758 357.67 192.097 357.364C196.76 357.364 201.422 357.364 205.463 357.058L211.991 356.751C214.166 356.445 216.342 356.139 218.518 355.832C220.694 355.526 222.87 355.22 225.046 354.607L231.262 353.075C235.614 351.85 239.655 350.625 243.696 349.093C259.859 342.966 274.469 333.164 286.591 320.604C298.714 308.044 307.728 293.034 313.634 276.798L315.499 270.671C316.121 268.527 316.743 266.383 317.053 264.238L318.297 257.805L318.918 254.742L319.229 251.372C320.162 242.795 320.162 233.605 320.783 224.721C321.716 206.647 322.338 188.573 323.892 170.5C325.135 188.573 326.068 206.647 327 224.721C327.311 233.911 327.933 242.488 327.622 251.985V255.354L327.311 258.724L326.378 265.77C326.068 268.221 325.446 270.365 325.135 272.509L323.581 279.249C312.702 316.009 285.348 346.03 249.291 360.427C244.939 362.265 240.277 363.491 235.614 364.716L228.465 366.554C225.978 367.167 223.802 367.473 221.316 367.779C218.829 368.086 216.653 368.392 214.166 368.699L207.017 369.005C202.044 369.311 197.692 369.311 193.03 369.005C174.69 368.698 156.351 368.698 138.012 368.086C128.997 367.779 119.672 367.779 110.658 367.167L103.82 366.86C101.333 366.86 98.8461 366.554 96.3594 365.941C91.3861 365.022 86.7235 363.491 82.3718 361.346C73.6684 357.058 66.5191 350.012 62.1674 341.435C59.9916 337.146 58.7482 332.551 58.4374 327.956C57.8157 323.667 58.4374 319.379 58.7482 314.783Z" fill="#000222"/>
<path d="M75.8441 243.101C76.4658 256.886 77.0875 270.978 77.3983 284.763L77.7091 295.178V300.386C77.7091 301.917 78.02 303.755 78.3308 305.287C79.2633 311.72 82.0608 317.847 86.1017 322.748C90.1426 327.65 95.4268 331.632 101.644 333.776C104.752 335.002 107.86 335.614 110.969 335.614H113.455H115.942H121.226L163.5 334.695L184.637 334.389H195.827C199.246 334.083 202.355 333.776 205.774 333.776C219.14 332.245 231.573 327.65 242.763 320.297C265.144 306.206 281.307 282.925 288.767 257.499C292.808 244.633 294.673 231.46 294.673 218.288L294.984 176.626L295.916 93.3031C295.295 66.3456 282.55 40.9198 261.414 23.7651C250.845 15.1877 238.412 8.75463 225.046 5.38494C211.369 1.70892 197.07 2.32159 183.083 1.40259L204.22 0.177246C207.639 0.177246 211.369 0.177246 214.788 0.483581L220.072 1.09625C221.937 1.09625 223.491 1.40259 225.356 2.01526C254.264 7.52929 279.442 25.6031 293.43 51.3352C300.579 64.2013 304.62 78.2927 305.241 92.9968C305.552 96.6728 305.552 100.043 305.552 103.719L305.863 114.134L306.174 134.965L306.485 176.626L306.796 218.288C306.796 232.686 304.62 247.39 300.579 261.175C296.227 275.266 289.7 288.439 280.996 300.079C272.293 312.026 261.414 322.135 248.669 330.1C235.925 338.065 221.316 342.966 206.395 344.498C202.665 344.804 198.935 344.804 195.205 345.111H184.637L163.5 344.804L121.226 343.885H115.942H113.145L110.347 343.579C106.617 343.273 102.576 342.354 99.1569 340.822C92.0076 338.065 85.7909 333.164 81.4392 327.037C79.2633 323.974 77.3983 320.604 76.1549 316.928C74.9116 313.558 73.9791 309.882 73.6683 306.206C73.3574 304.368 73.3574 302.53 73.3574 300.692V295.484L73.6683 285.069C74.6008 270.978 75.2224 256.886 75.8441 243.101Z" fill="#000222"/>
<path d="M108.171 314.783C128.065 313.558 148.269 312.639 168.163 311.72L183.083 311.107C185.569 311.107 188.056 311.107 190.543 310.801L197.692 310.188C207.017 308.963 216.342 306.206 224.735 301.611C241.52 293.034 254.264 278.636 261.414 261.481C264.833 252.904 266.698 244.02 267.009 234.83C267.319 232.686 267.009 229.929 267.009 227.478V220.126V205.422L267.319 146.299C267.63 126.694 267.941 106.782 268.252 87.1764L268.563 79.8244C268.563 77.3737 268.563 75.2294 268.252 72.7787C267.941 70.328 267.63 68.1837 267.319 66.0393C267.009 63.895 266.387 61.4443 265.765 59.2999C260.17 40.9198 246.493 25.9094 228.776 17.9447C219.761 13.9623 209.815 11.818 200.179 11.5117C202.665 11.2053 205.152 11.2053 207.639 11.2053C208.882 11.2053 210.126 11.2053 211.369 11.2053L215.099 11.5117C217.586 11.818 220.072 12.1243 222.559 12.737C225.046 13.3497 227.532 13.9623 230.019 14.8813C239.966 18.251 248.669 23.7651 256.129 30.8108C263.589 38.1628 269.495 47.0465 273.225 56.8493C274.158 59.2999 275.09 61.7506 275.712 64.2013C276.334 66.652 276.645 69.409 277.266 71.8597C277.888 74.3104 277.577 77.0674 277.888 79.8244L278.199 87.1764C278.82 106.782 278.82 126.694 279.131 146.299L279.442 205.422C279.442 215.225 279.442 225.027 279.131 235.136C278.82 245.858 276.645 256.273 272.293 266.076C263.9 285.682 248.358 301.305 229.087 310.495C219.451 315.09 209.193 317.541 198.625 318.46H190.854C188.367 318.46 185.88 318.46 183.394 318.153L168.473 317.54C147.958 316.928 128.065 316.315 108.171 314.783Z" fill="#000222"/>
</g>
<g clip-path="url(#clip1_254_2)">
<path d="M417.307 24.2026C416.905 31.5518 422.391 38.0993 428.947 41.4398C435.503 44.7804 442.996 45.5821 450.221 46.6511C457.447 47.7201 464.94 49.3235 470.827 53.7331C478.989 60.0133 482.2 70.703 484.073 80.8583C485.946 91.0135 487.017 101.703 492.636 110.389C497.721 118.406 506.15 123.751 514.713 127.893C523.276 132.035 532.241 135.376 540.269 140.721C559.938 153.816 570.909 178.937 566.895 202.187C567.163 187.756 554.05 174.928 541.473 167.712C528.896 160.497 514.446 157.424 500.798 152.48C487.15 147.669 473.369 140.32 466.144 127.76C459.588 116.535 459.052 102.238 451.158 91.9489C445.539 84.5997 436.841 80.1902 428.144 76.716C419.447 73.2418 410.349 70.5694 402.589 65.4918C394.694 60.5478 388.138 52.3968 387.871 43.0433C391.082 41.5735 394.159 39.3019 397.103 37.2976C403.659 33.0217 410.75 28.4785 417.307 24.2026Z" fill="#FF5B54"/>
<g opacity="0.2">
<path d="M428.011 76.8496C435.503 79.7893 442.996 83.5307 448.616 89.2764C449.686 88.6083 450.623 87.9402 451.559 87.1385C454.369 84.7333 456.376 81.2591 456.51 77.5177C456.644 73.7763 454.369 69.9013 451.024 68.565C450.489 64.5564 445.672 62.5521 441.658 62.9529C437.644 63.3538 433.898 65.0909 429.884 65.2245C422.926 65.4917 416.905 60.9486 410.884 57.6081C408.877 56.5391 406.603 55.4701 404.462 56.1382C401.652 57.0736 400.448 60.5477 400.582 63.621C400.582 63.8883 400.582 64.2891 400.715 64.5564C401.251 64.9573 401.92 65.3581 402.455 65.759C410.215 70.703 419.314 73.509 428.011 76.8496Z" fill="black"/>
<path d="M457.447 104.91C460.123 112.66 461.862 120.945 466.01 128.027C471.362 137.247 480.326 143.66 490.094 148.337C483.538 131.234 472.165 115.867 457.447 104.91Z" fill="black"/>
</g>
<path d="M496.383 220.894H476.714C474.707 220.894 473.101 219.29 473.101 217.286V205.26C473.101 203.256 474.707 201.652 476.714 201.652H496.383C498.39 201.652 499.995 203.256 499.995 205.26V217.286C499.995 219.157 498.256 220.894 496.383 220.894ZM476.982 216.885H495.847V205.661H476.982V216.885Z" fill="#7A4500"/>
<path d="M484.876 194.971C485.277 195.773 484.742 196.708 484.207 197.376C483.672 198.044 482.869 198.579 482.333 199.247C481.263 200.717 481.665 203.122 483.27 204.191C483.404 205.527 483.939 207.131 484.876 208.066C485.812 209.001 487.15 209.536 488.488 209.135C489.425 208.868 490.228 207.933 490.629 207.131C491.031 206.195 491.164 205.126 491.298 204.191C491.432 201.519 491.031 198.846 490.228 196.441C488.622 195.372 486.481 194.971 484.876 194.971Z" fill="#FFBF75"/>
<path d="M369.808 63.3538C369.139 62.8193 369.139 61.7503 369.272 60.9486C369.54 60.1469 369.941 59.3451 370.075 58.4098C370.343 56.5391 368.871 54.6684 366.998 54.4011C366.329 53.3322 365.125 52.1296 363.787 51.7287C362.582 51.3278 361.111 51.4615 360.174 52.3968C359.505 53.0649 359.237 54.1339 359.237 55.2029C359.237 56.2718 359.639 57.2072 360.04 58.1425C361.111 60.5477 362.582 62.8193 364.456 64.69C366.195 64.5564 368.336 63.8883 369.808 63.3538Z" fill="#FFBF75"/>
<path d="M398.307 235.325C414.497 229.847 430.151 221.963 444.334 212.743C443.665 200.984 436.841 189.226 427.342 182.144C411.687 193.101 396.166 204.458 381.047 216.217C381.047 216.217 366.998 226.506 375.026 246.416C383.99 269.399 393.624 292.248 403.926 314.696L414.363 312.692C411.821 295.188 405.532 277.683 397.37 261.916C398.441 253.097 398.708 244.278 398.307 235.325Z" fill="#284154"/>
<path d="M423.997 182.544C429.616 225.972 437.644 269.265 447.813 311.89H458.517C459.454 294.252 456.644 275.812 451.827 258.843C459.721 234.256 461.594 207.398 459.186 181.743C448.348 176.799 434.701 177.467 423.997 182.544Z" fill="#284154"/>
<path opacity="0.2" d="M459.052 181.743C448.348 176.799 434.701 177.467 423.997 182.544C424.131 183.213 424.131 183.747 424.264 184.415C420.652 186.954 417.039 189.493 413.427 192.165C427.074 201.786 443.264 207.799 459.855 209.803C460.257 200.316 459.989 190.963 459.052 181.743Z" fill="black"/>
<path d="M448.348 123.884C411.954 122.281 377.434 98.229 363.519 64.5564C364.857 62.2848 367.533 61.2158 370.075 60.8149C381.047 85.0005 407.539 102.906 434.032 101.035C438.848 107.048 445.538 116.669 448.348 123.884Z" fill="#284154"/>
<path d="M432.56 82.4617C425.602 85.9358 417.307 87.4057 409.814 85.0005C402.321 82.5953 396.032 75.9142 395.765 68.1641C395.631 65.0908 396.835 61.6167 399.645 60.6813C401.786 60.0132 404.061 61.0822 406.068 62.1511C412.089 65.6253 418.11 70.1685 425.067 69.7676C429.081 69.634 432.828 67.7633 436.842 67.496C440.856 67.2288 445.672 69.0995 446.208 73.1081C449.686 74.4443 451.827 78.453 451.693 82.0608C451.56 85.8022 449.553 89.2764 446.743 91.6816C443.933 94.0868 440.454 95.5566 436.842 96.6256C437.511 93.9531 436.975 90.3453 436.44 87.6729C435.905 85.0005 435.236 82.7289 432.56 82.4617Z" fill="#7A4500"/>
<path d="M429.884 102.371C415.701 129.63 408.476 160.363 409.011 190.963C429.75 196.976 453.7 196.575 474.172 190.027C469.489 168.648 461.728 146.199 456.778 124.953C455.44 119.208 453.968 113.328 450.355 108.652C446.743 103.975 435.37 100.501 429.884 102.371Z" fill="#284154"/>
<path d="M412.757 150.342C414.363 164.773 416.504 179.338 419.314 193.368C423.997 194.17 428.68 194.838 433.363 194.971C435.236 173.458 440.186 152.212 447.412 131.902C444.334 130.165 440.989 127.626 437.912 126.022C439.919 125.087 442.461 123.35 444.468 122.415C443.799 116.268 443.264 109.988 443.13 103.841C438.581 101.971 433.095 101.169 429.75 102.371C426.806 107.984 424.264 113.729 421.99 119.475C423.194 121.212 424.532 122.949 425.87 124.553C422.926 126.958 420.116 129.764 417.44 132.57C415.567 138.449 414.095 144.329 412.757 150.342Z" fill="#2F4D63"/>
<path d="M441.257 103.173C437.912 102.104 434.433 101.57 431.623 101.97C419.849 130.833 415.701 162.902 420.518 193.635C424.666 194.303 428.814 194.838 432.961 195.105C432.961 194.971 432.961 194.704 432.961 194.57C432.159 178.536 431.356 162.368 432.426 146.333C433.363 131.635 435.905 116.936 441.257 103.173Z" fill="white"/>
<path d="M433.229 93.686C432.827 97.6946 432.426 101.57 432.158 105.578C434.701 106.915 437.912 106.246 440.588 105.044C440.454 100.902 441.123 96.8929 441.123 92.7506C438.715 91.8153 435.37 92.617 433.229 93.686Z" fill="#FFBF75"/>
<path opacity="0.2" d="M433.229 93.6859C432.961 96.3584 432.694 99.0308 432.426 101.703C435.503 101.169 438.313 99.8325 440.855 97.8282C440.989 96.0911 441.123 94.354 440.989 92.617C438.715 91.8152 435.37 92.617 433.229 93.6859Z" fill="black"/>
<path d="M449.151 107.048C477.651 126.29 494.643 161.566 491.566 195.773C489.425 197.109 486.481 196.842 484.073 196.04C485.679 169.583 470.425 141.389 446.208 130.699C445.003 124.82 443.933 116.669 443.933 109.721C443.665 107.182 446.877 105.578 449.151 107.048Z" fill="#284154"/>
<path d="M427.609 81.5264C427.342 87.2721 428.412 92.8842 430.687 98.0955C435.236 98.7636 440.053 96.7593 442.862 93.1515C445.672 89.5437 446.341 84.3325 444.468 80.0566C442.996 76.4488 439.517 73.5091 435.503 73.2418C431.757 72.9746 427.877 77.5177 427.609 81.5264Z" fill="#FFBF75"/>
<path d="M425.201 83.9316C429.081 84.0652 433.095 83.1299 436.574 81.5264C437.51 82.3281 438.447 83.2635 439.384 83.9316C439.25 85.4014 439.116 86.8713 439.116 88.3411C439.517 88.3411 439.785 88.3411 440.186 88.3411C439.919 87.2722 440.053 86.0696 440.454 85.1342C440.588 84.7333 440.855 84.3325 441.257 84.1988C441.792 84.0652 442.193 84.3325 442.461 84.7333C442.729 85.1342 442.729 85.6687 442.729 86.2032C442.595 88.2075 441.792 90.2118 440.32 91.6817C440.454 92.7506 440.588 93.9532 440.722 95.0222C444.736 93.1515 447.545 89.2765 448.081 84.867C448.616 80.5911 447.01 76.0479 443.799 73.1082C442.06 71.5048 440.053 70.3022 437.778 69.7677C435.503 69.2332 433.095 69.3668 430.954 70.3022C428.546 71.3712 426.539 73.5091 425.468 76.0479C424.398 78.854 424.666 81.3928 425.201 83.9316Z" fill="#7A4500"/>
<path d="M515.115 256.17H457.848C455.306 256.17 453.165 254.032 453.165 251.493V216.752C453.165 214.213 455.306 212.075 457.848 212.075H515.115C517.657 212.075 519.798 214.213 519.798 216.752V251.493C519.798 254.166 517.657 256.17 515.115 256.17Z" fill="#7A4500"/>
<path d="M488.355 373.757C513.375 357.856 544.684 344.36 565.691 323.382L535.318 293.05C500.798 297.459 465.742 296.791 431.49 290.778C451.827 319.774 466.01 346.097 488.355 373.757Z" fill="white"/>
<path opacity="0.1" d="M454.771 293.985C472.432 318.171 494.376 339.149 519.129 355.852C508.558 361.865 497.988 367.611 488.355 373.757C466.01 346.097 451.961 319.774 431.49 290.778C439.116 291.981 446.877 293.05 454.771 293.985Z" fill="black"/>
<path d="M581.48 365.072C579.071 361.197 577.733 356.787 577.599 352.244C577.599 349.973 578.804 348.77 580.008 346.899C581.212 345.029 583.085 343.559 585.226 342.891C585.895 340.753 587.367 338.882 589.24 337.679C591.113 336.477 592.317 335.274 594.592 335.274C599.141 335.408 603.557 336.744 607.437 339.149C606.366 338.882 605.296 339.016 604.359 339.416C607.704 341.955 610.782 345.029 613.19 348.369C611.852 347.434 610.38 346.766 608.909 346.365C612.12 350.106 614.528 354.382 616 359.059C614.662 357.99 613.458 356.921 612.12 355.852C614.796 360.93 616 366.809 615.197 372.555L615.331 372.688H615.197V372.822L615.063 372.688C609.31 373.49 603.423 372.287 598.338 369.615C599.409 370.951 600.479 372.154 601.55 373.49C596.867 372.02 592.585 369.615 588.839 366.408C589.24 368.012 589.909 369.481 590.846 370.684C587.501 368.279 584.423 365.205 581.881 361.865C581.346 362.934 581.212 364.003 581.48 365.072Z" fill="#FFB453"/>
<path d="M582.282 358.925C580.543 356.119 579.473 352.912 579.473 349.572C579.473 347.835 580.275 347.033 581.212 345.697C582.149 344.36 583.487 343.291 584.958 342.757C585.494 341.153 586.564 339.817 587.902 339.016C589.374 338.08 590.177 337.278 591.782 337.278C595.127 337.412 598.339 338.347 601.148 340.085C600.346 339.951 599.543 339.951 598.874 340.352C601.282 342.222 603.557 344.36 605.296 346.899C604.359 346.231 603.289 345.697 602.085 345.429C604.359 348.102 606.099 351.309 607.303 354.649C606.366 353.848 605.43 353.179 604.493 352.378C606.5 356.119 607.303 360.395 606.768 364.537L606.902 364.671H606.768V364.805L606.634 364.671C602.486 365.205 598.205 364.404 594.458 362.399C595.261 363.335 595.93 364.27 596.733 365.205C593.388 364.136 590.177 362.266 587.501 359.994C587.768 361.063 588.303 362.266 588.972 363.201C586.43 361.464 584.289 359.192 582.416 356.787C582.149 357.322 582.149 358.123 582.282 358.925Z" fill="#FF8A53"/>
<path d="M584.289 356.119C582.951 353.981 582.148 351.576 582.148 349.037C582.148 347.835 582.817 347.167 583.486 346.098C584.155 345.029 585.092 344.227 586.296 343.826C586.698 342.623 587.5 341.688 588.571 341.02C589.641 340.352 590.31 339.684 591.514 339.684C594.057 339.684 596.465 340.485 598.606 341.822C598.071 341.688 597.402 341.688 596.866 341.955C598.74 343.292 600.345 345.029 601.683 346.899C601.014 346.365 600.211 346.098 599.275 345.83C601.014 347.835 602.352 350.24 603.155 352.779C602.486 352.244 601.817 351.576 601.014 351.042C602.486 353.848 603.155 357.055 602.754 360.128L602.887 360.261C602.887 360.261 602.887 360.261 602.754 360.261C602.754 360.261 602.754 360.261 602.754 360.395L602.62 360.261C599.542 360.662 596.197 360.128 593.521 358.524C594.057 359.193 594.726 359.861 595.261 360.662C592.719 359.861 590.31 358.524 588.303 356.787C588.571 357.589 588.838 358.391 589.374 359.193C587.5 357.856 585.895 356.253 584.423 354.382C584.155 354.917 584.155 355.585 584.289 356.119Z" fill="#FF6E53"/>
<path d="M505.749 296.524C491.031 274.877 517.122 248.687 538.798 263.519C545.354 268.062 551.91 273.407 558.199 279.688C569.705 291.179 594.458 319.774 599.944 331.934C596.599 337.011 592.853 341.688 588.437 346.098C584.022 350.507 579.205 354.382 574.255 357.589C562.213 352.244 533.446 327.391 521.939 315.899C515.65 309.752 510.298 303.205 505.749 296.524Z" fill="#FF5B54"/>
<path d="M513.375 271.136C516.988 269.131 520.6 268.062 524.079 268.062C527.558 268.062 530.769 269.399 533.579 271.269L543.213 277.817C546.424 279.955 549.769 282.226 553.382 284.231C551.375 280.623 548.698 277.416 545.889 274.61C543.079 271.67 539.868 269.131 536.523 266.86C534.649 265.657 532.642 264.588 530.368 264.054C528.093 263.519 525.819 263.386 523.544 263.787C519.262 264.722 515.382 267.528 513.375 271.136Z" fill="white"/>
<path opacity="0.1" d="M505.749 296.524C496.784 283.429 502.939 268.597 514.044 262.317C510.03 269.399 509.495 278.619 515.249 287.037C519.798 293.584 525.15 300.132 531.438 306.412C542.945 317.903 571.578 342.623 583.754 348.102C586.965 345.964 590.043 343.692 592.986 341.154C591.515 342.891 590.043 344.494 588.437 346.098C584.022 350.507 579.205 354.382 574.254 357.589C562.212 352.244 533.445 327.39 521.939 315.899C515.65 309.752 510.298 303.205 505.749 296.524Z" fill="black"/>
<path d="M441.391 420.525C425.469 445.512 411.955 476.78 390.948 497.758L360.575 467.426C364.991 432.952 364.322 397.943 358.301 363.736C387.335 384.18 413.694 398.344 441.391 420.525Z" fill="white"/>
<path opacity="0.2" d="M361.512 386.986C385.73 404.624 406.736 426.538 423.462 451.258C429.483 440.702 435.236 430.146 441.391 420.525C413.694 398.21 387.335 384.18 358.301 363.736C359.639 371.486 360.709 379.236 361.512 386.986Z" fill="black"/>
<path d="M406.87 539.582C404.462 535.707 403.124 531.297 402.99 526.754C402.99 524.483 404.194 523.28 405.398 521.409C406.603 519.539 408.476 518.069 410.617 517.401C411.286 515.263 412.757 513.392 414.631 512.189C416.504 510.987 417.708 509.784 419.983 509.784C424.532 509.918 428.947 511.254 432.827 513.659C431.757 513.392 430.687 513.526 429.75 513.926C433.095 516.465 436.172 519.539 438.581 522.879C437.243 521.944 435.771 521.276 434.299 520.875C437.51 524.616 439.919 528.892 441.391 533.569C440.053 532.5 438.848 531.431 437.51 530.362C440.186 535.44 441.391 541.319 440.588 547.065L440.722 547.198H440.588V547.332L440.454 547.198C434.701 548 428.813 546.797 423.729 544.125C424.799 545.461 425.87 546.664 426.94 548C422.257 546.53 417.976 544.125 414.229 540.918C414.631 542.522 415.3 543.991 416.236 545.194C412.891 542.789 409.814 539.715 407.272 536.375C406.603 537.444 406.603 538.513 406.87 539.582Z" fill="#FFB453"/>
<path d="M407.539 533.435C405.8 530.629 404.729 527.422 404.729 524.082C404.729 522.345 405.532 521.543 406.469 520.207C407.405 518.87 408.743 517.801 410.215 517.267C410.751 515.663 411.821 514.327 413.159 513.526C414.631 512.59 415.434 511.788 417.039 511.788C420.384 511.922 423.595 512.857 426.405 514.595C425.602 514.461 424.8 514.461 424.131 514.862C426.539 516.732 428.814 518.87 430.553 521.409C429.616 520.741 428.546 520.207 427.342 519.939C429.616 522.612 431.356 525.819 432.56 529.159C431.623 528.358 430.687 527.689 429.75 526.888C431.757 530.629 432.56 534.905 432.025 539.047L432.159 539.181H432.025V539.315L431.891 539.181C427.743 539.715 423.462 538.914 419.715 536.909C420.518 537.845 421.187 538.78 421.99 539.715C418.645 538.646 415.434 536.776 412.758 534.504C413.025 535.573 413.56 536.776 414.229 537.711C411.687 535.974 409.546 533.702 407.673 531.297C407.539 531.832 407.405 532.633 407.539 533.435Z" fill="#FF8A53"/>
<path d="M409.546 530.629C408.208 528.491 407.406 526.086 407.406 523.547C407.406 522.345 408.075 521.677 408.744 520.608C409.413 519.539 410.349 518.737 411.553 518.336C411.955 517.133 412.758 516.198 413.828 515.53C414.898 514.862 415.567 514.194 416.772 514.194C419.314 514.194 421.722 514.995 423.863 516.332C423.328 516.198 422.659 516.198 422.124 516.465C423.997 517.801 425.602 519.539 426.94 521.409C426.271 520.875 425.469 520.608 424.532 520.34C426.271 522.345 427.609 524.75 428.412 527.289C427.743 526.754 427.074 526.086 426.271 525.552C427.743 528.358 428.412 531.565 428.011 534.638L428.145 534.771C428.145 534.771 428.145 534.771 428.011 534.771C428.011 534.771 428.011 534.771 428.011 534.905L427.877 534.771C424.8 535.172 421.455 534.638 418.779 533.034C419.314 533.703 419.983 534.371 420.518 535.172C417.976 534.371 415.567 533.034 413.56 531.297C413.828 532.099 414.096 532.901 414.631 533.703C412.758 532.366 411.152 530.763 409.68 528.892C409.413 529.427 409.413 529.961 409.546 530.629Z" fill="#FF6E53"/>
<path d="M331.006 471.034C316.288 449.387 342.379 423.197 364.054 438.029C370.611 442.572 377.167 447.917 383.455 454.198C394.962 465.689 419.715 494.284 425.201 506.444C421.856 511.521 418.11 516.198 413.694 520.608C409.279 525.017 404.462 528.892 399.511 532.099C387.469 526.754 358.702 501.9 347.196 490.409C340.907 484.129 335.555 477.581 331.006 471.034Z" fill="#FF5B54"/>
<path d="M338.632 445.512C342.245 443.508 345.857 442.439 349.336 442.439C352.815 442.439 356.026 443.775 358.836 445.646L368.47 452.193C371.681 454.331 375.026 456.603 378.638 458.607C376.631 454.999 373.955 451.792 371.146 448.986C368.336 446.047 365.125 443.508 361.78 441.236C359.906 440.034 357.899 438.965 355.625 438.43C353.35 437.896 351.075 437.762 348.801 438.163C344.519 439.232 340.639 442.038 338.632 445.512Z" fill="white"/>
<path opacity="0.1" d="M331.006 471.034C322.041 457.939 328.196 443.107 339.301 436.827C335.287 443.909 334.752 453.129 340.505 461.547C345.055 468.094 350.407 474.642 356.695 480.922C368.202 492.413 396.835 517.133 409.011 522.612C412.222 520.474 415.3 518.202 418.243 515.664C416.771 517.401 415.3 519.004 413.694 520.608C409.279 525.017 404.462 528.892 399.511 532.099C387.469 526.754 358.702 501.901 347.195 490.409C340.907 484.129 335.555 477.581 331.006 471.034Z" fill="black"/>
<path d="M478.721 467.025C473.637 459.008 470.693 449.654 470.425 440.167C470.292 435.357 472.834 432.952 475.51 428.943C478.052 424.934 481.932 421.861 486.348 420.391C487.819 415.982 490.897 412.107 494.911 409.568C498.925 407.029 501.467 404.357 506.15 404.49C515.65 404.757 525.016 407.563 533.044 412.775C530.903 412.24 528.629 412.507 526.622 413.443C533.713 418.788 540.002 425.068 545.086 432.15C542.276 430.279 539.199 428.809 535.988 428.008C542.544 435.758 547.628 444.844 550.839 454.598C548.163 452.46 545.487 450.189 542.811 448.051C548.565 458.607 550.839 471.034 549.234 482.926L549.501 483.193C549.368 483.193 549.234 483.193 549.1 483.193C549.1 483.327 549.1 483.461 549.1 483.594L548.832 483.327C536.924 484.93 524.481 482.525 513.911 476.913C516.051 479.586 518.326 482.258 520.467 484.93C510.699 481.724 501.601 476.646 493.841 470.098C494.643 473.305 496.115 476.379 497.988 479.185C490.897 473.973 484.475 467.693 479.256 460.745C478.453 462.482 478.186 464.887 478.721 467.025Z" fill="#FFB453"/>
<path d="M480.46 454.064C476.714 448.185 474.573 441.37 474.439 434.421C474.306 430.947 476.179 429.077 478.186 426.137C480.059 423.197 482.869 421.059 486.08 419.857C487.15 416.65 489.425 413.844 492.369 411.973C495.312 410.102 497.052 408.232 500.664 408.232C507.622 408.365 514.446 410.503 520.333 414.245C518.727 413.844 517.122 413.977 515.65 414.645C520.868 418.52 525.417 423.197 529.164 428.408C527.157 427.072 524.882 426.003 522.474 425.335C527.29 431.081 531.037 437.628 533.311 444.71C531.304 443.107 529.431 441.503 527.424 439.9C531.572 447.65 533.311 456.736 532.107 465.422L532.375 465.689C532.241 465.689 532.241 465.689 532.107 465.689C532.107 465.823 532.107 465.823 532.107 465.956L531.84 465.689C523.143 466.758 514.044 465.154 506.284 461.012C507.889 463.017 509.495 464.887 511.101 466.892C504.009 464.62 497.319 460.879 491.7 456.068C492.369 458.473 493.305 460.745 494.777 462.749C489.559 459.008 484.876 454.331 480.996 449.253C480.193 450.723 480.059 452.46 480.46 454.064Z" fill="#FF8A53"/>
<path d="M484.474 448.184C481.665 443.775 480.059 438.697 479.925 433.486C479.791 430.814 481.263 429.477 482.735 427.339C484.073 425.202 486.214 423.464 488.622 422.663C489.425 420.258 491.164 418.12 493.305 416.783C495.58 415.314 496.918 413.977 499.46 413.977C504.678 414.111 509.763 415.714 514.178 418.52C512.974 418.253 511.77 418.387 510.699 418.921C514.579 421.861 518.058 425.335 520.868 429.21C519.396 428.141 517.657 427.339 515.917 426.939C519.53 431.214 522.34 436.159 524.079 441.503C522.608 440.301 521.136 439.098 519.664 437.896C522.741 443.641 524.079 450.456 523.276 457.003L523.41 457.137C523.277 457.137 523.276 457.137 523.143 457.137C523.143 457.271 523.143 457.271 523.143 457.404L523.009 457.271C516.453 458.072 509.629 456.87 503.875 453.663C505.08 455.133 506.284 456.603 507.488 458.072C502.136 456.335 497.185 453.529 492.904 449.922C493.305 451.659 494.108 453.396 495.178 454.866C491.298 452.06 487.819 448.585 484.876 444.71C484.341 445.779 484.207 446.982 484.474 448.184Z" fill="#FF6E53"/>
<path d="M309.464 244.01C342.512 239.334 390.011 260.179 429.884 299.998C450.221 320.308 502.671 379.637 512.305 401.016C506.418 409.835 499.728 418.387 491.833 426.137C484.073 433.887 475.644 440.702 466.679 446.581C445.271 436.96 385.864 384.581 365.526 364.27C325.52 324.451 304.647 277.015 309.464 244.01Z" fill="white"/>
<path opacity="0.3" d="M309.464 244.01C342.512 239.334 390.011 260.179 429.884 299.998C450.221 320.308 502.671 379.637 512.305 401.016C506.418 409.835 499.728 418.387 491.833 426.137C484.073 433.887 475.644 440.702 466.679 446.581C445.271 436.96 385.864 384.581 365.526 364.27C325.52 324.451 304.647 277.015 309.464 244.01Z" fill="black"/>
<path opacity="0.3" d="M403.793 384.046C406.469 375.094 411.687 367.21 417.173 359.727C422.391 352.511 428.144 345.296 436.039 341.287C442.729 337.813 480.46 367.477 494.242 374.158C497.854 378.835 501.199 383.378 504.009 387.52C502.136 394.602 499.059 401.417 495.178 407.564C489.157 417.051 481.664 425.335 474.038 433.753C475.777 435.223 477.517 436.426 479.39 437.495C477.383 439.098 475.242 440.835 473.101 442.305C473.101 442.305 472.967 442.305 472.967 442.439C471.897 443.241 470.96 443.909 469.89 444.577C468.82 445.379 467.749 446.047 466.679 446.715C459.587 443.508 448.348 435.624 435.771 425.87C426.539 413.577 402.99 386.719 403.793 384.046Z" fill="black"/>
<path d="M253.803 188.557C296.886 182.411 358.836 209.67 410.884 261.649C437.51 288.239 494.643 354.248 507.087 382.175C499.46 393.8 490.629 404.757 480.46 414.913C470.292 425.068 459.32 434.021 447.679 441.503C419.849 428.943 353.618 371.886 326.992 345.429C274.943 293.45 247.648 231.584 253.803 188.557Z" fill="white"/>
<path d="M280.83 218.355C290.063 209.135 301.168 201.786 313.21 196.842C322.041 200.049 331.006 203.924 339.97 208.734C324.316 213.678 309.464 222.23 297.02 234.657C285.915 245.747 277.887 258.575 272.802 272.338C268.253 263.386 264.373 254.433 261.429 245.747C266.246 235.726 272.669 226.372 280.83 218.355Z" fill="#FF6E53"/>
<path d="M256.211 227.709C253 213.678 252.197 200.45 253.937 188.557C266.112 186.82 279.894 187.756 294.478 191.23C286.049 196.04 278.288 202.053 271.331 208.868C265.577 214.614 260.493 220.894 256.211 227.709Z" fill="#FF5B54"/>
<path opacity="0.1" d="M253.669 190.562C269.859 233.855 304.379 285.3 352.146 333.003C376.096 356.921 438.046 414.512 462.264 431.081C457.581 434.822 452.764 438.297 447.679 441.504C419.849 428.943 353.618 371.887 326.992 345.429C275.746 294.252 248.585 233.588 253.669 190.562Z" fill="black"/>
<path d="M357.145 292.017C369.424 279.755 369.424 259.873 357.145 247.61C344.866 235.347 324.957 235.347 312.678 247.61C300.399 259.873 300.399 279.755 312.678 292.017C324.957 304.28 344.866 304.28 357.145 292.017Z" fill="#A6F6FF"/>
<g opacity="0.3">
<path d="M307.724 253.898H362.047C365.392 259.644 366.73 266.192 366.195 272.472H303.576C303.041 266.192 304.379 259.644 307.724 253.898Z" fill="white"/>
<path d="M309.196 287.972C306.52 284.231 304.781 280.222 303.978 275.946H365.66C364.857 280.222 363.117 284.364 360.441 287.972H309.196Z" fill="white"/>
</g>
<path opacity="0.1" d="M312.675 247.618C321.104 239.2 333.28 236.528 344.118 239.735C337.428 240.536 330.872 243.476 325.653 248.687C313.344 260.98 313.344 280.89 325.653 293.183C329.4 296.925 333.949 299.597 338.766 301.067C329.534 302.136 319.766 299.196 312.675 292.114C300.365 279.687 300.365 259.778 312.675 247.618Z" fill="black"/>
<path d="M309.33 295.321C295.147 281.157 295.147 258.174 309.33 244.144C323.513 229.98 346.526 229.98 360.575 244.144C374.758 258.308 374.758 281.291 360.575 295.321C346.392 309.351 323.379 309.485 309.33 295.321ZM316.02 288.64C326.456 299.063 343.315 299.063 353.751 288.64C364.188 278.218 364.188 261.381 353.751 250.959C343.315 240.536 326.456 240.536 316.02 250.959C305.717 261.381 305.717 278.218 316.02 288.64Z" fill="#FF5B54"/>
<path d="M412.537 347.338C424.816 335.075 424.816 315.193 412.537 302.93C400.258 290.668 380.35 290.668 368.071 302.93C355.791 315.193 355.791 335.075 368.071 347.338C380.35 359.601 400.258 359.601 412.537 347.338Z" fill="#A6F6FF"/>
<g opacity="0.3">
<path d="M363.118 309.218H417.44C420.785 314.964 422.123 321.511 421.588 327.791H358.97C358.435 321.511 359.773 314.964 363.118 309.218Z" fill="white"/>
<path d="M364.589 343.291C361.913 339.55 360.174 335.541 359.371 331.266H421.053C420.25 335.541 418.511 339.684 415.835 343.291H364.589Z" fill="white"/>
</g>
<path opacity="0.1" d="M368.068 302.938C376.498 294.519 388.673 291.847 399.511 295.054C392.821 295.856 386.265 298.795 381.047 304.007C368.737 316.3 368.737 336.209 381.047 348.503C384.793 352.244 389.342 354.916 394.159 356.386C384.927 357.455 375.16 354.516 368.068 347.434C355.759 335.007 355.759 315.097 368.068 302.938Z" fill="black"/>
<path d="M364.723 350.641C350.54 336.477 350.54 313.494 364.723 299.463C378.906 285.433 401.92 285.299 415.969 299.463C430.152 313.627 430.152 336.61 415.969 350.641C401.786 364.804 378.772 364.804 364.723 350.641ZM371.413 343.959C381.85 354.382 398.709 354.382 409.145 343.959C419.581 333.537 419.581 316.701 409.145 306.278C398.709 295.856 381.85 295.856 371.413 306.278C361.111 316.701 361.111 333.537 371.413 343.959Z" fill="#FF5B54"/>
<path d="M348.801 65.8926C348.4 65.8926 347.864 65.6254 347.597 65.2245C347.195 64.5564 347.463 63.7547 348.132 63.3538L417.842 23.1337C418.511 22.7328 419.314 23 419.715 23.6681C420.117 24.3363 419.849 25.138 419.18 25.5389L349.47 65.759C349.336 65.759 349.069 65.8926 348.801 65.8926Z" fill="#7A4500"/>
<path d="M366.998 57.2073C367.399 56.8064 367.265 56.2719 367.132 55.7374C366.864 54.9357 366.73 54.2676 366.463 53.4659C365.794 52.6641 364.857 51.996 363.92 51.5951C362.716 51.1943 361.244 51.3279 360.308 52.2633C359.639 52.9314 359.371 54.0003 359.371 55.0693C359.371 55.7374 359.639 56.4055 359.772 57.0736C360.04 57.6081 360.441 58.1426 360.843 58.5435C361.378 59.078 362.047 59.3452 362.716 59.078C363.519 58.8107 364.054 57.7418 364.857 57.4745C365.66 57.3409 366.463 57.7418 366.998 57.2073Z" fill="#FFBF75"/>
</g>
<defs>
<clipPath id="clip0_254_2">
<rect width="327" height="385.063" fill="white" transform="translate(0 0.177246)"/>
</clipPath>
<clipPath id="clip1_254_2">
<rect width="363" height="525" fill="white" transform="translate(253 23)"/>
</clipPath>
</defs>
</svg>
