<svg width="327" height="386" viewBox="0 0 327 386" fill="none" xmlns="http://www.w3.org/2000/svg">
<g opacity="0.09" clip-path="url(#clip0_162_1589)">
<path d="M29.5294 207.566C27.0427 207.566 24.8669 205.422 24.8669 202.971C24.8669 201.133 25.7994 199.601 27.3536 198.989L61.5456 181.221C69.3165 177.239 78.3308 177.239 86.1017 181.221L106.306 191.637L102.576 169.581C101.022 161.003 103.819 152.426 110.036 146.605L126.2 130.982L103.819 127.919C95.1159 126.694 87.6558 121.486 83.9258 113.521L73.979 93.6095L63.7214 113.521C59.9914 121.18 52.5313 126.387 43.8279 127.919L5.28418 133.433C2.79749 133.739 0.310794 131.901 -4.23901e-05 129.451C-0.310879 127 1.55414 124.549 4.04083 124.243L42.5846 118.729C48.1796 117.81 52.8422 114.44 55.3288 109.539L69.6273 81.0497C70.8707 78.9054 73.6682 77.9864 75.8441 78.9054C76.7766 79.2117 77.3982 80.1307 78.0199 81.0497L92.3184 109.539C94.8051 114.44 99.7785 117.81 105.063 118.729L136.768 123.018C139.255 123.324 141.12 125.775 140.809 128.225C140.809 129.144 140.187 130.063 139.566 130.982L116.564 153.039C112.523 157.021 110.658 162.535 111.59 168.049L117.185 199.295C117.496 201.746 115.942 204.196 113.455 204.503C112.523 204.809 111.59 204.503 110.658 204.196L82.0608 189.492C77.0874 187.042 71.1815 187.042 66.2081 189.492L32.0161 207.26C31.0836 207.566 30.4619 207.566 29.5294 207.566Z" fill="#FF5B54"/>
<path d="M141.431 244.02C140.809 244.02 139.876 243.714 139.255 243.407L73.9791 209.71L8.70339 243.407C6.52754 244.633 3.73001 243.714 2.48666 241.569C1.86499 240.65 1.86499 239.731 1.86499 238.506L6.2167 213.08C6.52754 210.629 9.01423 208.791 11.8118 209.404C14.2984 209.71 16.1635 212.161 15.5418 214.918L12.7443 231.154L71.8032 200.52C73.0465 199.908 74.9116 199.908 76.1549 200.52L135.214 231.154L123.713 166.211C123.402 164.679 124.024 163.148 124.956 162.229L172.825 116.278L106.617 106.782C105.063 106.476 103.819 105.557 103.198 104.331L73.6682 45.2085L44.1388 104.331C43.5171 105.557 42.2737 106.476 40.7196 106.782L17.4068 110.152C14.9201 110.458 12.4334 108.62 12.1226 106.169C11.8118 103.718 13.6768 101.268 16.1635 100.961L36.9895 97.8981L69.6273 32.9551C70.5599 31.4234 72.114 30.5044 73.6682 30.5044C75.5332 30.5044 77.0874 31.4234 77.7091 32.9551L110.347 98.2045L183.394 108.62C185.88 108.926 187.745 111.377 187.434 113.828C187.434 114.747 186.813 115.666 186.191 116.585L133.349 167.436L145.782 239.119C146.093 241.569 144.539 244.02 142.052 244.326C141.741 244.02 141.741 244.02 141.431 244.02Z" fill="#FF5B54"/>
<path d="M43.2062 246.471L41.652 306.512L40.7195 336.533C40.7195 338.984 40.7195 341.435 40.7195 343.579L41.0303 346.949L41.9628 350.318C45.6929 364.103 56.5721 375.132 70.5598 379.42C72.7356 380.033 75.2223 380.646 77.709 380.952C80.1957 381.258 82.3716 381.258 85.1691 381.258L100.4 381.565L161.324 383.096L100.4 384.628L85.1691 384.934C82.6824 384.934 79.8849 384.934 77.3982 384.934C74.6007 384.628 72.114 384.322 69.6273 383.709C59.0588 381.258 49.7337 375.132 43.2062 366.554C39.787 362.265 37.3003 357.364 35.7461 352.156C35.4353 350.931 34.8136 349.706 34.5027 348.174L33.8811 344.192C33.5702 341.435 33.2594 338.678 33.2594 336.227L32.3269 306.206L30.7727 246.471C30.7727 243.101 33.2594 240.344 36.9894 240.038C40.4086 240.038 43.2062 242.488 43.2062 246.164V246.471Z" fill="#000222"/>
<path d="M58.7482 314.783C59.0591 319.379 59.3699 323.974 59.9916 328.262C60.9241 332.551 62.4783 336.533 64.6541 340.209C66.83 343.885 69.9383 346.949 73.3575 349.706C80.1959 354.913 88.2777 358.283 96.6703 359.202C98.8461 359.508 100.711 359.508 102.887 359.508L109.725 359.202C118.74 358.896 128.065 358.589 137.079 358.283C155.418 357.67 173.758 357.67 192.097 357.364C196.76 357.364 201.422 357.364 205.463 357.058L211.991 356.751C214.166 356.445 216.342 356.139 218.518 355.832C220.694 355.526 222.87 355.22 225.046 354.607L231.262 353.075C235.614 351.85 239.655 350.625 243.696 349.093C259.859 342.966 274.469 333.164 286.591 320.604C298.714 308.044 307.728 293.034 313.634 276.798L315.499 270.671C316.121 268.527 316.743 266.383 317.053 264.238L318.297 257.805L318.918 254.742L319.229 251.372C320.162 242.795 320.162 233.605 320.783 224.721C321.716 206.647 322.338 188.573 323.892 170.5C325.135 188.573 326.068 206.647 327 224.721C327.311 233.911 327.933 242.488 327.622 251.985V255.354L327.311 258.724L326.378 265.77C326.068 268.221 325.446 270.365 325.135 272.509L323.581 279.249C312.702 316.009 285.348 346.03 249.291 360.427C244.939 362.265 240.277 363.491 235.614 364.716L228.465 366.554C225.978 367.167 223.802 367.473 221.316 367.779C218.829 368.086 216.653 368.392 214.166 368.699L207.017 369.005C202.044 369.311 197.692 369.311 193.03 369.005C174.69 368.698 156.351 368.698 138.012 368.086C128.997 367.779 119.672 367.779 110.658 367.167L103.82 366.86C101.333 366.86 98.8461 366.554 96.3594 365.941C91.3861 365.022 86.7235 363.491 82.3718 361.346C73.6684 357.058 66.5191 350.012 62.1674 341.435C59.9916 337.146 58.7482 332.551 58.4374 327.956C57.8157 323.667 58.4374 319.379 58.7482 314.783Z" fill="#000222"/>
<path d="M75.8441 243.101C76.4658 256.886 77.0875 270.978 77.3983 284.763L77.7091 295.178V300.386C77.7091 301.917 78.02 303.755 78.3308 305.287C79.2633 311.72 82.0608 317.847 86.1017 322.748C90.1426 327.65 95.4268 331.632 101.644 333.776C104.752 335.002 107.86 335.614 110.969 335.614H113.455H115.942H121.226L163.5 334.695L184.637 334.389H195.827C199.246 334.083 202.355 333.776 205.774 333.776C219.14 332.245 231.573 327.65 242.763 320.297C265.144 306.206 281.307 282.925 288.767 257.499C292.808 244.633 294.673 231.46 294.673 218.288L294.984 176.626L295.916 93.3031C295.295 66.3456 282.55 40.9198 261.414 23.7651C250.845 15.1877 238.412 8.75463 225.046 5.38494C211.369 1.70892 197.07 2.32159 183.083 1.40259L204.22 0.177246C207.639 0.177246 211.369 0.177246 214.788 0.483581L220.072 1.09625C221.937 1.09625 223.491 1.40259 225.356 2.01526C254.264 7.52929 279.442 25.6031 293.43 51.3352C300.579 64.2013 304.62 78.2927 305.241 92.9968C305.552 96.6728 305.552 100.043 305.552 103.719L305.863 114.134L306.174 134.965L306.485 176.626L306.796 218.288C306.796 232.686 304.62 247.39 300.579 261.175C296.227 275.266 289.7 288.439 280.996 300.079C272.293 312.026 261.414 322.135 248.669 330.1C235.925 338.065 221.316 342.966 206.395 344.498C202.665 344.804 198.935 344.804 195.205 345.111H184.637L163.5 344.804L121.226 343.885H115.942H113.145L110.347 343.579C106.617 343.273 102.576 342.354 99.1569 340.822C92.0076 338.065 85.7909 333.164 81.4392 327.037C79.2633 323.974 77.3983 320.604 76.1549 316.928C74.9116 313.558 73.9791 309.882 73.6683 306.206C73.3574 304.368 73.3574 302.53 73.3574 300.692V295.484L73.6683 285.069C74.6008 270.978 75.2224 256.886 75.8441 243.101Z" fill="#000222"/>
<path d="M108.171 314.783C128.065 313.558 148.269 312.639 168.163 311.72L183.083 311.107C185.569 311.107 188.056 311.107 190.543 310.801L197.692 310.188C207.017 308.963 216.342 306.206 224.735 301.611C241.52 293.034 254.264 278.636 261.414 261.481C264.833 252.904 266.698 244.02 267.009 234.83C267.319 232.686 267.009 229.929 267.009 227.478V220.126V205.422L267.319 146.299C267.63 126.694 267.941 106.782 268.252 87.1764L268.563 79.8244C268.563 77.3737 268.563 75.2294 268.252 72.7787C267.941 70.328 267.63 68.1837 267.319 66.0393C267.009 63.895 266.387 61.4443 265.765 59.2999C260.17 40.9198 246.493 25.9094 228.776 17.9447C219.761 13.9623 209.815 11.818 200.179 11.5117C202.665 11.2053 205.152 11.2053 207.639 11.2053C208.882 11.2053 210.126 11.2053 211.369 11.2053L215.099 11.5117C217.586 11.818 220.072 12.1243 222.559 12.737C225.046 13.3497 227.532 13.9623 230.019 14.8813C239.966 18.251 248.669 23.7651 256.129 30.8108C263.589 38.1628 269.495 47.0465 273.225 56.8493C274.158 59.2999 275.09 61.7506 275.712 64.2013C276.334 66.652 276.645 69.409 277.266 71.8597C277.888 74.3104 277.577 77.0674 277.888 79.8244L278.199 87.1764C278.82 106.782 278.82 126.694 279.131 146.299L279.442 205.422C279.442 215.225 279.442 225.027 279.131 235.136C278.82 245.858 276.645 256.273 272.293 266.076C263.9 285.682 248.358 301.305 229.087 310.495C219.451 315.09 209.193 317.541 198.625 318.46H190.854C188.367 318.46 185.88 318.46 183.394 318.153L168.473 317.54C147.958 316.928 128.065 316.315 108.171 314.783Z" fill="#000222"/>
</g>
<defs>
<clipPath id="clip0_162_1589">
<rect width="327" height="385.063" fill="white" transform="translate(0 0.177246)"/>
</clipPath>
</defs>
</svg>
