<svg width="118" height="118" viewBox="0 0 118 118" fill="none" xmlns="http://www.w3.org/2000/svg">
<g clip-path="url(#clip0_162_1565)">
<path d="M21.6334 2.9502H96.3668C108.29 2.9502 118 12.6605 118 24.5836V96.367C118 108.29 108.29 118 96.3668 118H21.6334C9.71057 118 0 108.29 0 96.367V24.5836C0.000230469 12.6605 9.71057 2.9502 21.6334 2.9502Z" fill="#FF26BE"/>
<path d="M22.6165 7.8667H95.3831C105.216 7.8667 113.083 15.7333 113.083 25.5667V95.3833C113.083 105.217 105.216 113.083 95.3831 113.083H22.6165C12.7831 113.083 4.9165 105.217 4.9165 95.3833V25.5667C4.9165 15.7335 12.7831 7.8667 22.6165 7.8667Z" fill="#2E001F"/>
<path d="M47.3105 59.3042L61.1481 86.139C61.3952 86.5343 61.247 86.9298 60.8515 86.9298H52.2029C51.7482 86.9899 51.314 86.7212 51.1651 86.2872C48.0022 79.7638 44.7735 72.9933 41.4788 65.9755H41.4294C38.4642 72.5978 35.252 79.8131 32.0397 86.3365C31.8777 86.6785 31.5283 86.892 31.1501 86.8802H22.9465C22.4524 86.8802 22.4029 86.4849 22.6499 86.1883L36.2404 60.144L23.1443 34.1985C22.9723 34.0328 22.9673 33.759 23.133 33.5871C23.2256 33.491 23.3575 33.443 23.4902 33.4573H31.9904C32.4845 33.4573 32.7315 33.5562 32.88 34.001C35.9934 40.6233 39.1068 47.0971 42.072 53.7194H42.1709C45.0372 47.196 48.2002 40.6233 51.2147 34.1492C51.4617 33.7539 51.6099 33.5066 52.1043 33.5066H60.061C60.4562 33.5066 60.6047 33.8032 60.3576 34.2478L47.3105 59.3042ZM64.1626 67.3102C64.1626 55.7953 71.5757 46.801 83.7329 46.801C84.5907 46.7837 85.4487 46.8167 86.3026 46.8999V34.0508C86.3026 33.7779 86.5239 33.5566 86.7968 33.5566H94.7535C95.1487 33.5566 95.2476 33.7048 95.2476 33.9519V79.1217C95.2185 80.7398 95.3011 82.3582 95.4946 83.9648C95.4946 84.3107 95.4946 84.36 95.198 84.5084C91.2464 86.3925 86.9244 87.3718 82.5464 87.3748C71.8227 87.3746 64.1626 80.7523 64.1626 67.3102ZM86.3029 54.6586C85.3944 54.2885 84.4165 54.12 83.4365 54.1645C77.259 54.1645 73.0583 58.9582 73.0583 66.9147C73.0583 76.0078 77.3084 79.6649 82.8433 79.6649C84.0039 79.6974 85.1604 79.513 86.2533 79.1212V54.6586H86.3029Z" fill="white"/>
<path opacity="0.15" d="M47.3105 59.3042L61.1481 86.139C61.3952 86.5343 61.247 86.9298 60.8515 86.9298H52.2029C51.7482 86.9899 51.314 86.7212 51.1651 86.2872C48.0022 79.7638 44.7735 72.9933 41.4788 65.9755H41.4294C38.4642 72.5978 35.252 79.8131 32.0397 86.3365C31.8777 86.6785 31.5283 86.892 31.1501 86.8802H22.9465C22.4524 86.8802 22.4029 86.4849 22.6499 86.1883L36.2404 60.144L23.1443 34.1985C22.9723 34.0328 22.9673 33.759 23.133 33.5871C23.2256 33.491 23.3575 33.443 23.4902 33.4573H31.9904C32.4845 33.4573 32.7315 33.5562 32.88 34.001C35.9934 40.6233 39.1068 47.0971 42.072 53.7194H42.1709C45.0372 47.196 48.2002 40.6233 51.2147 34.1492C51.4617 33.7539 51.6099 33.5066 52.1043 33.5066H60.061C60.4562 33.5066 60.6047 33.8032 60.3576 34.2478L47.3105 59.3042ZM64.1626 67.3102C64.1626 55.7953 71.5757 46.801 83.7329 46.801C84.5907 46.7837 85.4487 46.8167 86.3026 46.8999V34.0508C86.3026 33.7779 86.5239 33.5566 86.7968 33.5566H94.7535C95.1487 33.5566 95.2476 33.7048 95.2476 33.9519V79.1217C95.2185 80.7398 95.3011 82.3582 95.4946 83.9648C95.4946 84.3107 95.4946 84.36 95.198 84.5084C91.2464 86.3925 86.9244 87.3718 82.5464 87.3748C71.8227 87.3746 64.1626 80.7523 64.1626 67.3102ZM86.3029 54.6586C85.3944 54.2885 84.4165 54.12 83.4365 54.1645C77.259 54.1645 73.0583 58.9582 73.0583 66.9147C73.0583 76.0078 77.3084 79.6649 82.8433 79.6649C84.0039 79.6974 85.1604 79.513 86.2533 79.1212V54.6586H86.3029Z" fill="#FF26BE"/>
</g>
<defs>
<clipPath id="clip0_162_1565">
<rect width="118" height="118" fill="white"/>
</clipPath>
</defs>
</svg>
