<svg width="132" height="132" viewBox="0 0 132 132" fill="none" xmlns="http://www.w3.org/2000/svg">
<path d="M105.532 6.75269H25.7436C13.8796 6.75269 4.26196 16.3703 4.26196 28.2343V103.931C4.26196 115.795 13.8796 125.413 25.7436 125.413H105.532C117.396 125.413 127.014 115.795 127.014 103.931V28.2343C127.014 16.3703 117.396 6.75269 105.532 6.75269Z" fill="#330000"/>
<path d="M66.0421 80.4039H47.7367L43.0107 94.0498C42.9562 94.4999 42.6715 94.7249 42.1566 94.7249H33.5639C32.9911 94.7249 32.7916 94.4436 32.9655 93.881L49.5473 44.6318C50.0156 43.1323 50.2468 41.5688 50.2327 39.998C50.2234 39.9286 50.2302 39.858 50.2527 39.7918C50.2751 39.7255 50.3125 39.6653 50.362 39.6158C50.4115 39.5663 50.4717 39.5289 50.5379 39.5065C50.6042 39.4841 50.6748 39.4772 50.7441 39.4865H62.7738C63.1216 39.4865 63.3211 39.6297 63.3774 39.9059L81.9334 93.968C82.1073 94.4794 81.9641 94.7249 81.5038 94.7249H71.8831C71.7051 94.7356 71.528 94.6925 71.3748 94.6013C71.2216 94.5101 71.0993 94.375 71.0238 94.2135L66.0421 80.4039ZM49.7826 71.1975H64.0423C63.6996 70.4456 57.2858 49.7516 56.8255 48.0075H56.7436L49.7826 71.1975ZM92.1883 49.7158C91.3818 49.7503 90.5766 49.6228 89.8202 49.3408C89.0639 49.0588 88.3717 48.6281 87.7846 48.074C87.2101 47.4899 86.7633 46.7927 86.4727 46.0266C86.1822 45.2606 86.0541 44.4425 86.0967 43.6243C86.0587 42.7957 86.1931 41.9682 86.4916 41.1943C86.7901 40.4204 87.246 39.7169 87.8306 39.1285C88.4226 38.565 89.1211 38.1255 89.8853 37.8357C90.6494 37.5459 91.4637 37.4115 92.2804 37.4406C93.0986 37.398 93.9167 37.526 94.6828 37.8166C95.4488 38.1072 96.146 38.5539 96.7301 39.1285C97.2893 39.7308 97.7225 40.4388 98.0045 41.2108C98.2864 41.9828 98.4113 42.8033 98.372 43.6243C98.4146 44.4425 98.2865 45.2606 97.996 46.0266C97.7054 46.7927 97.2586 47.4899 96.6841 48.074C96.0818 48.6332 95.3738 49.0664 94.6018 49.3483C93.8298 49.6303 93.0093 49.7552 92.1883 49.7158ZM87.1197 93.9577V54.4929C87.1059 54.3997 87.1141 54.3046 87.1437 54.2152C87.1732 54.1257 87.2233 54.0445 87.2899 53.9778C87.3566 53.9112 87.4378 53.8611 87.5273 53.8316C87.6167 53.802 87.7119 53.7938 87.805 53.8076H96.6637C96.7566 53.7949 96.8513 53.8039 96.9402 53.8338C97.0292 53.8638 97.11 53.9139 97.1763 53.9802C97.2427 54.0466 97.2928 54.1274 97.3228 54.2163C97.3527 54.3053 97.3617 54.3999 97.349 54.4929V94.0396C97.3628 94.1328 97.3546 94.2279 97.325 94.3173C97.2955 94.4068 97.2454 94.4881 97.1788 94.5547C97.1121 94.6213 97.0309 94.6714 96.9414 94.701C96.852 94.7305 96.7568 94.7387 96.6637 94.7249H87.8869C87.7827 94.7394 87.6767 94.7295 87.577 94.696C87.4774 94.6626 87.3868 94.6065 87.3125 94.5322C87.2381 94.4578 87.182 94.3673 87.1486 94.2676C87.1151 94.1679 87.1052 94.0619 87.1197 93.9577Z" fill="#FF9A00"/>
</svg>
