<svg width="122" height="122" viewBox="0 0 122 122" fill="none" xmlns="http://www.w3.org/2000/svg">
<g clip-path="url(#clip0_162_1578)">
<path d="M22.7588 3.89258H99.4239C111.338 3.89258 121.086 13.6406 121.086 25.5548V99.6211C121.086 111.535 111.338 121.283 99.4239 121.283H22.3475C10.4333 121.283 0.685303 111.535 0.685303 99.6209V25.9661C0.685303 13.8005 10.5934 3.89258 22.7588 3.89258Z" fill="#00C8FF"/>
<path d="M23.762 8.90918H98.4202C108.167 8.90918 116.069 16.8107 116.069 26.558V98.6175C116.069 108.365 108.167 116.266 98.4202 116.266H23.3507C13.6034 116.266 5.7019 108.365 5.7019 98.6175V26.9693C5.7019 16.936 13.7285 8.90918 23.762 8.90918Z" fill="#001D26"/>
<path d="M80.9083 55.7572C76.9539 55.7572 75.7675 57.7344 75.7675 59.3163C75.7675 60.8982 76.7561 62.2821 81.9463 65.0504C89.6575 68.7577 92.2278 72.3661 92.2278 77.7047C92.2278 85.6137 86.2962 89.9637 77.9916 89.9637C74.4356 90.1215 70.8976 89.373 67.7101 87.7887C67.3145 87.5909 67.3145 87.3932 67.3145 86.9979V79.6821C67.3145 79.2866 67.5123 79.0891 67.9076 79.2866C70.8322 81.2419 74.2759 82.275 77.7938 82.2524C81.7483 82.2524 83.3302 80.6705 83.3302 78.5451C83.3302 76.7657 82.0944 75.1838 77.1512 72.6135C70.2307 69.2522 67.2649 65.8909 67.2649 60.157C67.2649 53.8299 72.2079 48.4913 80.8584 48.4913C83.8861 48.3691 86.9085 48.8391 89.7561 49.8755C90.1274 50.0123 90.3176 50.4243 90.1808 50.7959C90.1723 50.8192 90.1624 50.842 90.1516 50.8641V57.5867C90.1516 57.9823 89.9538 58.1798 89.3608 57.9823C86.7818 56.5699 83.8976 55.8064 80.9574 55.7579H80.9083V55.7572ZM62.6187 51.8028C62.6187 64.4571 53.5233 69.7956 42.2531 69.7956H38.5459V88.7771C38.5903 89.0602 38.3968 89.3259 38.1134 89.3701C38.06 89.3786 38.0059 89.3786 37.9526 89.3701H30.1425C29.8594 89.4146 29.5936 89.2211 29.5494 88.9377C29.541 88.8843 29.541 88.8302 29.5494 88.7768L29.7472 35.3914C29.7472 34.9959 30.538 34.7984 30.983 34.7984C34.1465 34.6006 38.892 34.6006 43.6372 34.6006C57.2307 34.6008 62.6187 42.1143 62.6187 51.8028ZM53.6223 51.8028C53.6223 45.4757 49.6679 42.3121 43.1429 42.3121C41.5585 42.2557 39.9718 42.322 38.3975 42.5099V61.6891H42.3519C48.1356 61.6891 53.6223 59.7119 53.6223 51.8028Z" fill="white"/>
<path opacity="0.15" d="M80.9083 55.7572C76.9539 55.7572 75.7675 57.7344 75.7675 59.3163C75.7675 60.8982 76.7561 62.2821 81.9463 65.0504C89.6575 68.7577 92.2278 72.3661 92.2278 77.7047C92.2278 85.6137 86.2962 89.9637 77.9916 89.9637C74.4356 90.1215 70.8976 89.373 67.7101 87.7887C67.3145 87.5909 67.3145 87.3932 67.3145 86.9979V79.6821C67.3145 79.2866 67.5123 79.0891 67.9076 79.2866C70.8322 81.2419 74.2759 82.275 77.7938 82.2524C81.7483 82.2524 83.3302 80.6705 83.3302 78.5451C83.3302 76.7657 82.0944 75.1838 77.1512 72.6135C70.2307 69.2522 67.2649 65.8909 67.2649 60.157C67.2649 53.8299 72.2079 48.4913 80.8584 48.4913C83.8861 48.3691 86.9085 48.8391 89.7561 49.8755C90.1274 50.0123 90.3176 50.4243 90.1808 50.7959C90.1723 50.8192 90.1624 50.842 90.1516 50.8641V57.5867C90.1516 57.9823 89.9538 58.1798 89.3608 57.9823C86.7818 56.5699 83.8976 55.8064 80.9574 55.7579H80.9083V55.7572ZM62.6187 51.8028C62.6187 64.4571 53.5233 69.7956 42.2531 69.7956H38.5459V88.7771C38.5903 89.0602 38.3968 89.3259 38.1134 89.3701C38.06 89.3786 38.0059 89.3786 37.9526 89.3701H30.1425C29.8594 89.4146 29.5936 89.2211 29.5494 88.9377C29.541 88.8843 29.541 88.8302 29.5494 88.7768L29.7472 35.3914C29.7472 34.9959 30.538 34.7984 30.983 34.7984C34.1465 34.6006 38.892 34.6006 43.6372 34.6006C57.2307 34.6008 62.6187 42.1143 62.6187 51.8028ZM53.6223 51.8028C53.6223 45.4757 49.6679 42.3121 43.1429 42.3121C41.5585 42.2557 39.9718 42.322 38.3975 42.5099V61.6891H42.3519C48.1356 61.6891 53.6223 59.7119 53.6223 51.8028Z" fill="#00C8FF"/>
</g>
<defs>
<clipPath id="clip0_162_1578">
<rect width="120.401" height="120.401" fill="white" transform="translate(0.685303 0.882568)"/>
</clipPath>
</defs>
</svg>
