<svg width="107" height="106" viewBox="0 0 107 106" fill="none" xmlns="http://www.w3.org/2000/svg">
<path d="M74.407 5.22749H68.3296L74.6498 12.086V15.351H61.6324V11.5279H67.9518L61.6324 4.66946V1.40112H74.407V5.22749ZM59.0513 5.22749H52.9739L59.2941 12.086V15.351H46.2759V11.5279H52.5961L46.2759 4.66946V1.40112H59.0513V5.22749ZM43.8463 5.38387H37.2882V11.3683H43.8463V15.351H32.6265V1.40112H43.8463V5.38387Z" fill="#131313"/>
<path d="M23.6899 96.4627L17.0256 21.719H90.25L83.58 96.4504L53.593 104.765L23.6899 96.4627Z" fill="#1572B6"/>
<path d="M53.6389 98.4101L77.8687 91.6924L83.5692 27.8311H53.6389V98.4101Z" fill="#33A9DC"/>
<path d="M53.6382 54.9102H65.7683L66.607 45.5233H53.6382V36.3562H76.6252L76.4054 38.8155L74.1527 64.0766H53.6382V54.9102Z" fill="white"/>
<path d="M53.6932 78.7177L53.6529 78.7293L43.4437 75.972L42.7902 68.6609H33.5894L34.8741 83.0544L53.6512 88.2668L53.694 88.2544V78.7177H53.6932Z" fill="#EBEBEB"/>
<path d="M64.9896 63.6887L63.8851 75.9653L53.6611 78.725V88.2625L72.4539 83.0543L72.5921 81.5053L74.1872 63.6887H64.9896Z" fill="white"/>
<path d="M53.6702 36.3562V45.5225H31.5277L31.3433 43.4624L30.9261 38.8155L30.7063 36.3562H53.6702ZM53.6381 54.9111V64.0782H43.5582L43.3747 62.0181L42.9566 57.3703L42.7368 54.9111H53.6381Z" fill="#EBEBEB"/>
</svg>
