<svg width="101" height="101" viewBox="0 0 101 101" fill="none" xmlns="http://www.w3.org/2000/svg">
<g clip-path="url(#clip0_162_1514)">
<path d="M33.8571 100.674C43.0571 100.674 50.5238 93.207 50.5238 84.007V67.3403H33.8571C24.6571 67.3403 17.1904 74.807 17.1904 84.007C17.1904 93.207 24.6571 100.674 33.8571 100.674Z" fill="#0ACF83"/>
<path d="M17.1904 50.6735C17.1904 41.4735 24.6571 34.0068 33.8571 34.0068H50.5238V67.3402H33.8571C24.6571 67.3402 17.1904 59.8735 17.1904 50.6735Z" fill="#A259FF"/>
<path d="M17.1904 17.3403C17.1904 8.14025 24.6571 0.673584 33.8571 0.673584H50.5238V34.0069H33.8571C24.6571 34.0069 17.1904 26.5402 17.1904 17.3403Z" fill="#F24E1E"/>
<path d="M50.5237 0.673584H67.1903C76.3903 0.673584 83.857 8.14025 83.857 17.3403C83.857 26.5402 76.3903 34.0069 67.1903 34.0069H50.5237V0.673584Z" fill="#FF7262"/>
<path d="M83.857 50.6735C83.857 59.8735 76.3903 67.3402 67.1903 67.3402C57.9903 67.3402 50.5237 59.8735 50.5237 50.6735C50.5237 41.4735 57.9903 34.0068 67.1903 34.0068C76.3903 34.0068 83.857 41.4735 83.857 50.6735Z" fill="#1ABCFE"/>
</g>
<defs>
<clipPath id="clip0_162_1514">
<rect width="100" height="100" fill="white" transform="translate(0.523682 0.673584)"/>
</clipPath>
</defs>
</svg>
