<svg width="80" height="112" viewBox="0 0 80 112" fill="none" xmlns="http://www.w3.org/2000/svg">
<g clip-path="url(#clip0_162_1556)">
<path d="M79.7682 22.207L72.57 102.251L40.2136 111.155L7.94657 102.263L0.755371 22.207H79.7682Z" fill="#E44D26"/>
<path d="M40.2617 104.348L66.4076 97.1535L72.5589 28.7524H40.2617V104.348Z" fill="#F16529"/>
<path d="M26.2679 48.3901H40.2608V38.5767H15.458L15.6949 41.2111L18.1261 68.268H40.2618V58.4447H27.1723L26.2679 48.3901ZM28.4973 73.1723H18.5678L19.953 88.5884L40.2157 94.1682L40.2608 94.1562V83.9442L40.2177 83.9552L29.202 81.0029L28.4993 73.1723H28.4973Z" fill="#EBEBEB"/>
<path d="M8.1062 0.450928H13.1332V5.38106H17.7316V0.450928H22.7586V15.3798H17.7316V10.3809H13.1332V15.3798H8.1062V0.450928ZM29.3686 5.40198H24.9439V0.450928H38.8234V5.40198H34.3967V15.3798H29.3696V5.40198H29.3686ZM41.0267 0.450928H46.2706L49.4948 5.69592L52.7129 0.450928H57.9568V15.3798H52.9498V7.97964L49.4918 13.2874H49.4054L45.9443 7.97964V15.3788H41.0257L41.0267 0.450928ZM60.4582 0.450928H65.4863V10.4447H72.555V15.3788H60.4582V0.450928Z" fill="black"/>
<path d="M40.2276 68.262H52.4076L51.2593 80.9959L40.2266 83.9512V94.1662L60.5033 88.5864L60.6518 86.9274L62.9766 61.0781L63.2175 58.4416H40.2276V68.262ZM40.2276 48.3652V48.3891H64.1179L64.3187 46.1821L64.7694 41.2001L65.0053 38.5657H40.2276V48.3602V48.3652Z" fill="white"/>
</g>
<defs>
<clipPath id="clip0_162_1556">
<rect width="79.0129" height="110.704" fill="white" transform="translate(0.755371 0.450928)"/>
</clipPath>
</defs>
</svg>
