<svg width="111" height="109" viewBox="0 0 111 109" fill="none" xmlns="http://www.w3.org/2000/svg">
<path d="M24.7782 17.3277C18.4678 26.2811 19.2531 37.9312 24.0743 47.4464L24.4271 48.1227L24.6528 48.5515L24.7936 48.7981L25.0451 49.2422C25.1944 49.5024 25.3481 49.7608 25.5052 50.021L25.7678 50.4481C25.942 50.7244 26.1197 50.999 26.3017 51.2727L26.5291 51.6193C26.7806 51.9897 27.0373 52.3583 27.3025 52.7219L27.3248 52.7498L27.4553 52.9236C27.6844 53.2354 27.9205 53.5439 28.16 53.8498L28.4252 54.1829C28.6389 54.4481 28.8561 54.7109 29.0766 54.9744L29.3256 55.2676C29.6217 55.6117 29.9247 55.9558 30.2328 56.2914L30.2508 56.31L30.286 56.3481C30.5873 56.6727 30.8954 56.9905 31.2087 57.3083L31.504 57.6024C31.746 57.8431 31.9924 58.0795 32.2404 58.3151L32.5417 58.5982C32.8739 58.9066 33.2086 59.21 33.5511 59.5049L33.5665 59.5185L33.7425 59.6659C34.0438 59.9244 34.3502 60.1787 34.6592 60.4304L35.0386 60.7295C35.2909 60.9287 35.5458 61.1261 35.8025 61.3193L36.2119 61.6253C36.4951 61.8312 36.781 62.0337 37.0694 62.2329L37.3809 62.4515L37.4676 62.5126C37.7406 62.699 38.0212 62.8778 38.3002 63.0566L38.6607 63.2939C39.0899 63.5609 39.525 63.8261 39.9645 64.0821L40.325 64.2829C40.6486 64.4668 40.9739 64.6482 41.3035 64.8244L41.8451 65.1007L42.5455 65.46L42.7068 65.5371L42.9935 65.6736C43.36 65.8465 43.73 66.0168 44.1033 66.1812L44.3377 66.2846C44.7651 66.4694 45.1968 66.6465 45.632 66.8168L45.9479 66.9389C46.3504 67.0931 46.759 67.2431 47.1693 67.3855L47.3229 67.438C47.7727 67.5939 48.2276 67.7372 48.6851 67.8787L49.0138 67.9753C49.479 68.1143 49.9399 68.2787 50.4197 68.3668C80.9357 73.8609 89.7997 50.2617 89.7997 50.2617C82.3546 59.838 69.1407 62.3634 56.6203 59.5515C56.1456 59.4456 55.6856 59.299 55.2229 59.1651L54.8744 59.06C54.423 58.9236 53.9741 58.7804 53.5286 58.6278L53.3441 58.5626C52.9449 58.4236 52.551 58.2778 52.1578 58.1278L51.8248 57.999C51.3948 57.8312 50.9665 57.6558 50.5442 57.4736L50.2884 57.3609C49.9253 57.199 49.5657 57.0354 49.2078 56.8651L48.8954 56.7168C48.6147 56.582 48.3374 56.4388 48.0593 56.2973L47.5023 56.0083C47.1633 55.8303 46.8311 55.6439 46.5006 55.4541L46.1624 55.2685C45.7221 55.0117 45.2878 54.7473 44.8578 54.4787L44.5059 54.2473C44.1943 54.049 43.8836 53.8464 43.578 53.638L43.2785 53.4303C42.9832 53.2253 42.6905 53.0159 42.4013 52.8049L42.0125 52.5142C41.7464 52.3134 41.482 52.1109 41.2211 51.9032L40.8683 51.6236C40.5353 51.3541 40.2065 51.0812 39.8821 50.8024L39.7739 50.7134C39.4229 50.4092 39.0778 50.0964 38.7371 49.7829L38.4453 49.5049C38.1929 49.2685 37.944 49.0295 37.7002 48.7837L37.4084 48.4956C37.0977 48.182 36.793 47.8642 36.4943 47.5414L36.4488 47.493C36.1329 47.1524 35.8239 46.8041 35.5218 46.4515L35.2789 46.1668C35.0532 45.899 34.83 45.6261 34.612 45.3524L34.3674 45.0515C34.1038 44.7151 33.8481 44.3795 33.5966 44.0388C26.6459 34.6769 24.1481 21.765 29.7041 11.1616M44.3651 9.78363C39.8023 16.2667 40.0495 24.9472 43.6098 31.8032C44.2063 32.9523 44.8775 34.0684 45.6277 35.1295C46.3109 36.0981 47.0697 37.249 47.9769 38.0261C48.3057 38.3837 48.6499 38.7329 49.0009 39.0752L49.2704 39.3388C49.6112 39.6651 49.958 39.9862 50.3159 40.2981L50.3588 40.3346L50.3691 40.3447C50.7656 40.6879 51.1751 41.0176 51.5905 41.343L51.8677 41.5566C52.2849 41.8718 52.7097 42.182 53.1458 42.4778L53.1827 42.5057L53.7663 42.8846L54.0427 43.0651C54.3543 43.2625 54.6693 43.4541 54.9903 43.638L55.1242 43.7159C55.4006 43.8727 55.6804 44.0269 55.9611 44.1778L56.2589 44.3303L56.8443 44.6303L56.9327 44.6702C57.3353 44.8651 57.7404 45.0541 58.155 45.232L58.4245 45.3422C58.7558 45.4803 59.0897 45.6159 59.4261 45.743L59.8553 45.899C60.1609 46.0108 60.4664 46.1134 60.7754 46.2151L61.1908 46.3464C61.6295 46.4803 62.0638 46.6507 62.5204 46.7261C86.0814 50.5795 91.5206 32.6684 91.5206 32.6684C86.6179 39.6413 77.1222 42.9676 66.9897 40.371C66.5399 40.254 66.0953 40.1269 65.655 39.9905L65.2542 39.8625C64.9409 39.7634 64.6293 39.6566 64.3212 39.5456L63.8997 39.3905C63.5615 39.2617 63.2268 39.1286 62.8946 38.9896L62.6243 38.8769C62.208 38.6981 61.7985 38.5091 61.3951 38.3125L60.7789 38.0032L60.4235 37.8227C60.1609 37.682 59.8999 37.5362 59.6433 37.3871L59.457 37.2828C59.1377 37.0989 58.8236 36.91 58.5129 36.7134L58.2279 36.5261L57.6168 36.1261C57.1825 35.8303 56.7593 35.521 56.343 35.2066L56.0564 34.9828C51.6214 31.5261 48.1057 26.8006 46.4345 21.443C44.6827 15.8862 45.0604 9.64889 48.0954 4.58616M60.8389 4.14718C58.149 8.05566 57.8846 12.9108 59.7514 17.2277C61.7196 21.8099 65.7528 25.404 70.4608 27.1091L71.0461 27.3083L71.3036 27.3896C71.5809 27.476 71.8564 27.576 72.1431 27.6286C85.1527 30.1108 88.6813 21.0379 89.6203 19.7015C86.5294 24.0955 81.3349 25.1506 74.9609 23.6226C74.458 23.5023 73.9044 23.3226 73.4194 23.1523C72.7971 22.9328 72.1843 22.6837 71.5877 22.4015C70.4565 21.8642 69.3776 21.2133 68.3767 20.4676C62.6732 16.1947 59.1309 8.04465 62.8526 1.40649" fill="#0868AC"/>
<path d="M57.9104 81.6278H54.2831C54.0822 81.6278 53.8823 81.7872 53.8393 81.9812L52.5519 87.8626L51.2644 93.744C51.2223 93.938 51.0223 94.0974 50.8215 94.0974H48.2542C45.7144 94.0974 46.008 92.3626 46.5281 89.9863L46.5436 89.9143L46.6002 89.6143L46.6105 89.5584L46.7264 88.9482L46.8509 88.2948L46.983 87.6296L47.5684 84.8058L48.1547 81.9821C48.195 81.7872 48.0628 81.627 47.862 81.627H44.1394C43.9386 81.627 43.7394 81.7863 43.6982 81.9812L42.8974 85.7304L42.0975 89.4804L42.0957 89.4855L42.0219 89.8346C41.1001 93.9897 41.3438 97.9533 46.3547 98.0779L46.5007 98.0804H54.3655C54.5663 98.0804 54.7663 97.9211 54.8084 97.727L56.5044 89.855L58.2005 81.9821C58.2425 81.7872 58.1121 81.6287 57.9104 81.6278ZM19.066 81.5863H15.0834C14.8817 81.5863 14.6809 81.7456 14.6362 81.9389L14.2586 83.5846L13.8809 85.2304C13.8371 85.4245 13.965 85.5829 14.1667 85.5829H18.1802C18.382 85.5829 18.5819 85.4236 18.6249 85.2295L18.9896 83.5846L19.3544 81.9397C19.3965 81.7456 19.2677 81.5863 19.066 81.5863ZM17.9107 86.7084H13.8963C13.6955 86.7084 13.4938 86.8677 13.4492 87.0609L12.8852 89.527L12.3222 91.9923L12.1651 92.6991L11.6235 95.216L11.0828 97.7338C11.0407 97.9279 10.954 98.2414 10.8896 98.4296C10.8896 98.4296 10.1395 100.633 8.87858 100.608L8.72065 100.604L7.62972 100.585H7.62886C7.42802 100.582 7.22631 100.737 7.1791 100.93L6.76281 102.658L6.34739 104.385C6.30018 104.578 6.42721 104.737 6.6272 104.741C7.34218 104.749 8.94382 104.767 9.91287 104.767C13.0621 104.767 14.7229 103.044 15.7864 98.0864L17.0318 92.3965L18.2 87.0601C18.242 86.8677 18.1116 86.7084 17.9107 86.7084ZM91.8271 85.3745L91.6605 84.6956L91.4966 84.0007L91.4133 83.6499C91.0872 82.3982 90.1301 81.677 88.0513 81.677L84.8154 81.6736L81.8353 81.6694H78.4818C78.281 81.6694 78.0818 81.8287 78.0398 82.0228L77.8913 82.7143L77.7162 83.5312L77.6673 83.7609L76.1575 90.744L74.7241 97.3728C74.6812 97.5677 74.6674 97.8067 74.6915 97.9033C74.7155 98.0008 75.1026 98.0804 75.3035 98.0804H78.3282C78.5299 98.0804 78.7848 98.0448 78.8947 98.0008C79.0045 97.9567 79.1668 97.566 79.2071 97.3719L79.7444 94.7457L80.2826 92.1185L80.2835 92.1143L80.3556 91.7643L81.0079 88.7473L81.5838 86.0829C81.6267 85.8889 81.825 85.7304 82.0259 85.7295L91.5438 85.7253C91.7455 85.727 91.8726 85.5685 91.8271 85.3745ZM104.08 79.2389L103.347 79.2414H100.3C100.099 79.2414 99.8404 79.3761 99.7279 79.5406L92.991 89.2846C92.8776 89.449 92.748 89.4253 92.7034 89.2321L92.2073 87.0855C92.1627 86.8914 91.961 86.7329 91.7592 86.7329H87.429C87.2273 86.7329 87.108 86.8889 87.1629 87.0795L89.1036 93.7923C89.1585 93.9838 89.1628 94.2974 89.113 94.4906L88.2676 97.7389C88.2169 97.9321 88.3405 98.0889 88.5423 98.0889H92.8227C93.0236 98.0889 93.2296 97.9313 93.2793 97.7389L94.1257 94.4906C94.1754 94.2965 94.3153 94.0101 94.4372 93.8508L105.374 79.5194C105.496 79.36 105.43 79.2304 105.229 79.2321L104.08 79.2389ZM69.6728 87.6448V87.6414C69.648 87.8567 69.4463 88.0151 69.2445 88.0151H63.7538C63.5633 88.0151 63.4672 87.888 63.4955 87.7304L63.5006 87.7177L63.4972 87.7194L63.4998 87.7016L63.5247 87.6092C64.0491 86.2329 65.1169 85.3295 67.1245 85.3295C69.3853 85.3287 69.8265 86.4185 69.6728 87.6448ZM68.0618 81.3872C61.0141 81.3872 59.3438 85.6109 58.4065 89.8745C57.47 94.2202 57.5499 98.2821 64.8439 98.2821H65.728L65.9477 98.2813H65.9992L66.8747 98.2787H66.8902C68.8162 98.2711 70.7483 98.2567 71.5303 98.2508C71.7302 98.2474 71.9259 98.0889 71.9671 97.8948L72.2624 96.4702L72.3199 96.1931L72.6718 94.4931C72.7122 94.2991 72.5808 94.1389 72.3791 94.1389H65.8224C63.214 94.1389 62.4397 93.455 62.7256 91.4431H73.2066L73.2057 91.444L73.2126 91.4431C73.3791 91.4406 73.5336 91.327 73.5945 91.1762L73.6194 91.0863L73.6186 91.0872C75.1747 85.2914 74.7284 81.388 68.0618 81.3872ZM34.7502 87.6228L34.6506 87.9694V87.9702L33.8593 90.7397L33.0679 93.5084C33.0138 93.7008 32.8035 93.8567 32.6018 93.8567H28.4132C25.2357 93.8567 24.4615 91.4024 25.2357 87.7838C26.009 84.0821 27.5257 81.7812 30.6534 81.5482C34.9279 81.2295 35.7828 84.1973 34.7502 87.6228ZM37.6239 93.644C37.6239 93.644 39.5989 88.9084 40.0469 86.1745C40.6589 82.5143 38.8023 77.2041 31.6319 77.2041C24.5027 77.2041 21.4058 82.2728 20.2248 87.7838C19.0437 93.3346 20.5913 98.2016 27.6802 98.1618L33.273 98.1414L38.4994 98.1228C38.7002 98.1211 38.9062 97.9635 38.9577 97.7719L39.8684 94.3431C39.919 94.1499 39.7963 93.9923 39.5946 93.9906L38.7217 93.9855L37.8488 93.9804C37.6779 93.9796 37.5801 93.8694 37.6007 93.7245L37.6239 93.644ZM72.9182 90.4736C72.9182 90.605 72.8109 90.7118 72.6778 90.7118C72.5457 90.7118 72.4375 90.605 72.4375 90.4736C72.4375 90.3431 72.5448 90.2372 72.6778 90.2372C72.8109 90.2372 72.9182 90.3431 72.9182 90.4736Z" fill="#131B28"/>
</svg>
