<svg width="91" height="105" viewBox="0 0 91 105" fill="none" xmlns="http://www.w3.org/2000/svg">
<g clip-path="url(#clip0_162_1522)">
<path d="M79.4175 21.0372C79.3466 20.518 78.8955 20.2306 78.5227 20.199C78.1506 20.1677 70.2755 19.5791 70.2755 19.5791C70.2755 19.5791 64.8061 14.1041 64.2058 13.4981C63.6052 12.8924 62.4321 13.0767 61.9768 13.2118C61.9098 13.2317 60.7818 13.5827 58.916 14.1649C57.0891 8.86381 53.8647 3.99232 48.1922 3.99232C48.0356 3.99232 47.8744 3.99872 47.7132 4.00797C46.1 1.85673 44.1015 0.922119 42.3754 0.922119C29.1615 0.922119 22.8485 17.5783 20.8691 26.0424C15.7345 27.6467 12.0869 28.7872 11.621 28.9348C8.75493 29.8413 8.66429 29.9324 8.28796 32.6555C8.00474 34.7171 0.505615 93.1938 0.505615 93.1938L58.9404 104.233L90.6023 97.327C90.6023 97.327 79.4877 21.5564 79.4178 21.0372H79.4175ZM55.6864 15.1721L50.7418 16.7152C50.7436 16.3638 50.7454 16.0181 50.7454 15.6401C50.7454 12.3455 50.2918 9.6928 49.5642 7.58992C52.487 7.95979 54.4336 11.3131 55.6864 15.1721ZM45.9384 8.24323C46.751 10.2963 47.2794 13.2427 47.2794 17.2188C47.2794 17.4222 47.2776 17.6082 47.2759 17.7963C44.0603 18.8006 40.5661 19.891 37.0641 20.9849C39.0304 13.3331 42.7161 9.63732 45.9384 8.24323ZM42.0125 4.4959C42.5828 4.4959 43.1574 4.69114 43.7072 5.07274C39.4723 7.08208 34.9331 12.1428 33.0162 22.2489L24.9443 24.7696C27.1895 17.0612 32.521 4.4959 42.0121 4.4959H42.0125Z" fill="#95BF46"/>
<path d="M78.5228 20.1989C78.1507 20.1676 70.2756 19.579 70.2756 19.579C70.2756 19.579 64.8063 14.104 64.206 13.498C63.9813 13.2725 63.6784 13.157 63.3616 13.1072L58.9434 104.233L90.6025 97.3269C90.6025 97.3269 79.4875 21.5564 79.4176 21.0371C79.3467 20.5179 78.8956 20.2306 78.5228 20.1989Z" fill="#5E8E3E"/>
<path d="M48.1924 37.8391L44.2883 49.5488C44.2883 49.5488 40.8678 47.708 36.6749 47.708C30.528 47.708 30.2187 51.5976 30.2187 52.5777C30.2187 57.9258 44.0446 59.9749 44.0446 72.5018C44.0446 82.3576 37.8452 88.7039 29.4862 88.7039C19.4554 88.7039 14.3257 82.4091 14.3257 82.4091L17.0115 73.4613C17.0115 73.4613 22.2844 78.0259 26.7337 78.0259C29.641 78.0259 30.8236 75.7178 30.8236 74.0314C30.8236 67.0553 19.4808 66.7441 19.4808 55.2809C19.4808 45.6329 26.3485 36.2964 40.2118 36.2964C45.5535 36.2964 48.1924 37.8391 48.1924 37.8391Z" fill="white"/>
</g>
<defs>
<clipPath id="clip0_162_1522">
<rect width="90.3004" height="103.845" fill="white" transform="translate(0.487793 0.64502)"/>
</clipPath>
</defs>
</svg>
