<svg width="140" height="67" viewBox="0 0 140 67" fill="none" xmlns="http://www.w3.org/2000/svg">
<path d="M34.9664 13.765H10.5539L0 66.868H12.5355L15.1755 53.1031H27.0525C38.2649 53.7574 50.8065 44.5787 50.8065 28.8447C50.8065 19.666 45.5264 14.4193 34.9725 13.765H34.9664ZM25.7294 43.2701H17.8093L21.1078 23.6041H29.6863C34.3018 23.6041 37.6064 25.5731 37.6064 29.5051C36.9479 40.6528 31.6679 42.6158 25.7294 43.2701ZM79.1697 13.765H67.2927L69.9327 0H57.3973L46.8434 53.1031H59.3788L65.3173 23.6041H75.2128C79.8343 23.6041 79.8343 25.5731 79.1697 28.8508L74.5543 53.1092H87.7482L92.3636 26.2274C93.6806 19.6721 89.7236 14.4254 79.1697 13.7711V13.765ZM123.373 13.765H98.9606L88.4067 66.868H100.942L103.582 53.1031H115.459C126.678 53.7574 139.213 44.5787 139.213 28.8447C139.213 19.666 133.933 14.4193 123.379 13.765H123.373ZM114.136 43.2701H106.216L109.515 23.6041H118.093C122.715 23.6041 126.013 25.5731 126.013 29.5051C125.355 40.6528 120.075 42.6158 114.136 43.2701Z" fill="#444444"/>
</svg>
