<svg width="105" height="105" viewBox="0 0 105 105" fill="none" xmlns="http://www.w3.org/2000/svg">
<g clip-path="url(#clip0_162_1528)">
<path d="M97.1799 52.3293C97.1799 69.961 86.9338 85.1968 72.0761 92.418L93.3235 34.2017C95.8706 39.9054 97.1847 46.0826 97.1799 52.3293ZM22.5676 50.0815C22.5676 44.5766 24.5449 40.7643 26.2409 37.797C28.4988 34.1279 30.6143 31.0208 30.6143 27.3517C30.6143 23.2571 27.5097 19.4457 23.1354 19.4457C22.938 19.4457 22.7507 19.4702 22.5574 19.4813C30.4829 12.2211 41.041 7.78833 52.6373 7.78833C68.1985 7.78833 81.8891 15.7723 89.8536 27.8653C88.8086 27.8967 87.8229 27.9179 86.9872 27.9179C82.3281 27.9179 75.1163 27.3525 75.1163 27.3525C72.7151 27.211 72.432 30.7377 74.8298 31.0216C74.8298 31.0216 77.2436 31.3056 79.9287 31.4463L63.7081 79.6936L53.9595 50.4587L60.9001 31.4454C63.2987 31.3047 65.571 31.0208 65.571 31.0208C67.9713 30.8801 67.6899 27.2102 65.2897 27.3517C65.2897 27.3517 57.9337 27.917 53.5569 27.917C48.8987 27.917 41.686 27.3517 41.686 27.3517C39.2831 27.2102 39.0009 30.7368 41.4004 31.0208C41.4004 31.0208 43.8184 31.3047 46.4984 31.4454L30.4016 79.3274L25.9595 64.4807C24.033 58.3198 22.5676 53.8947 22.5676 50.0815Z" fill="#00749A"/>
<path d="M51.8557 56.2253L65.22 95.0588C61.1342 96.2629 56.8967 96.8743 52.6371 96.8743C47.45 96.8743 42.4757 95.9767 37.8455 94.3494C37.9697 94.155 38.0758 93.9496 38.1625 93.7358L51.8557 56.2253ZM13.5528 30.9587C13.3612 32.3776 13.2527 33.9015 13.2527 35.5389C13.2527 40.059 14.0969 45.1401 16.6396 51.4934L30.2454 90.8312C17.0032 83.1091 8.09618 68.7624 8.09618 52.3291C8.0843 44.8595 9.96134 37.5083 13.5528 30.9587Z" fill="#00749A"/>
<path d="M52.6369 0.407715C81.2666 0.407715 104.56 23.6995 104.56 52.3292C104.56 80.9623 81.2674 104.254 52.6369 104.254C24.008 104.254 0.711151 80.9631 0.711151 52.3292C0.711998 23.6995 24.008 0.407715 52.6369 0.407715ZM52.6369 101.873C79.9537 101.873 102.179 79.6477 102.179 52.3292C102.179 25.0132 79.9546 2.78936 52.6369 2.78936C25.3209 2.78936 3.09703 25.0132 3.09703 52.3292C3.09703 79.6477 25.3217 101.873 52.6369 101.873Z" fill="#00749A"/>
</g>
<defs>
<clipPath id="clip0_162_1528">
<rect width="103.845" height="103.845" fill="white" transform="matrix(-1 0 0 1 104.561 0.407715)"/>
</clipPath>
</defs>
</svg>
